<?xml version="1.0" encoding="utf-8"?>
<!-- Generator: Adobe Illustrator 16.0.0, SVG Export Plug-In . SVG Version: 6.00 Build 0)  -->
<!DOCTYPE svg PUBLIC "-//W3C//DTD SVG 1.1//EN" "http://www.w3.org/Graphics/SVG/1.1/DTD/svg11.dtd">
<svg version="1.1" id="Layer_1" xmlns="http://www.w3.org/2000/svg" xmlns:xlink="http://www.w3.org/1999/xlink" x="0px" y="0px"
	 width="27.818px" height="18.155px" viewBox="0 0 27.818 18.155" enable-background="new 0 0 27.818 18.155" xml:space="preserve">
<g>
	<defs>
		<path id="SVGID_1_" d="M26.704,17.062h-9.507v-3.101h6.429c0.003,0,0.006,0.001,0.009,0.001h3.069V17.062z M13.886,17.062h-2.149
			v-1.077h4.347v1.077H13.886z M1.114,13.962h2.847c0.004,0,0.006-0.001,0.009-0.001h6.651v3.101H1.114V13.962z M7.968,9.746
			L7.968,9.746l2.653,0.001v3.12H4.519V9.746H7.968z M8.582,5.552h2.039v3.102H8.582V5.552z M10.51,1.112h6.771v3.346H16.26V2.539
			c0-0.303-0.249-0.547-0.557-0.547h-3.66c-0.308,0-0.557,0.244-0.557,0.547v1.919H10.51V1.112z M17.197,5.552h2.039v3.102h-2.039
			V5.552z M11.736,13.358h4.347v1.531h-4.347V13.358z M12.734,5.552h3.349v1.462h-4.347V5.552H12.734z M12.601,3.086h2.545v1.372
			h-2.545V3.086z M11.736,8.107h4.347v1.531h-4.347V8.107z M11.736,10.733h4.347v1.531h-4.347V10.733z M23.077,9.746v3.121h-5.88
			v-3.12h2.6V9.746H23.077z M27.262,12.868h-3.07v-3.67c0-0.302-0.249-0.547-0.557-0.547h-3.284V5.005
			c0-0.302-0.249-0.547-0.557-0.547h-1.398V1.094h1.672c0.308,0,0.558-0.244,0.558-0.547c0-0.302-0.25-0.547-0.558-0.547H7.751
			C7.443,0,7.193,0.245,7.193,0.547c0,0.303,0.25,0.547,0.558,0.547h1.645v3.364h-1.37c-0.309,0-0.558,0.245-0.558,0.547v3.646
			H3.961c-0.308,0-0.557,0.245-0.557,0.547v3.67H0.557C0.249,12.868,0,13.112,0,13.415v4.193c0,0.303,0.249,0.547,0.557,0.547
			h26.705c0.308,0,0.557-0.244,0.557-0.547v-4.193C27.818,13.112,27.569,12.868,27.262,12.868z"/>
	</defs>
	<clipPath id="SVGID_2_">
		<use xlink:href="#SVGID_1_"  overflow="visible"/>
	</clipPath>
	<g clip-path="url(#SVGID_2_)">
		<defs>
			<rect id="SVGID_3_" x="-556.223" y="-344.532" width="1024" height="3325"/>
		</defs>
		<clipPath id="SVGID_4_">
			<use xlink:href="#SVGID_3_"  overflow="visible"/>
		</clipPath>
		<rect x="-5" y="-5" clip-path="url(#SVGID_4_)" fill="#FFFFFF" width="37.818" height="28.155"/>
	</g>
</g>
</svg>
