<?xml version="1.0" encoding="utf-8"?>
<!-- Generator: Adobe Illustrator 16.0.0, SVG Export Plug-In . SVG Version: 6.00 Build 0)  -->
<!DOCTYPE svg PUBLIC "-//W3C//DTD SVG 1.1//EN" "http://www.w3.org/Graphics/SVG/1.1/DTD/svg11.dtd">
<svg version="1.1" id="Layer_1" xmlns="http://www.w3.org/2000/svg" xmlns:xlink="http://www.w3.org/1999/xlink" x="0px" y="0px"
	 width="24.489px" height="23px" viewBox="0 0 24.489 23" enable-background="new 0 0 24.489 23" xml:space="preserve">
<g>
	<defs>
		<path id="SVGID_1_" d="M17.84,8.826l4.324-2.047l-9.907-4.688L2.35,6.779l9.907,4.688l3.983-1.884l-4.248-2.096
			c-0.317-0.157-0.463-0.575-0.323-0.933c0.14-0.358,0.511-0.52,0.828-0.364L17.84,8.826z M19.637,14.388V9.491l-1.258,0.596v5.168
			C19.133,14.907,19.385,14.581,19.637,14.388z M12.215,16.689c2.09,0,3.647-0.384,4.906-0.849v-5.159l-4.646,2.206
			c-0.078,0.036-0.146,0.055-0.229,0.055c-0.082,0-0.176-0.019-0.254-0.055L4.794,9.491v4.894
			C5.548,14.952,7.805,16.689,12.215,16.689z M24.031,6.127c0.233,0.11,0.38,0.367,0.38,0.652s-0.157,0.543-0.391,0.652
			l-3.106,1.465c0,0.005-0.02,0.009-0.02,0.014v5.805c0,0.19-0.068,0.373-0.189,0.506c-0.057,0.062-0.817,0.854-2.326,1.593v2.51
			c0.754,0.282,1.074,0.965,1.074,1.762c0,1.048-0.741,1.9-1.672,1.9s-1.698-0.853-1.698-1.9c0-0.797,0.534-1.479,1.038-1.762
			v-1.991c-1.259,0.439-2.883,0.773-4.896,0.773c-5.801,0-8.372-2.767-8.479-2.885c-0.121-0.133-0.211-0.315-0.211-0.506V8.91
			c0-0.005,0.022-0.009,0.022-0.014L0.482,7.432C0.25,7.322,0.098,7.064,0.098,6.779S0.25,6.237,0.482,6.127l11.53-5.455
			c0.156-0.074,0.332-0.074,0.488,0L24.031,6.127z"/>
	</defs>
	<clipPath id="SVGID_2_">
		<use xlink:href="#SVGID_1_"  overflow="visible"/>
	</clipPath>
	<g clip-path="url(#SVGID_2_)">
		<defs>
			<rect id="SVGID_3_" x="-410.902" y="-340.186" width="1024" height="3325"/>
		</defs>
		<clipPath id="SVGID_4_">
			<use xlink:href="#SVGID_3_"  overflow="visible"/>
		</clipPath>
		<rect x="-4.902" y="-4.384" clip-path="url(#SVGID_4_)" fill="#FFFFFF" width="34.313" height="32.369"/>
	</g>
</g>
</svg>
