<?xml version="1.0" encoding="utf-8"?>
<!-- Generator: Adobe Illustrator 16.0.0, SVG Export Plug-In . SVG Version: 6.00 Build 0)  -->
<!DOCTYPE svg PUBLIC "-//W3C//DTD SVG 1.1//EN" "http://www.w3.org/Graphics/SVG/1.1/DTD/svg11.dtd">
<svg version="1.1" id="Layer_1" xmlns="http://www.w3.org/2000/svg" xmlns:xlink="http://www.w3.org/1999/xlink" x="0px" y="0px"
	 width="24.051px" height="20.796px" viewBox="0 0 24.051 20.796" enable-background="new 0 0 24.051 20.796" xml:space="preserve">
<g>
	<defs>
		<path id="SVGID_1_" d="M22.773,3.024c-0.253,0.452-1.877,1.428-4.997,1.428c-3.229,0-4.989-1.046-4.989-1.474
			c0-0.024-0.015-0.048-0.017-0.072c0.22-0.499,1.972-1.465,4.984-1.465c3.238,0,5.019,1.112,5.019,1.566V3.024z M22.773,6.015
			c-0.253,0.451-1.877,1.427-4.997,1.427c-3.229,0-4.989-1.046-4.989-1.474c0-0.087-0.025-0.17-0.051-0.247l-0.002-0.912
			c1.215,0.737,3.19,1.085,5.044,1.085c1.829,0,3.729-0.339,4.995-1.056V6.015z M22.773,8.972c-0.253,0.633-1.864,1.46-4.998,1.46
			c-0.114,0-0.248,0.012-0.361,0.024c-0.029,0.003-0.067,0.006-0.094,0.009c-0.074-0.052-0.169-0.093-0.271-0.129
			c-0.056-0.034-0.115-0.068-0.174-0.102c-0.065-0.036-0.135-0.071-0.204-0.106c-0.064-0.032-0.13-0.063-0.197-0.095
			C16.401,10,16.325,9.968,16.248,9.936c-0.071-0.029-0.145-0.058-0.219-0.085c-0.081-0.03-0.164-0.061-0.249-0.088
			c-0.08-0.026-0.161-0.052-0.244-0.076c-0.088-0.026-0.177-0.052-0.269-0.076c-0.088-0.022-0.179-0.044-0.271-0.065
			c-0.095-0.021-0.189-0.043-0.288-0.062c-0.097-0.02-0.197-0.037-0.298-0.054c-0.101-0.018-0.2-0.035-0.304-0.05
			c-0.108-0.016-0.222-0.028-0.333-0.041c-0.104-0.013-0.206-0.025-0.313-0.035c-0.122-0.011-0.25-0.019-0.377-0.027
			c-0.104-0.006-0.207-0.015-0.314-0.02c-0.019-0.001-0.035-0.002-0.054-0.003l0.005-1.46c1.214,0.74,3.197,1.09,5.056,1.09
			c1.828,0,3.731-0.339,4.997-1.056V8.972z M22.773,11.963c0,0.316-1.266,1.271-4.305,1.397v-1.112c0-0.091-0.048-0.182-0.064-0.272
			c-0.006-0.031-0.036-0.063-0.044-0.095c-0.001-0.006,0.026-0.012,0.024-0.018c1.905-0.06,3.376-0.399,4.389-0.978V11.963z
			 M17.202,14.095v0.581c-0.254,0.104-0.121,0.223-0.121,0.35c0,0.428-1.772,1.474-5.021,1.474c-3.248,0-5.011-1.046-5.011-1.474
			c0-0.055-0.011-0.107-0.021-0.158l-0.001-0.809c1.222,0.73,3.199,1.075,5.055,1.075c1.888,0,3.854-0.356,5.121-1.115V14.095z
			 M17.202,17.941c0,0.41-1.808,1.412-5.087,1.412c-3.286,0-5.077-1.002-5.077-1.411l-0.009-1.079
			c1.222,0.731,3.198,1.077,5.055,1.077c1.889,0,3.852-0.356,5.118-1.114V17.941z M1.266,11.966l0.005-1.123
			c1.106,0.681,2.82,0.99,4.529,1.041c-0.006,0.03-0.01,0.061-0.015,0.092c-0.001,0.005-0.001,0.009-0.002,0.014
			c-0.014,0.084-0.022,0.17-0.022,0.258l-0.002,1.118C2.836,13.263,1.266,12.35,1.266,11.966z M1.28,8.07
			c1.221,0.736,3.209,1.085,5.071,1.085c1.84,0,3.759-0.34,5.025-1.058v1.164c0,0.002-0.112,0.007-0.15,0.009
			C9.53,9.366,8.238,9.73,7.33,10.238c-0.008,0.004-0.006,0.008-0.006,0.012l0,0L6.85,10.439c-0.168,0.006-0.352,0.01-0.524,0.01
			c-3.263,0-5.008-0.896-5.008-1.544c0-0.072-0.017-0.142-0.034-0.208L1.28,8.07z M6.327,4.703c3.288,0,5.05,1.163,5.05,1.566v0.033
			c-0.253,0.458-1.924,1.41-5.025,1.41c-3.249,0-5.021-1.046-5.021-1.474c0-0.018,0.006-0.035,0.005-0.053
			C1.534,5.728,3.248,4.703,6.327,4.703z M7.071,12.203c0-0.025,0.003-0.053,0.02-0.081c0.004-0.006-0.001-0.012,0.002-0.017
			c0.015-0.022,0.029-0.047,0.05-0.071c0.014-0.016,0.025-0.031,0.041-0.048c0.016-0.015,0.03-0.031,0.048-0.047
			c0.03-0.028,0.062-0.057,0.1-0.086c0.007-0.006,0.014-0.012,0.021-0.017c0.522-0.402,1.672-0.91,3.412-1.088
			c0.018-0.002,0.036-0.005,0.055-0.006c0.145-0.015,0.296-0.025,0.449-0.035c0.039-0.002,0.076-0.005,0.115-0.007
			c0.138-0.007,0.28-0.011,0.425-0.014c0.088-0.002,0.173-0.006,0.264-0.006c0.099,0,0.191,0.005,0.287,0.007
			c0.107,0.002,0.217,0.002,0.32,0.007c0.067,0.003,0.129,0.009,0.194,0.013c0.125,0.008,0.252,0.015,0.372,0.025
			c0.038,0.003,0.073,0.009,0.11,0.013c0.143,0.014,0.284,0.028,0.419,0.047c0.007,0.001,0.013,0.002,0.02,0.003
			c1.883,0.261,2.985,0.904,3.26,1.287c-0.008,0.044-0.012,0.089-0.012,0.136c0,0.25-1.362,1.474-5.002,1.474
			c-3.639,0-4.983-1.224-4.983-1.474C7.057,12.213,7.071,12.208,7.071,12.203L7.071,12.203z M24.051,5.968
			c0-0.042-0.011-0.083-0.011-0.123V3.173c0-0.063-0.028-0.129-0.028-0.194c0-0.068-0.03-0.133-0.046-0.195
			C23.736,0.955,20.707,0,17.721,0c-3.102,0-6.247,1.033-6.247,3.006l-0.007,1.488C10.275,3.681,8.275,3.261,6.29,3.261
			c-3.115,0-6.269,1.033-6.269,3.006L0,11.963c0,1.857,2.81,2.748,5.757,2.845l-0.005,3.134c0,1.972,3.215,2.854,6.363,2.854
			c3.143,0,6.354-0.883,6.354-2.854v-3.137c2.785-0.114,5.571-1.014,5.571-2.842V9.042c0-0.046,0.011-0.09,0.011-0.137
			c0-0.042-0.011-0.082-0.011-0.122V6.162C24.04,6.099,24.051,6.033,24.051,5.968z"/>
	</defs>
	<clipPath id="SVGID_2_">
		<use xlink:href="#SVGID_1_"  overflow="visible"/>
	</clipPath>
	<g clip-path="url(#SVGID_2_)">
		<defs>
			<rect id="SVGID_3_" x="-478" y="-342.118" width="1024" height="3325"/>
		</defs>
		<clipPath id="SVGID_4_">
			<use xlink:href="#SVGID_3_"  overflow="visible"/>
		</clipPath>
		<rect x="-5" y="-5" clip-path="url(#SVGID_4_)" fill="#FFFFFF" width="34.051" height="30.796"/>
	</g>
</g>
</svg>
