<?xml version="1.0" encoding="utf-8"?>
<!-- Generator: Adobe Illustrator 16.0.0, SVG Export Plug-In . SVG Version: 6.00 Build 0)  -->
<!DOCTYPE svg PUBLIC "-//W3C//DTD SVG 1.1//EN" "http://www.w3.org/Graphics/SVG/1.1/DTD/svg11.dtd">
<svg version="1.1" id="Layer_1" xmlns="http://www.w3.org/2000/svg" xmlns:xlink="http://www.w3.org/1999/xlink" x="0px" y="0px"
	 width="20.056px" height="25.963px" viewBox="0 0 20.056 25.963" enable-background="new 0 0 20.056 25.963" xml:space="preserve">
<g>
	<defs>
		<path id="SVGID_1_" d="M11.176,7.005L10.813,4.38c-0.059-0.424-0.457-0.729-0.891-0.672C9.489,3.767,9.187,4.151,9.245,4.575
			l0.572,4.113c-1.14,1.529-2.089,3.04-2.866,4.437l-1.498-2.881C5.255,9.863,4.777,9.711,4.389,9.905
			c-0.39,0.193-0.545,0.66-0.347,1.041l2.016,3.872c-0.844,1.694-1.404,3.104-1.727,3.997c-1.485-1.121-2.354-2.36-2.639-3.768
			c-0.395-1.939,0.324-4.274,2.137-7.01C6.94,3.341,13.547,1.626,16.98,1.626h0.001C14.709,3.174,12.785,5.096,11.176,7.005z
			 M16.21,7.164c-0.168,11.7-4.515,13.447-7.091,13.447c-1.112,0-2.331-0.328-3.422-0.909c0.082-0.234,0.195-0.541,0.334-0.898
			l4.761-0.864c0.43-0.078,0.714-0.481,0.634-0.902c-0.08-0.42-0.492-0.697-0.923-0.62L6.747,17.1
			c0.584-1.302,1.389-2.905,2.443-4.63l4.816-0.634c0.434-0.057,0.737-0.446,0.679-0.87s-0.457-0.724-0.89-0.664l-3.497,0.46
			c1.664-2.426,3.81-4.956,6.52-7.124C16.483,4.491,16.231,5.625,16.21,7.164z M20.05,1.354c-0.053-0.504-0.484-0.778-0.626-0.869
			C18.919,0.166,18.098,0,16.98,0C13.214,0,5.952,1.937,2.5,7.148c-2.072,3.129-2.845,5.795-2.36,8.177
			c0.392,1.926,1.585,3.542,3.639,4.968l-2.034,4.588c-0.174,0.393,0.011,0.849,0.412,1.019c0.103,0.043,0.209,0.063,0.314,0.063
			c0.306,0,0.597-0.174,0.727-0.466l1.944-4.388c1.273,0.631,2.655,0.95,3.978,0.95H9.12c3.158,0,8.485-1.896,8.672-14.924
			c0.045-3.12,1.107-4.104,1.679-4.659C19.768,2.188,20.104,1.859,20.05,1.354z"/>
	</defs>
	<clipPath id="SVGID_2_">
		<use xlink:href="#SVGID_1_"  overflow="visible"/>
	</clipPath>
	<g clip-path="url(#SVGID_2_)">
		<defs>
			<rect id="SVGID_3_" x="-340" y="-339.377" width="1024" height="3325"/>
		</defs>
		<clipPath id="SVGID_4_">
			<use xlink:href="#SVGID_3_"  overflow="visible"/>
		</clipPath>
		<rect x="-5" y="-5" clip-path="url(#SVGID_4_)" fill="#FFFFFF" width="30.056" height="35.963"/>
	</g>
</g>
</svg>
