<?xml version="1.0" encoding="utf-8"?>
<!-- Generator: Adobe Illustrator 16.0.0, SVG Export Plug-In . SVG Version: 6.00 Build 0)  -->
<!DOCTYPE svg PUBLIC "-//W3C//DTD SVG 1.1//EN" "http://www.w3.org/Graphics/SVG/1.1/DTD/svg11.dtd">
<svg version="1.1" id="Layer_1" xmlns="http://www.w3.org/2000/svg" xmlns:xlink="http://www.w3.org/1999/xlink" x="0px" y="0px"
	 width="24.637px" height="22.873px" viewBox="0 0 24.637 22.873" enable-background="new 0 0 24.637 22.873" xml:space="preserve">
<g>
	<defs>
		<path id="SVGID_1_" d="M16.312,12.301c-0.816,0-1.479,0.716-1.479,1.6c0,0.883,0.662,1.599,1.479,1.599s1.479-0.716,1.479-1.599
			C17.79,13.017,17.128,12.301,16.312,12.301"/>
	</defs>
	<clipPath id="SVGID_2_">
		<use xlink:href="#SVGID_1_"  overflow="visible"/>
	</clipPath>
	<g clip-path="url(#SVGID_2_)">
		<defs>
			<rect id="SVGID_3_" x="-187.755" y="-339.135" width="1024" height="3325"/>
		</defs>
		<clipPath id="SVGID_4_">
			<use xlink:href="#SVGID_3_"  overflow="visible"/>
		</clipPath>
		<rect x="9.833" y="7.301" clip-path="url(#SVGID_4_)" fill="#FFFFFF" width="12.957" height="13.198"/>
	</g>
</g>
<g>
	<defs>
		<path id="SVGID_5_" d="M23.161,19.865l-3.515-1.594c0.658-1.403,1.438-3.434,1.438-5.186c0-2.553-1.783-4.66-4.071-4.951V2.34
			l6.148,2.787V19.865z M16.472,20.857c-0.88-1.068-3.214-4.972-3.214-7.771c0-1.917,1.441-3.478,3.214-3.478
			s3.214,1.561,3.214,3.478C19.686,15.706,17.395,19.742,16.472,20.857z M9.188,5.127l6.428-2.787v5.846
			c-2.135,0.436-3.756,2.465-3.756,4.899c0,1.722,0.709,3.65,1.346,5.038l-4.018,1.741V5.127z M7.791,19.865l-6.148-2.787V2.34
			l6.148,2.787V19.865z M24.172,3.92l-7.679-3.405c-0.005-0.002,0.002-0.002-0.003-0.004c-0.027-0.012-0.051-0.018-0.079-0.025
			c-0.026-0.007-0.05-0.016-0.077-0.02s-0.055-0.002-0.082-0.002c-0.028,0-0.056-0.002-0.084,0.002
			c-0.027,0.004-0.053,0.013-0.078,0.02c-0.029,0.008-0.059,0.014-0.086,0.025c-0.006,0.002-0.01,0.002-0.015,0.004L8.551,3.803
			L1.111,0.515C0.896,0.42,0.699,0.447,0.506,0.587S0.245,0.963,0.245,1.215v16.37c0,0.307,0.123,0.583,0.386,0.699l7.68,3.405
			c0.014,0.006,0.016,0.009,0.029,0.014c0.015,0.005,0.023,0.01,0.037,0.014c0.059,0.017,0.116,0.028,0.176,0.028
			c0.061,0,0.119-0.012,0.178-0.028c0.015-0.004,0.027-0.009,0.042-0.014s0.028-0.008,0.042-0.014l5.055-2.234
			c0.695,1.288,1.813,3.104,2.603,3.104c0.721,0,1.712-1.505,2.499-2.956l4.723,2.087c0.084,0.037,0.174,0.056,0.264,0.056
			c0.137,0,0.224-0.043,0.341-0.128c0.192-0.141,0.261-0.376,0.261-0.628V4.621C24.559,4.313,24.436,4.037,24.172,3.92z"/>
	</defs>
	<clipPath id="SVGID_6_">
		<use xlink:href="#SVGID_5_"  overflow="visible"/>
	</clipPath>
	<g clip-path="url(#SVGID_6_)">
		<defs>
			<rect id="SVGID_7_" x="-187.755" y="-339.135" width="1024" height="3325"/>
		</defs>
		<clipPath id="SVGID_8_">
			<use xlink:href="#SVGID_7_"  overflow="visible"/>
		</clipPath>
		<rect x="-4.755" y="-4.541" clip-path="url(#SVGID_8_)" fill="#FFFFFF" width="34.313" height="32.1"/>
	</g>
</g>
</svg>
