<?xml version="1.0" encoding="utf-8"?>
<!-- Generator: Adobe Illustrator 16.0.0, SVG Export Plug-In . SVG Version: 6.00 Build 0)  -->
<!DOCTYPE svg PUBLIC "-//W3C//DTD SVG 1.1//EN" "http://www.w3.org/Graphics/SVG/1.1/DTD/svg11.dtd">
<svg version="1.1" id="Layer_1" xmlns="http://www.w3.org/2000/svg" xmlns:xlink="http://www.w3.org/1999/xlink" x="0px" y="0px"
	 width="26.598px" height="25.004px" viewBox="0 0 26.598 25.004" enable-background="new 0 0 26.598 25.004" xml:space="preserve">
<g>
	<defs>
		<path id="SVGID_1_" d="M22.581,6.553c-1.429,0-2.592-1.152-2.592-2.568c0-1.418,1.163-2.57,2.592-2.57
			c1.43,0,2.592,1.152,2.592,2.57C25.173,5.4,24.011,6.553,22.581,6.553z M17.432,17.121c-0.264-0.055-0.535-0.082-0.814-0.082
			c-1.034,0-1.978,0.389-2.69,1.027l-6.805-6.447c0.569-0.688,0.911-1.566,0.911-2.521c0-0.188-0.014-0.371-0.039-0.551L18.84,5.43
			c0.346,0.875,0.992,1.6,1.813,2.047L17.432,17.121z M19.209,21.021c0,1.416-1.162,2.57-2.592,2.57
			c-1.429,0-2.592-1.154-2.592-2.57c0-1.418,1.163-2.57,2.592-2.57C18.047,18.451,19.209,19.604,19.209,21.021z M4.017,11.666
			c-1.429,0-2.592-1.152-2.592-2.568c0-1.418,1.163-2.57,2.592-2.57s2.592,1.152,2.592,2.57C6.608,10.514,5.445,11.666,4.017,11.666
			z M22.581,0c-2.215,0-4.017,1.787-4.017,3.984c0,0.018,0.001,0.035,0.002,0.055L7.55,7.203c-0.681-1.244-2.009-2.09-3.533-2.09
			C1.802,5.113,0,6.9,0,9.098c0,2.195,1.802,3.982,4.017,3.982c0.733,0,1.422-0.197,2.015-0.539l7.021,6.65
			c-0.287,0.549-0.451,1.17-0.451,1.83c0,2.195,1.802,3.982,4.017,3.982s4.017-1.787,4.017-3.982c0-1.418-0.751-2.664-1.879-3.369
			l3.25-9.727c0.188,0.025,0.381,0.041,0.576,0.041c2.215,0,4.017-1.787,4.017-3.982C26.598,1.787,24.796,0,22.581,0z"/>
	</defs>
	<clipPath id="SVGID_2_">
		<use xlink:href="#SVGID_1_"  overflow="visible"/>
	</clipPath>
	<g clip-path="url(#SVGID_2_)">
		<defs>
			<rect id="SVGID_3_" x="-869.164" y="-342.359" width="1024" height="3325"/>
		</defs>
		<clipPath id="SVGID_4_">
			<use xlink:href="#SVGID_3_"  overflow="visible"/>
		</clipPath>
		<rect x="-5" y="-5" clip-path="url(#SVGID_4_)" fill="#FFFFFF" width="36.598" height="35.004"/>
	</g>
</g>
</svg>
