<?xml version="1.0" encoding="utf-8"?>
<!-- Generator: Adobe Illustrator 16.0.0, SVG Export Plug-In . SVG Version: 6.00 Build 0)  -->
<!DOCTYPE svg PUBLIC "-//W3C//DTD SVG 1.1//EN" "http://www.w3.org/Graphics/SVG/1.1/DTD/svg11.dtd">
<svg version="1.1" id="Layer_1" xmlns="http://www.w3.org/2000/svg" xmlns:xlink="http://www.w3.org/1999/xlink" x="0px" y="0px"
	 width="21.816px" height="21.803px" viewBox="0 0 21.816 21.803" enable-background="new 0 0 21.816 21.803" xml:space="preserve">
<g>
	<defs>
		<path id="SVGID_1_" d="M8.657,20.407h4.747v-6.559c0-0.386,0.312-0.698,0.698-0.698h6.283V8.406h-6.283
			c-0.386,0-0.698-0.312-0.698-0.698V1.429H8.657v6.279c0,0.386-0.312,0.698-0.698,0.698H1.396v4.744h6.562
			c0.386,0,0.698,0.312,0.698,0.698V20.407z M14.024,21.803H8.038c-0.228,0-0.435-0.088-0.583-0.247
			c-0.238-0.256-0.214-0.561-0.201-0.724c0.002-0.039,0.007-0.085,0.007-0.137v-6.149H1.108c-0.052,0-0.098,0.005-0.137,0.008
			c-0.061,0.004-0.114,0.008-0.158,0.008C0.28,14.562,0,14.163,0,13.771V7.787c0-0.394,0.28-0.792,0.813-0.792
			c0.044,0,0.098,0.004,0.158,0.009c0.039,0.003,0.084,0.007,0.137,0.007h6.152V0.861c0-0.009,0-0.017,0-0.022
			c-0.04-0.196,0.006-0.404,0.128-0.564c0.177-0.232,0.497-0.331,0.771-0.241h5.744c0.273-0.089,0.594,0.009,0.771,0.241
			c0.122,0.16,0.128,0.368,0.128,0.564v0.022v6.149h6.152c0.009,0,0.017,0,0.023,0c0.337-0.069,0.679,0.123,0.796,0.44
			c0.056,0.15,0.057,0.311,0.009,0.456v5.742c0.047,0.146,0.046,0.307-0.009,0.456c-0.102,0.273-0.363,0.456-0.655,0.456l0,0
			c-0.047,0-0.095-0.016-0.142-0.016h-0.023h-6.152v6.149c0,0.052,0.004,0.098,0.007,0.137c0.013,0.163,0.036,0.468-0.201,0.724
			C14.459,21.715,14.252,21.803,14.024,21.803z"/>
	</defs>
	<clipPath id="SVGID_2_">
		<use xlink:href="#SVGID_1_"  overflow="visible"/>
	</clipPath>
	<g clip-path="url(#SVGID_2_)">
		<defs>
			<rect id="SVGID_3_" x="-124.77" y="-341.521" width="1024" height="3325"/>
		</defs>
		<clipPath id="SVGID_4_">
			<use xlink:href="#SVGID_3_"  overflow="visible"/>
		</clipPath>
		<rect x="-5" y="-4.999" clip-path="url(#SVGID_4_)" fill="#FFFFFF" width="31.816" height="31.802"/>
	</g>
</g>
</svg>
