<?xml version="1.0" encoding="utf-8"?>
<!-- Generator: Adobe Illustrator 16.0.0, SVG Export Plug-In . SVG Version: 6.00 Build 0)  -->
<!DOCTYPE svg PUBLIC "-//W3C//DTD SVG 1.1//EN" "http://www.w3.org/Graphics/SVG/1.1/DTD/svg11.dtd">
<svg version="1.1" id="Layer_1" xmlns="http://www.w3.org/2000/svg" xmlns:xlink="http://www.w3.org/1999/xlink" x="0px" y="0px"
	 width="24.05px" height="21.935px" viewBox="0 0 24.05 21.935" enable-background="new 0 0 24.05 21.935" xml:space="preserve">
<g>
	<defs>
		<path id="SVGID_1_" d="M12.18,15.708c0.705,0,1.24,0.583,1.24,1.35c0,0.766-0.535,1.349-1.24,1.349
			c-0.703,0-1.239-0.583-1.239-1.349C10.94,16.291,11.477,15.708,12.18,15.708z M12.18,6.579c0.689,0,0.934,0.45,0.949,1.116
			l-0.275,6.014c-0.016,0.45-0.152,0.883-0.674,0.883c-0.52,0-0.658-0.433-0.673-0.883l-0.275-6.014
			C11.246,7.029,11.492,6.579,12.18,6.579z M1.74,20.57h20.572L12.102,2.003L1.74,20.57z M23.423,21.935c-0.001,0-0.003,0-0.005,0
			H0.626c-0.226,0-0.435-0.133-0.546-0.348s-0.107-0.478,0.01-0.688l11.48-20.57C11.684,0.125,11.887,0,12.105,0h0.002
			c0.22,0.001,0.423,0.127,0.535,0.332L23.92,20.836c0.082,0.115,0.13,0.26,0.13,0.416C24.05,21.629,23.77,21.935,23.423,21.935z"/>
	</defs>
	<clipPath id="SVGID_2_">
		<use xlink:href="#SVGID_1_"  overflow="visible"/>
	</clipPath>
	<g clip-path="url(#SVGID_2_)">
		<defs>
			<rect id="SVGID_3_" x="-256.178" y="-340.586" width="1024" height="3325"/>
		</defs>
		<clipPath id="SVGID_4_">
			<use xlink:href="#SVGID_3_"  overflow="visible"/>
		</clipPath>
		<rect x="-5" y="-5" clip-path="url(#SVGID_4_)" fill="#FFFFFF" width="34.05" height="31.935"/>
	</g>
</g>
</svg>
