<?xml version="1.0" encoding="UTF-8" standalone="no"?>
<svg width="20px" height="35px" viewBox="0 0 20 35" version="1.1" xmlns="http://www.w3.org/2000/svg" xmlns:xlink="http://www.w3.org/1999/xlink" xmlns:sketch="http://www.bohemiancoding.com/sketch/ns">
    <!-- Generator: Sketch 3.2.2 (9983) - http://www.bohemiancoding.com/sketch -->
    <title>Imported Layers</title>
    <desc>Created with Sketch.</desc>
    <defs></defs>
    <g id="Page-1" stroke="none" stroke-width="1" fill="none" fill-rule="evenodd" sketch:type="MSPage">
        <g id="Apps" sketch:type="MSArtboardGroup" transform="translate(-231.000000, -218.000000)" fill="#FFFFFF">
            <g id="Rectangle-238-+-Imported-Layers" sketch:type="MSLayerGroup" transform="translate(241.000000, 235.000000) scale(-1, 1) translate(-241.000000, -235.000000) translate(218.000000, 200.000000)">
                <path d="M14.5439261,52.7507181 C14.1572791,52.7507181 13.7700144,52.6070338 13.4698379,52.3184374 C12.857132,51.7283496 12.8416908,50.7569461 13.4352497,50.1478233 L29.0110732,34.1595777 L13.5272791,20.6907181 C12.8855438,20.1325602 12.8206908,19.1623847 13.382132,18.5244023 C13.9435732,17.8870338 14.9182202,17.8207181 15.5611908,18.380104 L32.2666908,32.9124724 C32.5847791,33.1894023 32.7750144,33.5842268 32.7929261,34.0042268 C32.8102202,34.4242268 32.6533379,34.8331742 32.3587202,35.1358935 L15.6538379,52.2834374 C15.3505732,52.5941391 14.9478673,52.7507181 14.5439261,52.7507181" id="Imported-Layers" sketch:type="MSShapeGroup"></path>
            </g>
        </g>
    </g>
</svg>