<?xml version="1.0" encoding="UTF-8" standalone="no"?>
<svg width="15px" height="20px" viewBox="0 0 15 20" version="1.1" xmlns="http://www.w3.org/2000/svg" xmlns:xlink="http://www.w3.org/1999/xlink" xmlns:sketch="http://www.bohemiancoding.com/sketch/ns">
    <!-- Generator: Sketch 3.2.2 (9983) - http://www.bohemiancoding.com/sketch -->
    <title>Imported Layers</title>
    <desc>Created with Sketch.</desc>
    <defs></defs>
    <g id="Page-1" stroke="none" stroke-width="1" fill="none" fill-rule="evenodd" sketch:type="MSPage">
        <g id="Avances" sketch:type="MSArtboardGroup" transform="translate(-47.000000, -351.000000)" fill="#00CC99">
            <g id="Imported-Layers" sketch:type="MSLayerGroup" transform="translate(47.000000, 351.000000)">
                <path d="M14.5115909,0 L5.94545455,0 C5.93522727,0 5.92590909,0.0404301075 5.91568182,0.0408602151 C5.88909091,0.0421505376 5.8625,0.0625806452 5.83613636,0.0675268817 C5.81931818,0.0705376344 5.80363636,0.0858064516 5.78727273,0.0903225806 C5.76818182,0.095483871 5.74863636,0.104516129 5.73,0.111827957 C5.71204545,0.118924731 5.69545455,0.130752688 5.67840909,0.139569892 C5.66295455,0.147311828 5.64704545,0.155053763 5.63227273,0.164301075 C5.60954545,0.178494624 5.58909091,0.196129032 5.56886364,0.21311828 C5.56181818,0.219139785 5.55386364,0.223870968 5.54681818,0.230322581 L5.54409091,0.23311828 C5.54386364,0.233333333 5.54363636,0.233548387 5.54340909,0.233763441 L0.186590909,5.22451613 C0.186136364,5.22494624 0.185909091,5.22537634 0.185454545,5.22580645 C0.158863636,5.25075269 0.134772727,5.27806452 0.113863636,5.30752688 C0.106136364,5.31827957 0.101136364,5.33010753 0.0943181818,5.34129032 C0.0827272727,5.36043011 0.0704545455,5.37935484 0.0611363636,5.39978495 C0.0520454545,5.42043011 0.0468181818,5.44193548 0.0404545455,5.46322581 C0.0368181818,5.47569892 0.0227272727,5.48731183 0.0197727273,5.50021505 C0.0125,5.53505376 0,5.57032258 0,5.6055914 L0,5.60752688 L0,19.3862366 C0,19.6832258 0.271363636,20 0.585227273,20 L14.5115909,20 C14.8252273,20 15,19.6832258 15,19.3862366 L15,0.613548387 C15,0.316774194 14.8252273,0 14.5115909,0 L14.5115909,0 Z M5.45454545,1.89741935 L5.45454545,5.16129032 L1.97204545,5.16129032 L5.45454545,1.89741935 L5.45454545,1.89741935 Z M13.8636364,18.9247312 L1.13636364,18.9247312 L1.13636364,6.23655914 L5.94545455,6.23655914 C6.25931818,6.23655914 6.59090909,5.90451613 6.59090909,5.60752688 L6.59090909,1.07526882 L13.8636364,1.07526882 L13.8636364,18.9247312 L13.8636364,18.9247312 Z" id="Fill-1" sketch:type="MSShapeGroup"></path>
                <path d="M2.84090909,8.70967742 C2.84090909,9.00666667 3.09522727,9.24731183 3.40909091,9.24731183 L11.5909091,9.24731183 C11.9047727,9.24731183 12.1590909,9.00666667 12.1590909,8.70967742 C12.1590909,8.41268817 11.9047727,8.17204301 11.5909091,8.17204301 L3.40909091,8.17204301 C3.09522727,8.17204301 2.84090909,8.41268817 2.84090909,8.70967742" id="Fill-2" sketch:type="MSShapeGroup"></path>
                <path d="M11.5909091,10.7526882 L3.40909091,10.7526882 C3.09522727,10.7526882 2.84090909,10.9933333 2.84090909,11.2903226 C2.84090909,11.5873118 3.09522727,11.827957 3.40909091,11.827957 L11.5909091,11.827957 C11.9047727,11.827957 12.1590909,11.5873118 12.1590909,11.2903226 C12.1590909,10.9933333 11.9047727,10.7526882 11.5909091,10.7526882" id="Fill-3" sketch:type="MSShapeGroup"></path>
                <path d="M11.5909091,13.1182796 L3.40909091,13.1182796 C3.09522727,13.1182796 2.84090909,13.3589247 2.84090909,13.655914 C2.84090909,13.9529032 3.09522727,14.1935484 3.40909091,14.1935484 L11.5909091,14.1935484 C11.9047727,14.1935484 12.1590909,13.9529032 12.1590909,13.655914 C12.1590909,13.3589247 11.9047727,13.1182796 11.5909091,13.1182796" id="Fill-4" sketch:type="MSShapeGroup"></path>
                <path d="M11.5909091,15.6989247 L3.40909091,15.6989247 C3.09522727,15.6989247 2.84090909,15.9395699 2.84090909,16.2365591 C2.84090909,16.5335484 3.09522727,16.7741935 3.40909091,16.7741935 L11.5909091,16.7741935 C11.9047727,16.7741935 12.1590909,16.5335484 12.1590909,16.2365591 C12.1590909,15.9395699 11.9047727,15.6989247 11.5909091,15.6989247" id="Fill-5" sketch:type="MSShapeGroup"></path>
            </g>
        </g>
    </g>
</svg>