<?xml version="1.0" encoding="UTF-8" standalone="no"?>
<svg width="10px" height="12px" viewBox="0 0 10 12" version="1.1" xmlns="http://www.w3.org/2000/svg" xmlns:xlink="http://www.w3.org/1999/xlink" xmlns:sketch="http://www.bohemiancoding.com/sketch/ns">
    <!-- Generator: Sketch 3.2.2 (9983) - http://www.bohemiancoding.com/sketch -->
    <title>Imported Layers</title>
    <desc>Created with Sketch.</desc>
    <defs></defs>
    <g id="Page-1" stroke="none" stroke-width="1" fill="none" fill-rule="evenodd" sketch:type="MSPage">
        <g id="Datos/instituciones" sketch:type="MSArtboardGroup" transform="translate(-201.000000, -77.000000)" fill="#00CC99">
            <g id="Imported-Layers-+-/-" sketch:type="MSLayerGroup" transform="translate(201.000000, 75.000000)">
                <path d="M9.82819444,6.21344644 L5.21680556,2.08730358 C5.08597222,1.97087501 4.89791667,1.97087501 4.76736111,2.08744644 L0.102222222,6.26330358 C0.00680555556,6.34844644 0,6.47887501 0,6.60344644 L0,13.5660179 C0,13.7633036 0.140138889,13.860875 0.331944444,13.860875 L9.69902778,13.860875 C9.89083333,13.860875 10,13.7633036 10,13.5660179 L10,6.53301787 C10,6.39216072 9.94319444,6.27158929 9.82819444,6.21344644 L9.82819444,6.21344644 Z M5.00083333,2.80073215 L8.74958333,6.14658929 L1.25458333,6.14658929 L5.00083333,2.80073215 L5.00083333,2.80073215 Z M3.75,10.0037322 L6.38888889,10.0037322 L6.38888889,13.1465893 L3.75,13.1465893 L3.75,10.0037322 Z M9.30555556,13.1465893 L7.08333333,13.1465893 L7.08333333,9.68758929 C7.08333333,9.49030358 6.89569444,9.28944644 6.70388889,9.28944644 L3.37055556,9.28944644 C3.17875,9.28944644 3.05555556,9.49030358 3.05555556,9.68758929 L3.05555556,13.1465893 L0.694444444,13.1465893 L0.694444444,6.86087501 L9.30555556,6.86087501 L9.30555556,13.1465893 L9.30555556,13.1465893 Z" id="Imported-Layers" sketch:type="MSShapeGroup"></path>
            </g>
        </g>
    </g>
</svg>