<?xml version="1.0" encoding="UTF-8" standalone="no"?>
<svg width="20px" height="16px" viewBox="0 0 20 16" version="1.1" xmlns="http://www.w3.org/2000/svg" xmlns:xlink="http://www.w3.org/1999/xlink" xmlns:sketch="http://www.bohemiancoding.com/sketch/ns">
    <!-- Generator: Sketch 3.2.2 (9983) - http://www.bohemiancoding.com/sketch -->
    <title>Imported Layers</title>
    <desc>Created with Sketch.</desc>
    <defs></defs>
    <g id="Page-1" stroke="none" stroke-width="1" fill="none" fill-rule="evenodd" sketch:type="MSPage">
        <g id="Avances" sketch:type="MSArtboardGroup" transform="translate(-44.000000, -316.000000)" fill="#00CC99">
            <path d="M63.3373494,316 L47.9744578,316 C47.6416867,316 47.373494,316.177194 47.373494,316.506985 L47.373494,319.820896 L44.6626506,319.820896 C44.3298795,319.820896 44,320.18603 44,320.515821 L44,328.277731 C44,330.415522 45.0245783,332 46.2939759,332 L61.9378313,332 C63.226747,332 64,330.468299 64,328.316418 L64,328.314269 L64,316.506985 C64,316.177194 63.6701205,316 63.3373494,316 L63.3373494,316 Z M45.2048193,328.277731 L45.2048193,321.014925 L47.373494,321.014925 L47.373494,328.314269 C47.373494,328.343164 47.3773494,328.370627 47.3812048,328.398328 C47.3571084,329.902806 46.7074699,330.896 46.2942169,330.896 C45.9209639,330.896 45.2048193,329.90209 45.2048193,328.277731 L45.2048193,328.277731 Z M61.6759036,330.80597 L48.000241,330.80597 C48.3674699,330.328358 48.5884337,329.285015 48.5884337,328.264119 C48.5884337,328.227582 48.5783133,328.237134 48.5783133,328.202507 L48.5783133,317.19403 L62.7951807,317.19403 L62.7951807,328.309015 C62.7951807,329.864358 62.0975904,330.80597 61.6759036,330.80597 L61.6759036,330.80597 Z M61.2289157,319.940299 C61.2289157,320.27009 60.9592771,320.537313 60.626506,320.537313 L50.9879518,320.537313 C50.6551807,320.537313 50.3855422,320.27009 50.3855422,319.940299 C50.3855422,319.610507 50.6551807,319.343284 50.9879518,319.343284 L60.626506,319.343284 C60.9592771,319.343284 61.2289157,319.610507 61.2289157,319.940299 L61.2289157,319.940299 Z M61.2289157,322.328358 C61.2289157,322.658149 60.9592771,322.925373 60.626506,322.925373 L50.9879518,322.925373 C50.6551807,322.925373 50.3855422,322.658149 50.3855422,322.328358 C50.3855422,321.998567 50.6551807,321.731343 50.9879518,321.731343 L60.626506,321.731343 C60.9592771,321.731343 61.2289157,321.998567 61.2289157,322.328358 L61.2289157,322.328358 Z M61.2289157,324.955224 C61.2289157,325.285015 60.9592771,325.552239 60.626506,325.552239 L58.2168675,325.552239 C57.8840964,325.552239 57.6144578,325.285015 57.6144578,324.955224 C57.6144578,324.625433 57.8840964,324.358209 58.2168675,324.358209 L60.626506,324.358209 C60.9592771,324.358209 61.2289157,324.625433 61.2289157,324.955224 L61.2289157,324.955224 Z M61.2289157,326.865672 C61.2289157,327.195463 60.9592771,327.462687 60.626506,327.462687 L58.2168675,327.462687 C57.8840964,327.462687 57.6144578,327.195463 57.6144578,326.865672 C57.6144578,326.535881 57.8840964,326.268657 58.2168675,326.268657 L60.626506,326.268657 C60.9592771,326.268657 61.2289157,326.535881 61.2289157,326.865672 L61.2289157,326.865672 Z M61.2289157,328.776119 C61.2289157,329.10591 60.9592771,329.373134 60.626506,329.373134 L58.2168675,329.373134 C57.8840964,329.373134 57.6144578,329.10591 57.6144578,328.776119 C57.6144578,328.446328 57.8840964,328.179104 58.2168675,328.179104 L60.626506,328.179104 C60.9592771,328.179104 61.2289157,328.446328 61.2289157,328.776119 L61.2289157,328.776119 Z M56.0481928,324.955224 C56.0481928,324.625433 55.7785542,324.358209 55.4457831,324.358209 L50.8674699,324.358209 C50.5346988,324.358209 50.2650602,324.625433 50.2650602,324.955224 L50.2650602,328.776119 C50.2650602,329.10591 50.5346988,329.373134 50.8674699,329.373134 L55.4457831,329.373134 C55.7785542,329.373134 56.0481928,329.10591 56.0481928,328.776119 L56.0481928,324.955224 L56.0481928,324.955224 Z M51.4698795,325.552239 L55.0843373,325.552239 L55.0843373,328.179104 L51.4698795,328.179104 L51.4698795,325.552239 Z" id="Imported-Layers" sketch:type="MSShapeGroup"></path>
        </g>
    </g>
</svg>