<?xml version="1.0" encoding="UTF-8" standalone="no"?>
<svg width="19px" height="19px" viewBox="0 0 19 19" version="1.1" xmlns="http://www.w3.org/2000/svg" xmlns:xlink="http://www.w3.org/1999/xlink" xmlns:sketch="http://www.bohemiancoding.com/sketch/ns">
    <!-- Generator: Sketch Beta 3.2.2 (9983) - http://www.bohemiancoding.com/sketch -->
    <title>Imported Layers 3</title>
    <desc>Created with Sketch Beta.</desc>
    <defs></defs>
    <g id="Page-1" stroke="none" stroke-width="1" fill="none" fill-rule="evenodd" sketch:type="MSPage">
        <g id="Historias" sketch:type="MSArtboardGroup" transform="translate(-42.000000, -324.000000)" fill="#00CC99">
            <g id="Imported-Layers-3" sketch:type="MSLayerGroup" transform="translate(42.000000, 324.000000)">
                <path d="M2.21359223,1.14 C2.21359223,0.51034 1.7181165,0 1.10679612,0 C0.495475728,0 0,0.51034 0,1.14 C0,1.76966 0.495475728,2.28 1.10679612,2.28 C1.7181165,2.28 2.21359223,1.76966 2.21359223,1.14" id="Fill-1" sketch:type="MSShapeGroup"></path>
                <path d="M6.41019417,1.14 C6.41019417,0.51034 5.91471845,0 5.30339806,0 C4.69207767,0 4.19660194,0.51034 4.19660194,1.14 C4.19660194,1.76966 4.69207767,2.28 5.30339806,2.28 C5.91471845,2.28 6.41019417,1.76966 6.41019417,1.14" id="Fill-2" sketch:type="MSShapeGroup"></path>
                <path d="M10.5145631,1.14 C10.5145631,0.51034 10.0190874,0 9.40776699,0 C8.7964466,0 8.30097087,0.51034 8.30097087,1.14 C8.30097087,1.76966 8.7964466,2.28 9.40776699,2.28 C10.0190874,2.28 10.5145631,1.76966 10.5145631,1.14" id="Fill-3" sketch:type="MSShapeGroup"></path>
                <path d="M14.7572816,1.14 C14.7572816,0.51034 14.2618058,0 13.6504854,0 C13.039165,0 12.5436893,0.51034 12.5436893,1.14 C12.5436893,1.76966 13.039165,2.28 13.6504854,2.28 C14.2618058,2.28 14.7572816,1.76966 14.7572816,1.14" id="Fill-4" sketch:type="MSShapeGroup"></path>
                <path d="M19,1.14 C19,0.51034 18.5045243,0 17.8932039,0 C17.2818835,0 16.7864078,0.51034 16.7864078,1.14 C16.7864078,1.76966 17.2818835,2.28 17.8932039,2.28 C18.5045243,2.28 19,1.76966 19,1.14" id="Fill-5" sketch:type="MSShapeGroup"></path>
                <path d="M2.21359223,5.32 C2.21359223,4.69034 1.7181165,4.18 1.10679612,4.18 C0.495475728,4.18 0,4.69034 0,5.32 C0,5.94966 0.495475728,6.46 1.10679612,6.46 C1.7181165,6.46 2.21359223,5.94966 2.21359223,5.32" id="Fill-6" sketch:type="MSShapeGroup"></path>
                <path d="M6.41019417,5.32 C6.41019417,4.69034 5.91471845,4.18 5.30339806,4.18 C4.69207767,4.18 4.19660194,4.69034 4.19660194,5.32 C4.19660194,5.94966 4.69207767,6.46 5.30339806,6.46 C5.91471845,6.46 6.41019417,5.94966 6.41019417,5.32" id="Fill-7" sketch:type="MSShapeGroup"></path>
                <path d="M10.5145631,5.32 C10.5145631,4.69034 10.0190874,4.18 9.40776699,4.18 C8.7964466,4.18 8.30097087,4.69034 8.30097087,5.32 C8.30097087,5.94966 8.7964466,6.46 9.40776699,6.46 C10.0190874,6.46 10.5145631,5.94966 10.5145631,5.32" id="Fill-8" sketch:type="MSShapeGroup"></path>
                <path d="M14.7572816,5.32 C14.7572816,4.69034 14.2618058,4.18 13.6504854,4.18 C13.039165,4.18 12.5436893,4.69034 12.5436893,5.32 C12.5436893,5.94966 13.039165,6.46 13.6504854,6.46 C14.2618058,6.46 14.7572816,5.94966 14.7572816,5.32" id="Fill-9" sketch:type="MSShapeGroup"></path>
                <path d="M19,5.32 C19,4.69034 18.5045243,4.18 17.8932039,4.18 C17.2818835,4.18 16.7864078,4.69034 16.7864078,5.32 C16.7864078,5.94966 17.2818835,6.46 17.8932039,6.46 C18.5045243,6.46 19,5.94966 19,5.32" id="Fill-10" sketch:type="MSShapeGroup"></path>
                <path d="M2.21359223,9.5 C2.21359223,8.87034 1.7181165,8.36 1.10679612,8.36 C0.495475728,8.36 0,8.87034 0,9.5 C0,10.12966 0.495475728,10.64 1.10679612,10.64 C1.7181165,10.64 2.21359223,10.12966 2.21359223,9.5" id="Fill-11" sketch:type="MSShapeGroup"></path>
                <path d="M6.41019417,9.5 C6.41019417,8.87034 5.91471845,8.36 5.30339806,8.36 C4.69207767,8.36 4.19660194,8.87034 4.19660194,9.5 C4.19660194,10.12966 4.69207767,10.64 5.30339806,10.64 C5.91471845,10.64 6.41019417,10.12966 6.41019417,9.5" id="Fill-12" sketch:type="MSShapeGroup"></path>
                <path d="M10.5145631,9.5 C10.5145631,8.87034 10.0190874,8.36 9.40776699,8.36 C8.7964466,8.36 8.30097087,8.87034 8.30097087,9.5 C8.30097087,10.12966 8.7964466,10.64 9.40776699,10.64 C10.0190874,10.64 10.5145631,10.12966 10.5145631,9.5" id="Fill-13" sketch:type="MSShapeGroup"></path>
                <path d="M14.7572816,9.5 C14.7572816,8.87034 14.2618058,8.36 13.6504854,8.36 C13.039165,8.36 12.5436893,8.87034 12.5436893,9.5 C12.5436893,10.12966 13.039165,10.64 13.6504854,10.64 C14.2618058,10.64 14.7572816,10.12966 14.7572816,9.5" id="Fill-14" sketch:type="MSShapeGroup"></path>
                <path d="M19,9.5 C19,8.87034 18.5045243,8.36 17.8932039,8.36 C17.2818835,8.36 16.7864078,8.87034 16.7864078,9.5 C16.7864078,10.12966 17.2818835,10.64 17.8932039,10.64 C18.5045243,10.64 19,10.12966 19,9.5" id="Fill-15" sketch:type="MSShapeGroup"></path>
                <path d="M2.21359223,13.68 C2.21359223,13.05034 1.7181165,12.54 1.10679612,12.54 C0.495475728,12.54 0,13.05034 0,13.68 C0,14.30966 0.495475728,14.82 1.10679612,14.82 C1.7181165,14.82 2.21359223,14.30966 2.21359223,13.68" id="Fill-16" sketch:type="MSShapeGroup"></path>
                <path d="M6.41019417,13.68 C6.41019417,13.05034 5.91471845,12.54 5.30339806,12.54 C4.69207767,12.54 4.19660194,13.05034 4.19660194,13.68 C4.19660194,14.30966 4.69207767,14.82 5.30339806,14.82 C5.91471845,14.82 6.41019417,14.30966 6.41019417,13.68" id="Fill-17" sketch:type="MSShapeGroup"></path>
                <path d="M10.5145631,13.68 C10.5145631,13.05034 10.0190874,12.54 9.40776699,12.54 C8.7964466,12.54 8.30097087,13.05034 8.30097087,13.68 C8.30097087,14.30966 8.7964466,14.82 9.40776699,14.82 C10.0190874,14.82 10.5145631,14.30966 10.5145631,13.68" id="Fill-18" sketch:type="MSShapeGroup"></path>
                <path d="M14.7572816,13.68 C14.7572816,13.05034 14.2618058,12.54 13.6504854,12.54 C13.039165,12.54 12.5436893,13.05034 12.5436893,13.68 C12.5436893,14.30966 13.039165,14.82 13.6504854,14.82 C14.2618058,14.82 14.7572816,14.30966 14.7572816,13.68" id="Fill-19" sketch:type="MSShapeGroup"></path>
                <path d="M19,13.68 C19,13.05034 18.5045243,12.54 17.8932039,12.54 C17.2818835,12.54 16.7864078,13.05034 16.7864078,13.68 C16.7864078,14.30966 17.2818835,14.82 17.8932039,14.82 C18.5045243,14.82 19,14.30966 19,13.68" id="Fill-20" sketch:type="MSShapeGroup"></path>
                <path d="M2.21359223,17.86 C2.21359223,17.23034 1.7181165,16.72 1.10679612,16.72 C0.495475728,16.72 0,17.23034 0,17.86 C0,18.48966 0.495475728,19 1.10679612,19 C1.7181165,19 2.21359223,18.48966 2.21359223,17.86" id="Fill-21" sketch:type="MSShapeGroup"></path>
                <path d="M6.41019417,17.86 C6.41019417,17.23034 5.91471845,16.72 5.30339806,16.72 C4.69207767,16.72 4.19660194,17.23034 4.19660194,17.86 C4.19660194,18.48966 4.69207767,19 5.30339806,19 C5.91471845,19 6.41019417,18.48966 6.41019417,17.86" id="Fill-22" sketch:type="MSShapeGroup"></path>
                <path d="M10.5145631,17.86 C10.5145631,17.23034 10.0190874,16.72 9.40776699,16.72 C8.7964466,16.72 8.30097087,17.23034 8.30097087,17.86 C8.30097087,18.48966 8.7964466,19 9.40776699,19 C10.0190874,19 10.5145631,18.48966 10.5145631,17.86" id="Fill-23" sketch:type="MSShapeGroup"></path>
                <path d="M14.7572816,17.86 C14.7572816,17.23034 14.2618058,16.72 13.6504854,16.72 C13.039165,16.72 12.5436893,17.23034 12.5436893,17.86 C12.5436893,18.48966 13.039165,19 13.6504854,19 C14.2618058,19 14.7572816,18.48966 14.7572816,17.86" id="Fill-24" sketch:type="MSShapeGroup"></path>
                <path d="M19,17.86 C19,17.23034 18.5045243,16.72 17.8932039,16.72 C17.2818835,16.72 16.7864078,17.23034 16.7864078,17.86 C16.7864078,18.48966 17.2818835,19 17.8932039,19 C18.5045243,19 19,18.48966 19,17.86" id="Fill-25" sketch:type="MSShapeGroup"></path>
            </g>
        </g>
    </g>
</svg>