<?xml version="1.0" encoding="UTF-8" standalone="no"?>
<svg width="20px" height="17px" viewBox="0 0 20 17" version="1.1" xmlns="http://www.w3.org/2000/svg" xmlns:xlink="http://www.w3.org/1999/xlink" xmlns:sketch="http://www.bohemiancoding.com/sketch/ns">
    <!-- Generator: Sketch 3.2.2 (9983) - http://www.bohemiancoding.com/sketch -->
    <title>Imported Layers 14</title>
    <desc>Created with Sketch.</desc>
    <defs></defs>
    <g id="Page-1" stroke="none" stroke-width="1" fill="none" fill-rule="evenodd" sketch:type="MSPage">
        <g id="Historias" sketch:type="MSArtboardGroup" transform="translate(-42.000000, -439.000000)" fill="#00CC99">
            <g id="Imported-Layers-14" sketch:type="MSLayerGroup" transform="translate(42.000000, 439.000000)">
                <path d="M19.3002062,16.8161098 C19.2993814,16.8163171 19.297732,16.8163171 19.2962887,16.8161098 L0.547628866,16.8161098 C0.361443299,16.8161098 0.189690722,16.7151463 0.098556701,16.5519878 C0.00701030928,16.3888293 0.0105154639,16.1889756 0.107010309,16.0287195 L9.54969072,0.39597561 C9.64329897,0.241317073 9.81030928,0.146780488 9.99030928,0.146780488 L9.99195876,0.146780488 C10.1727835,0.147402439 10.34,0.24297561 10.4327835,0.398878049 L19.7086598,15.9812439 C19.7758763,16.068939 19.8158763,16.1786098 19.8158763,16.2978171 C19.8158763,16.584122 19.5849485,16.8161098 19.3002062,16.8161098 L19.3002062,16.8161098 Z M1.46391753,15.7795244 L18.3870103,15.7795244 L9.98721649,1.66890244 L1.46391753,15.7795244 L1.46391753,15.7795244 Z" id="Fill-1" sketch:type="MSShapeGroup"></path>
                <path d="M9.92206186,12.2528537 C10.5012371,12.2528537 10.9418557,12.6960976 10.9418557,13.2784512 C10.9418557,13.8605976 10.5012371,14.3038415 9.92206186,14.3038415 C9.34268041,14.3038415 8.90226804,13.8605976 8.90226804,13.2784512 C8.90226804,12.6960976 9.34268041,12.2528537 9.92206186,12.2528537 L9.92206186,12.2528537 Z M9.92206186,5.31540244 C10.4886598,5.31540244 10.6901031,5.65706098 10.7026804,6.16353659 L10.4758763,10.7336341 C10.4635052,11.0757073 10.3501031,11.4047195 9.92206186,11.4047195 C9.49402062,11.4047195 9.38061856,11.0757073 9.36804124,10.7336341 L9.1414433,6.16353659 C9.15381443,5.65706098 9.35546392,5.31540244 9.92206186,5.31540244 L9.92206186,5.31540244 Z" id="Fill-2" sketch:type="MSShapeGroup"></path>
            </g>
        </g>
    </g>
</svg>