<?xml version="1.0" encoding="UTF-8" standalone="no"?>
<svg width="20px" height="16px" viewBox="0 0 20 16" version="1.1" xmlns="http://www.w3.org/2000/svg" xmlns:xlink="http://www.w3.org/1999/xlink" xmlns:sketch="http://www.bohemiancoding.com/sketch/ns">
    <!-- Generator: Sketch Beta 3.2.2 (9983) - http://www.bohemiancoding.com/sketch -->
    <title>Imported Layers 9</title>
    <desc>Created with Sketch Beta.</desc>
    <defs></defs>
    <g id="Page-1" stroke="none" stroke-width="1" fill="none" fill-rule="evenodd" sketch:type="MSPage">
        <g id="Herramientas" sketch:type="MSArtboardGroup" transform="translate(-46.000000, -401.000000)" fill="#00CC99">
            <path d="M60.0258824,407.717827 C59.9801961,407.487111 59.7788235,407.419753 59.5452941,407.419753 L52.2586275,407.419753 C52.025098,407.419753 51.8237255,407.487111 51.7780392,407.717827 L50.4098039,413.952889 C50.3729412,414.022222 50.4117647,416.209877 50.4117647,416.209877 C50.4117647,416.482667 50.7080392,416.901235 50.9788235,416.901235 L60.825098,416.901235 C61.0958824,416.901235 61.1960784,416.482667 61.1960784,416.209877 L61.1960784,413.854914 C61.1960784,413.770765 61.2329412,413.924247 61.1960784,413.854914 L60.0258824,407.717827 L60.0258824,407.717827 Z M52.6603922,408.407407 L59.1435294,408.407407 L60.2037255,413.740741 L51.6001961,413.740741 L52.6603922,408.407407 L52.6603922,408.407407 Z M51.3921569,414.728395 L60.2156863,414.728395 L60.2156863,415.91358 L51.3921569,415.91358 L51.3921569,414.728395 Z M55.9019608,409.002963 C54.8786275,409.002963 54.0460784,409.841679 54.0460784,410.872395 C54.0460784,411.903506 54.8786275,412.742222 55.9019608,412.742222 C56.9252941,412.742222 57.7578431,411.903506 57.7578431,410.872395 C57.7578431,409.841679 56.9252941,409.002963 55.9019608,409.002963 L55.9019608,409.002963 Z M55.9019608,411.754568 C55.4192157,411.754568 55.0264706,411.358914 55.0264706,410.872395 C55.0264706,410.386272 55.4192157,409.990617 55.9019608,409.990617 C56.3847059,409.990617 56.777451,410.386272 56.777451,410.872395 C56.777451,411.358914 56.3847059,411.754568 55.9019608,411.754568 L55.9019608,411.754568 Z M65.8039216,411.271605 C65.8039216,411.544395 65.5845098,411.765432 65.3137255,411.765432 L62.5686275,411.765432 C62.2978431,411.765432 62.0784314,411.544395 62.0784314,411.271605 C62.0784314,410.998815 62.2978431,410.777778 62.5686275,410.777778 L65.3137255,410.777778 C65.5845098,410.777778 65.8039216,410.998815 65.8039216,411.271605 L65.8039216,411.271605 Z M60.3554902,406.449481 C60.1639216,406.256691 60.1639216,405.944 60.3554902,405.75121 L62.3045098,403.787358 C62.4960784,403.594568 62.8062745,403.594568 62.9976471,403.787358 C63.1892157,403.980148 63.1892157,404.29284 62.9976471,404.485827 L61.0486275,406.449481 C60.9529412,406.545877 60.827451,406.594074 60.7019608,406.594074 C60.5766667,406.594074 60.4511765,406.545877 60.3554902,406.449481 L60.3554902,406.449481 Z M55.1176471,404.259259 L55.1176471,401.493827 C55.1176471,401.221037 55.3370588,401 55.6078431,401 C55.8786275,401 56.0980392,401.221037 56.0980392,401.493827 L56.0980392,404.259259 C56.0980392,404.532049 55.8786275,404.753086 55.6078431,404.753086 C55.3370588,404.753086 55.1176471,404.532049 55.1176471,404.259259 L55.1176471,404.259259 Z M48.9943137,404.485827 C48.8029412,404.29284 48.8029412,403.980346 48.9943137,403.787358 C49.1858824,403.594568 49.4960784,403.594568 49.6876471,403.787358 L51.6368627,405.75121 C51.8284314,405.944 51.8284314,406.256494 51.6368627,406.449481 C51.5411765,406.545877 51.4156863,406.594074 51.2901961,406.594074 C51.164902,406.594074 51.0394118,406.545877 50.9437255,406.449481 L48.9943137,404.485827 L48.9943137,404.485827 Z M49.9215686,411.271605 C49.9215686,411.544395 49.7021569,411.765432 49.4313725,411.765432 L46.4901961,411.765432 C46.2194118,411.765432 46,411.544395 46,411.271605 C46,410.998815 46.2194118,410.777778 46.4901961,410.777778 L49.4313725,410.777778 C49.7021569,410.777778 49.9215686,410.998815 49.9215686,411.271605 L49.9215686,411.271605 Z" id="Imported-Layers-9" sketch:type="MSShapeGroup"></path>
        </g>
    </g>
</svg>