<?xml version="1.0" encoding="UTF-8" standalone="no"?>
<svg width="15px" height="20px" viewBox="0 0 15 20" version="1.1" xmlns="http://www.w3.org/2000/svg" xmlns:xlink="http://www.w3.org/1999/xlink" xmlns:sketch="http://www.bohemiancoding.com/sketch/ns">
    <!-- Generator: Sketch Beta 3.2.2 (9983) - http://www.bohemiancoding.com/sketch -->
    <title>Imported Layers 5</title>
    <desc>Created with Sketch Beta.</desc>
    <defs></defs>
    <g id="Page-1" stroke="none" stroke-width="1" fill="none" fill-rule="evenodd" sketch:type="MSPage">
        <g id="Herramientas" sketch:type="MSArtboardGroup" transform="translate(-50.000000, -439.000000)" fill="#00CC99">
            <path d="M64.8438581,440.028 C64.8042488,439.645176 64.4847956,439.436471 64.38003,439.368 C64.0066706,439.125647 63.3982331,439 62.5711238,439 C59.7829988,439 54.4066706,440.471529 51.8510456,444.432235 C50.3168269,446.810118 49.7449519,448.836471 50.1033113,450.646353 C50.3929988,452.109882 51.2768269,453.338353 52.7969831,454.421882 L51.2915925,457.908941 C51.1629206,458.207059 51.2993269,458.553647 51.59628,458.682588 C51.6722175,458.715765 51.7512019,458.731294 51.8290144,458.731294 C52.0554206,458.731294 52.2710456,458.598824 52.366905,458.376941 L53.8064363,455.042118 C54.7490925,455.521647 55.7726081,455.764941 56.7513581,455.764941 L56.7518269,455.764941 C59.0904206,455.764941 63.0342488,454.323765 63.1722956,444.422588 C63.2053425,442.051529 63.991905,441.303529 64.4147175,440.881647 C64.6347956,440.661882 64.8839363,440.412471 64.8438581,440.028 L64.8438581,440.028 Z M62.0004206,444.444 C61.8764363,453.336471 58.6587019,454.663765 56.7513581,454.663765 C55.9277644,454.663765 55.025655,454.414353 54.2177644,453.972941 C54.2787019,453.795059 54.3623738,453.562118 54.4654988,453.289882 L57.9895613,452.633412 C58.3078425,452.574353 58.5178425,452.267294 58.45878,451.947765 C58.3994831,451.628471 58.0943269,451.417882 57.7758113,451.476706 L54.9951863,451.994824 C55.4271394,451.006118 56.0229206,449.786824 56.8040925,448.476471 L60.3696394,447.994824 C60.6904988,447.951765 60.9154988,447.655529 60.8721394,447.333647 C60.82878,447.011765 60.5341706,446.783765 60.2133113,446.828941 L57.624405,447.178588 C58.85628,445.335059 60.4448738,443.411765 62.4511238,441.764235 C62.203155,442.412706 62.0168269,443.274824 62.0004206,444.444 L62.0004206,444.444 Z M58.2740925,444.323529 L58.0057331,442.328235 C57.961905,442.006353 57.6670613,441.774353 57.3459675,441.817882 C57.0253425,441.861882 56.8008113,442.154824 56.844405,442.476706 L57.2679206,445.603059 C56.424405,446.764706 55.7219831,447.912941 55.1463581,448.974118 L54.0368269,446.785176 C53.8901081,446.495529 53.5371394,446.38 53.2490925,446.527529 C52.9605769,446.674824 52.8457331,447.028941 52.9926863,447.318353 L54.4847175,450.261176 C53.8596394,451.549412 53.4452644,452.620706 53.2064363,453.299294 C52.1069831,452.447294 51.4643269,451.505647 51.2526863,450.436 C50.9608894,448.961882 51.4929206,447.187529 52.8347175,445.108471 C55.1379206,441.538824 60.0290925,440.235529 62.5711238,440.235529 L62.5718269,440.235529 C60.8894831,441.412 59.4654206,442.872235 58.2740925,444.323529 L58.2740925,444.323529 Z" id="Imported-Layers-5" sketch:type="MSShapeGroup"></path>
        </g>
    </g>
</svg>