<?xml version="1.0" encoding="UTF-8" standalone="no"?>
<svg width="20px" height="18px" viewBox="0 0 20 18" version="1.1" xmlns="http://www.w3.org/2000/svg" xmlns:xlink="http://www.w3.org/1999/xlink" xmlns:sketch="http://www.bohemiancoding.com/sketch/ns">
    <!-- Generator: Sketch 3.2.2 (9983) - http://www.bohemiancoding.com/sketch -->
    <title>Imported Layers</title>
    <desc>Created with Sketch.</desc>
    <defs></defs>
    <g id="Page-1" stroke="none" stroke-width="1" fill="none" fill-rule="evenodd" sketch:type="MSPage">
        <g id="Avances" sketch:type="MSArtboardGroup" transform="translate(-46.000000, -447.000000)" fill="#00CC99">
            <g id="Imported-Layers" sketch:type="MSLayerGroup" transform="translate(46.000000, 447.000000)">
                <path d="M7.1060241,4.82932394 L3.49156627,4.06876056 C3.16674699,3.9995493 2.84795181,4.22239437 2.78289157,4.56591549 C2.7173494,4.90892958 2.92915663,5.24307042 3.25542169,5.31152113 L6.86987952,6.07208451 C6.90963855,6.0804507 6.94939759,6.08450704 6.9886747,6.08450704 C7.26987952,6.08450704 7.52144578,5.8763662 7.57855422,5.57492958 C7.64409639,5.23191549 7.43228916,4.89777465 7.1060241,4.82932394" id="Fill-1" sketch:type="MSShapeGroup"></path>
                <path d="M7.1060241,7.36453521 L3.49156627,6.60397183 C3.16674699,6.53552113 2.84795181,6.75760563 2.78289157,7.10112676 C2.7173494,7.44414085 2.92915663,7.77828169 3.25542169,7.84673239 L6.86987952,8.60729577 C6.90963855,8.61566197 6.94939759,8.61971831 6.9886747,8.61971831 C7.26987952,8.61971831 7.52144578,8.41157746 7.57855422,8.11014085 C7.64409639,7.76712676 7.43228916,7.43298592 7.1060241,7.36453521" id="Fill-2" sketch:type="MSShapeGroup"></path>
                <path d="M7.1060241,9.89974648 L3.49156627,9.1391831 C3.16674699,9.07073239 2.84795181,9.2928169 2.78289157,9.63633803 C2.7173494,9.97935211 2.92915663,10.313493 3.25542169,10.3819437 L6.86987952,11.142507 C6.90963855,11.1508732 6.94939759,11.1549296 6.9886747,11.1549296 C7.26987952,11.1549296 7.52144578,10.9467887 7.57855422,10.6453521 C7.64409639,10.302338 7.43228916,9.96819718 7.1060241,9.89974648" id="Fill-3" sketch:type="MSShapeGroup"></path>
                <path d="M7.1060241,12.4349577 L3.49156627,11.6743944 C3.16674699,11.6056901 2.84795181,11.8280282 2.78289157,12.1715493 C2.7173494,12.5145634 2.92915663,12.8487042 3.25542169,12.9171549 L6.86987952,13.6777183 C6.90963855,13.6860845 6.94939759,13.6901408 6.9886747,13.6901408 C7.26987952,13.6901408 7.52144578,13.482 7.57855422,13.1805634 C7.64409639,12.8375493 7.43228916,12.5034085 7.1060241,12.4349577" id="Fill-4" sketch:type="MSShapeGroup"></path>
                <path d="M13.0113253,6.08450704 C13.0506024,6.08450704 13.0903614,6.0804507 13.1301205,6.07208451 L16.7445783,5.31152113 C17.0708434,5.24307042 17.2826506,4.90892958 17.2171084,4.56591549 C17.1520482,4.22239437 16.8325301,3.99929577 16.5084337,4.06876056 L12.8939759,4.82932394 C12.5677108,4.89777465 12.3559036,5.23191549 12.4214458,5.57492958 C12.4785542,5.8763662 12.7301205,6.08450704 13.0113253,6.08450704" id="Fill-5" sketch:type="MSShapeGroup"></path>
                <path d="M13.0113253,8.61971831 C13.0506024,8.61971831 13.0903614,8.61566197 13.1301205,8.60729577 L16.7445783,7.84673239 C17.0708434,7.77828169 17.2826506,7.44414085 17.2171084,7.10112676 C17.1520482,6.75760563 16.8325301,6.53526761 16.5084337,6.60397183 L12.8939759,7.36453521 C12.5677108,7.43298592 12.3559036,7.76712676 12.4214458,8.11014085 C12.4785542,8.41157746 12.7301205,8.61971831 13.0113253,8.61971831" id="Fill-6" sketch:type="MSShapeGroup"></path>
                <path d="M13.0113253,11.1549296 C13.0506024,11.1549296 13.0903614,11.1508732 13.1301205,11.142507 L16.7445783,10.3819437 C17.0708434,10.313493 17.2826506,9.97935211 17.2171084,9.63633803 C17.1520482,9.2928169 16.8325301,9.07047887 16.5084337,9.1391831 L12.8939759,9.89974648 C12.5677108,9.96819718 12.3559036,10.302338 12.4214458,10.6453521 C12.4785542,10.9467887 12.7301205,11.1549296 13.0113253,11.1549296" id="Fill-7" sketch:type="MSShapeGroup"></path>
                <path d="M13.0113253,13.6901408 C13.0506024,13.6901408 13.0903614,13.6860845 13.1301205,13.6777183 L16.7445783,12.9171549 C17.0708434,12.8487042 17.2826506,12.5145634 17.2171084,12.1715493 C17.1520482,11.8280282 16.8325301,11.6054366 16.5084337,11.6743944 L12.8939759,12.4349577 C12.5677108,12.5034085 12.3559036,12.8375493 12.4214458,13.1805634 C12.4785542,13.482 12.7301205,13.6901408 13.0113253,13.6901408" id="Fill-8" sketch:type="MSShapeGroup"></path>
                <path d="M19.8407229,0.542028169 C19.7038554,0.421605634 19.5518072,0.371408451 19.3763855,0.403605634 L9.99325301,2.15721127 L0.60313253,0.153126761 C0.425783133,0.115352113 0.301445783,0.163267606 0.161686747,0.28343662 C0.021686747,0.403859155 0,0.584112676 0,0.774253521 L0,15.1514366 C0,15.4528732 0.145783133,15.7127324 0.426506024,15.7725634 L9.90819277,17.8007324 C9.91060241,17.8012394 9.89903614,17.8009859 9.90168675,17.801493 C9.93855422,17.8088451 9.96915663,17.7847606 10.006988,17.7847606 C10.0416867,17.7847606 10.0693976,17.7464789 10.1033735,17.7464789 L10.1050602,17.7464789 L19.5587952,16.0004789 C19.8462651,15.9467324 20,15.7122254 20,15.4049577 L20,1.02777465 C20,0.840422535 19.9771084,0.662450704 19.8407229,0.542028169 L19.8407229,0.542028169 Z M1.20481928,1.54926761 L9.39759036,3.32061972 L9.39759036,16.404338 L1.20481928,14.6332394 L1.20481928,1.54926761 L1.20481928,1.54926761 Z M18.7951807,14.8735775 L10.6024096,16.4233521 L10.6024096,3.3335493 L18.7951807,1.78377465 L18.7951807,14.8735775 L18.7951807,14.8735775 Z" id="Fill-9" sketch:type="MSShapeGroup"></path>
            </g>
        </g>
    </g>
</svg>