<?xml version="1.0" encoding="utf-8"?>
<!-- Generator: Adobe Illustrator 18.0.0, SVG Export Plug-In . SVG Version: 6.00 Build 0)  -->
<!DOCTYPE svg PUBLIC "-//W3C//DTD SVG 1.1//EN" "http://www.w3.org/Graphics/SVG/1.1/DTD/svg11.dtd">
<svg version="1.1" id="Layer_1" xmlns:sketch="http://www.bohemiancoding.com/sketch/ns"
	 xmlns="http://www.w3.org/2000/svg" xmlns:xlink="http://www.w3.org/1999/xlink" x="0px" y="0px" viewBox="0 0 20 19"
	 enable-background="new 0 0 20 19" xml:space="preserve">
<title>Imported Layers 15</title>
<desc>Created with Sketch Beta.</desc>
<path fill="#00CC99" d="M20,1.4c0-0.7-0.6-1.2-1.2-1.2c-0.6,0-1,0.4-1.2,0.9L4.8,2.9C4.6,2.5,4.2,2.2,3.7,2.2C3,2.2,2.4,2.7,2.4,3.4
	c0,0.5,0.3,0.8,0.6,1.1L1,16.6c-0.6,0.1-1,0.6-1,1.2C0,18.5,0.6,19,1.2,19s1.2-0.5,1.2-1.2c0,0,0,0,0,0l5.8-1c0.1,0.6,0.6,1,1.2,1
	c0.6,0,1.1-0.5,1.2-1.1l6,0.6c0.1,0.6,0.6,1.1,1.2,1.1c0.7,0,1.2-0.5,1.2-1.2c0-0.6-0.5-1.1-1.1-1.2l0.7-13.3
	C19.5,2.6,20,2.1,20,1.4z M9.5,15.3L8.9,8.9c0.1,0,0.2-0.1,0.3-0.1l7.6,7.7c0,0.1-0.1,0.1-0.1,0.2l-6.1-0.6
	C10.5,15.7,10.1,15.3,9.5,15.3z M4.9,3.4l12.6-1.8l-8,5.3C9.3,6.7,9,6.5,8.7,6.5c-0.3,0-0.6,0.1-0.8,0.3L4.7,4.1
	C4.8,3.9,4.9,3.7,4.9,3.4z M17.2,16.2L9.6,8.5C9.8,8.3,9.9,8,9.9,7.8c0-0.2,0-0.3-0.1-0.5l7.9-5.2c0.1,0.2,0.3,0.4,0.6,0.5L17.6,16
	C17.5,16,17.4,16.1,17.2,16.2z M3.7,4.6c0.2,0,0.5-0.1,0.6-0.2l3.3,2.8C7.5,7.4,7.4,7.6,7.4,7.8c0,0.3,0.1,0.5,0.3,0.7l-6.1,8.1
	c0,0,0,0-0.1,0l2-12C3.6,4.6,3.6,4.6,3.7,4.6z M2.1,16.9l6-8c0.1,0.1,0.2,0.1,0.3,0.1L9,15.4c-0.4,0.1-0.6,0.5-0.7,0.8l-6,1
	C2.3,17.1,2.2,17,2.1,16.9z"/>
</svg>
