<?xml version="1.0" encoding="UTF-8" standalone="no"?>
<svg width="20px" height="17px" viewBox="0 0 20 17" version="1.1" xmlns="http://www.w3.org/2000/svg" xmlns:xlink="http://www.w3.org/1999/xlink" xmlns:sketch="http://www.bohemiancoding.com/sketch/ns">
    <!-- Generator: Sketch 3.2.2 (9983) - http://www.bohemiancoding.com/sketch -->
    <title>Imported Layers 12</title>
    <desc>Created with Sketch.</desc>
    <defs></defs>
    <g id="Page-1" stroke="none" stroke-width="1" fill="none" fill-rule="evenodd" sketch:type="MSPage">
        <g id="Group-2" sketch:type="MSLayerGroup" transform="translate(-52.000000, -789.000000)" fill="#00CC99">
            <g id="Imported-Layers-12" transform="translate(52.000000, 789.000000)" sketch:type="MSShapeGroup">
                <path d="M13.3478161,8.71135135 C12.676092,8.71135135 12.1317241,9.25535135 12.1317241,9.92662162 C12.1317241,10.5976622 12.676092,11.1418919 13.3478161,11.1418919 C14.0193103,11.1418919 14.563908,10.5976622 14.563908,9.92662162 C14.563908,9.25535135 14.0193103,8.71135135 13.3478161,8.71135135" id="Fill-1"></path>
                <path d="M19.6825287,2.69702703 L13.3657471,0.109351351 C13.3618391,0.107743243 13.3673563,0.107513514 13.3634483,0.105905405 C13.3404598,0.0971756757 13.3218391,0.0928108108 13.2981609,0.0870675676 C13.2763218,0.0817837838 13.2574713,0.0748918919 13.2351724,0.0721351351 C13.2121839,0.0693783784 13.1901149,0.0707567568 13.1668966,0.0707567568 C13.1436782,0.0707567568 13.1211494,0.0693783784 13.097931,0.0721351351 C13.0758621,0.0748918919 13.0549425,0.0815540541 13.0333333,0.0868378378 C13.0094253,0.0925810811 12.9857471,0.0971756757 12.9627586,0.106135135 C12.9588506,0.107513514 12.9547126,0.107743243 12.9510345,0.109351351 L6.83172414,2.60835135 L0.712413793,0.109351351 C0.535402299,0.0372162162 0.373563218,0.0572027027 0.214482759,0.164256757 C0.0556321839,0.270851351 0,0.449581081 0,0.640945946 L0,13.0819595 C0,13.3153649 0.10137931,13.5253378 0.317471264,13.6137838 L6.63425287,16.2014595 C6.64574713,16.2060541 6.64758621,16.2081216 6.65908046,16.212027 C6.6708046,16.2159324 6.67747126,16.2191486 6.68942529,16.2223649 C6.73793103,16.2352297 6.7845977,16.2441892 6.83425287,16.2441892 C6.88390805,16.2441892 6.93172414,16.2352297 6.98045977,16.2223649 C6.99218391,16.2191486 7.00298851,16.2159324 7.01471264,16.212027 C7.0262069,16.2081216 7.03793103,16.2062838 7.0491954,16.2014595 L11.2075862,14.5032973 C11.7786207,15.4824054 12.6986207,16.8619324 13.3478161,16.8619324 C13.9409195,16.8619324 14.7558621,15.7183378 15.4036782,14.6154054 L19.2878161,16.2014595 C19.3577011,16.2299459 19.4314943,16.2441892 19.5050575,16.2441892 C19.6174713,16.2441892 19.6894253,16.2111081 19.7855172,16.1465541 C19.9443678,16.0399595 20,15.8612297 20,15.6698649 L20,3.22885135 C20,2.99544595 19.8986207,2.78547297 19.6825287,2.69702703 L19.6825287,2.69702703 Z M6.20689655,14.8145811 L1.14942529,12.696473 L1.14942529,1.49622973 L6.20689655,3.61433784 L6.20689655,14.8145811 L6.20689655,14.8145811 Z M7.35632184,3.61433784 L12.6436782,1.49622973 L12.6436782,5.9392027 C10.8873563,6.27024324 9.55425287,7.81241892 9.55425287,9.66243243 C9.55425287,10.970973 10.1367816,12.4366486 10.6604598,13.4908784 L7.35632184,14.8145811 L7.35632184,3.61433784 L7.35632184,3.61433784 Z M13.3478161,15.5685541 C12.623908,14.7564595 10.7036782,11.7899595 10.7036782,9.66243243 C10.7036782,8.20525676 11.8898851,7.01985135 13.3478161,7.01985135 C14.8055172,7.01985135 15.9917241,8.20525676 15.9917241,9.66243243 C15.9917241,11.6539595 14.1066667,14.7213108 13.3478161,15.5685541 L13.3478161,15.5685541 Z M18.8505747,14.8145811 L15.9590805,13.6036757 C16.5004598,12.5370405 17.1413793,10.9937162 17.1413793,9.66243243 C17.1413793,7.72259459 15.6754023,6.12091892 13.7931034,5.89968919 L13.7931034,1.49622973 L18.8505747,3.61433784 L18.8505747,14.8145811 L18.8505747,14.8145811 Z" id="Fill-2"></path>
            </g>
        </g>
    </g>
</svg>