<?xml version="1.0" encoding="UTF-8" standalone="no"?>
<svg width="18px" height="18px" viewBox="0 0 18 18" version="1.1" xmlns="http://www.w3.org/2000/svg" xmlns:xlink="http://www.w3.org/1999/xlink" xmlns:sketch="http://www.bohemiancoding.com/sketch/ns">
    <!-- Generator: Sketch Beta 3.2.2 (9983) - http://www.bohemiancoding.com/sketch -->
    <title>Imported Layers</title>
    <desc>Created with Sketch Beta.</desc>
    <defs></defs>
    <g id="Page-1" stroke="none" stroke-width="1" fill="none" fill-rule="evenodd" sketch:type="MSPage">
        <g id="Home" sketch:type="MSArtboardGroup" transform="translate(-715.000000, -1062.000000)" fill="#474747">
            <g id="Imported-Layers" sketch:type="MSLayerGroup" transform="translate(715.000000, 1062.000000)">
                <path d="M17.7106224,14.8740612 L13.8172959,10.9809184 C14.4414184,9.90367347 14.8005,8.65487755 14.8005,7.32306122 C14.8005,3.285 11.5155,0 7.47780612,0 C3.43992857,0 0.154928571,3.285 0.154928571,7.32306122 C0.154928571,11.3607551 3.43992857,14.6457551 7.47780612,14.6457551 C8.80962245,14.6457551 10.0584184,14.2864898 11.1356633,13.662551 L15.0288061,17.5556939 C15.1184388,17.6455102 15.2359898,17.6903265 15.3533571,17.6903265 C15.4709082,17.6903265 15.5884592,17.6455102 15.6780918,17.5556939 L17.7106224,15.5233469 C17.7967653,15.4372041 17.8450714,15.3205714 17.8450714,15.1986122 C17.8450714,15.0768367 17.7967653,14.9602041 17.7106224,14.8740612 L17.7106224,14.8740612 Z M1.07329592,7.32306122 C1.07329592,3.79157143 3.94631633,0.918367347 7.47780612,0.918367347 C11.0091122,0.918367347 13.8821327,3.79157143 13.8821327,7.32306122 C13.8821327,8.63191837 13.4866837,9.85004082 12.8100306,10.8653878 C12.7868878,10.8999184 12.7630102,10.933898 12.7393163,10.9680612 C12.7020306,11.0216939 12.6647449,11.0751429 12.6258061,11.1274898 C12.5999082,11.1623878 12.5730918,11.196551 12.5464592,11.230898 C12.5084388,11.2801224 12.470602,11.3295306 12.4311122,11.3776531 C12.398051,11.4178776 12.3635204,11.457 12.3293571,11.4966735 C12.2940918,11.537449 12.2595612,11.5789592 12.2233776,11.6188163 C12.1704796,11.6772245 12.1155612,11.7339796 12.0604592,11.7903673 C12.0224388,11.8294898 11.9836837,11.8680612 11.9445612,11.9062653 C11.8883571,11.9611837 11.8319694,12.0157347 11.7737449,12.068449 C11.7335204,12.105 11.6916429,12.139898 11.6503163,12.1753469 C11.6111939,12.2091429 11.5724388,12.2433061 11.5325816,12.2761837 C11.4839082,12.3160408 11.4341327,12.3542449 11.3843571,12.3928163 C11.3505612,12.418898 11.316949,12.4453469 11.2827857,12.4706939 C11.2297041,12.51 11.1755204,12.5478367 11.1213367,12.5856735 C11.0880918,12.6088163 11.0548469,12.6319592 11.021051,12.654551 C10.0057041,13.3315714 8.78721429,13.7273878 7.47780612,13.7273878 C3.94631633,13.7273878 1.07329592,10.8543673 1.07329592,7.32306122 L1.07329592,7.32306122 Z M15.3533571,16.5818571 L11.9164592,13.1447755 C11.9473163,13.1212653 11.9761531,13.095 12.0064592,13.0709388 C12.0797449,13.0130816 12.1517449,12.9543061 12.2226429,12.8936939 C12.263602,12.8589796 12.3041939,12.8242653 12.3442347,12.788449 C12.4390102,12.7039592 12.531949,12.617449 12.6221327,12.5281837 C12.6425204,12.5081633 12.6625408,12.4881429 12.6825612,12.4677551 C12.7721939,12.3770204 12.8590714,12.283898 12.9439286,12.1885714 C12.9790102,12.1492653 13.0129898,12.1094082 13.0473367,12.0693673 C13.1088673,11.9971837 13.1689286,11.9237143 13.2277041,11.8491429 C13.2510306,11.8195714 13.2765612,11.7916531 13.2995204,11.7617143 L16.736602,15.1986122 L15.3533571,16.5818571 L15.3533571,16.5818571 Z M12.4801531,7.32306122 C12.4801531,4.56465306 10.2360306,2.32053061 7.47780612,2.32053061 C4.71939796,2.32053061 2.47527551,4.56465306 2.47527551,7.32306122 C2.47527551,10.0812857 4.71939796,12.3254082 7.47780612,12.3254082 C10.2360306,12.3254082 12.4801531,10.0812857 12.4801531,7.32306122 L12.4801531,7.32306122 Z M7.47780612,11.4070408 C5.22578571,11.4070408 3.39364286,9.57489796 3.39364286,7.32306122 C3.39364286,5.07104082 5.22578571,3.23889796 7.47780612,3.23889796 C9.72964286,3.23889796 11.5617857,5.07104082 11.5617857,7.32306122 C11.5617857,9.57489796 9.72964286,11.4070408 7.47780612,11.4070408 L7.47780612,11.4070408 Z" sketch:type="MSShapeGroup"></path>
            </g>
        </g>
    </g>
</svg>