<?xml version="1.0" encoding="UTF-8" standalone="no"?>
<svg width="20px" height="16px" viewBox="0 0 20 16" version="1.1" xmlns="http://www.w3.org/2000/svg" xmlns:xlink="http://www.w3.org/1999/xlink" xmlns:sketch="http://www.bohemiancoding.com/sketch/ns">
    <!-- Generator: Sketch Beta 3.2.2 (9983) - http://www.bohemiancoding.com/sketch -->
    <title>Imported Layers 13</title>
    <desc>Created with Sketch Beta.</desc>
    <defs></defs>
    <g id="Page-1" stroke="none" stroke-width="1" fill="none" fill-rule="evenodd" sketch:type="MSPage">
        <g id="Herramientas" sketch:type="MSArtboardGroup" transform="translate(-47.000000, -517.000000)" fill="#00CC99">
            <path d="M66.7841667,521.535671 C66.7841667,521.503452 66.7752083,521.472548 66.7752083,521.442082 L66.7752083,519.411397 C66.7752083,519.362959 66.7520833,519.313863 66.7520833,519.263671 C66.7520833,519.211726 66.7270833,519.16263 66.7141667,519.115068 C66.525,517.725918 64.033125,517 61.5770833,517 C59.0254167,517 56.4383333,517.785315 56.4383333,519.284274 L56.4325,520.41589 C55.4522917,519.79737 53.806875,519.478466 52.1739583,519.478466 C49.611875,519.478466 47.0175,520.263781 47.0175,521.762521 L47,526.091726 C47,527.503452 49.3108333,528.180274 51.735625,528.253699 L51.7314583,530.635507 C51.7314583,532.134027 54.37625,532.804712 56.9658333,532.804712 C59.55125,532.804712 62.191875,532.134027 62.191875,530.635507 L62.191875,528.251726 C64.4835417,528.164932 66.7752083,527.481534 66.7752083,526.091726 L66.7752083,523.87189 C66.7752083,523.83726 66.7841667,523.803945 66.7841667,523.768438 C66.7841667,523.736438 66.7752083,523.705534 66.7752083,523.675068 L66.7752083,521.683178 C66.7752083,521.634959 66.7841667,521.585644 66.7841667,521.535671 L66.7841667,521.535671 Z M52.816875,526.274082 C52.816875,526.255233 52.819375,526.234411 52.833125,526.212493 C52.8358333,526.208329 52.8316667,526.204164 52.8347917,526.2 C52.8464583,526.182904 52.8589583,526.164493 52.875625,526.146082 C52.8866667,526.134247 52.8964583,526.122192 52.909375,526.109918 C52.9216667,526.098301 52.934375,526.086247 52.9483333,526.074192 C52.9735417,526.052712 52.9997917,526.030795 53.030625,526.008438 C53.03625,526.004274 53.041875,526.00011 53.0477083,525.995945 C53.4770833,525.69063 54.4225,525.304658 55.85375,525.169205 C55.86875,525.167671 55.8835417,525.165918 55.89875,525.164603 C56.0183333,525.153863 56.1427083,525.145534 56.2689583,525.138521 C56.300625,525.136767 56.33125,525.134356 56.3635417,525.132822 C56.4766667,525.127562 56.5941667,525.124712 56.7125,525.12274 C56.7852083,525.121425 56.855,525.118356 56.9295833,525.118356 C57.010625,525.118356 57.086875,525.121644 57.165625,525.123178 C57.2539583,525.124932 57.344375,525.125151 57.4297917,525.128658 C57.4845833,525.130849 57.5354167,525.135452 57.5891667,525.138521 C57.6922917,525.144219 57.7966667,525.14926 57.8954167,525.15737 C57.9266667,525.16 57.9552083,525.163945 57.9858333,525.166795 C58.103125,525.177534 58.2197917,525.188712 58.3304167,525.20274 C58.33625,525.203397 58.34125,525.204493 58.3470833,525.205151 C59.895625,525.402849 60.8029167,525.892055 61.028125,526.183123 C61.0220833,526.216438 61.0183333,526.250849 61.0183333,526.286137 C61.0183333,526.476164 59.8979167,527.405918 56.904375,527.405918 C53.9110417,527.405918 52.804375,526.476164 52.804375,526.286137 C52.804375,526.281973 52.816875,526.278247 52.816875,526.274301 L52.816875,526.274082 L52.816875,526.274082 Z M52.205,520.574356 C54.909375,520.574356 56.3585417,521.45874 56.3585417,521.764712 L56.3585417,521.790137 C56.1502083,522.138411 54.7760417,522.861918 52.2247917,522.861918 C49.5525,522.861918 48.095,522.067178 48.095,521.742137 C48.095,521.728329 48.1,521.715397 48.0991667,521.702027 C48.2620833,521.353096 49.6716667,520.574356 52.205,520.574356 L52.205,520.574356 Z M48.0533333,523.133699 C49.0572917,523.69326 50.6927083,523.957808 52.2247917,523.957808 C53.7379167,523.957808 55.316875,523.699616 56.3585417,523.154082 L56.3585417,524.039123 C56.3585417,524.040658 56.2658333,524.043945 56.2352083,524.045699 C54.8397917,524.118247 53.7764583,524.395288 53.03,524.780822 C53.0233333,524.78411 53.0252083,524.786959 53.0252083,524.790247 L53.0252083,524.790027 L52.6347917,524.934027 C52.4960417,524.938849 52.3454167,524.941479 52.2029167,524.941479 C49.51875,524.941479 48.0839583,524.260274 48.0839583,523.768438 C48.0839583,523.712986 48.0697917,523.660384 48.0554167,523.609973 L48.0533333,523.133699 L48.0533333,523.133699 Z M48.0414583,526.093918 L48.0447917,525.240219 C48.955625,525.757699 50.365,525.993096 51.7710417,526.031452 C51.7658333,526.054466 51.7629167,526.077918 51.75875,526.101151 C51.758125,526.104877 51.7577083,526.108384 51.7570833,526.11189 C51.74625,526.17589 51.73875,526.240767 51.73875,526.307616 L51.7372917,527.157808 C49.3327083,527.08 48.0414583,526.385644 48.0414583,526.093918 L48.0414583,526.093918 Z M61.1502083,530.635507 C61.1502083,530.946959 59.663125,531.708822 56.965625,531.708822 C54.263125,531.708822 52.7891667,530.946959 52.7891667,530.636384 L52.7825,529.816 C53.7870833,530.372055 55.413125,530.634849 56.9404167,530.634849 C58.49375,530.634849 60.1085417,530.363507 61.1502083,529.787726 L61.1502083,530.635507 L61.1502083,530.635507 Z M61.1502083,527.712329 L61.1502083,528.153973 C60.941875,528.232877 61.0504167,528.322521 61.0504167,528.419397 C61.0504167,528.744219 59.5927083,529.538959 56.9204167,529.538959 C54.2483333,529.538959 52.7985417,528.744219 52.7985417,528.419397 C52.7985417,528.377753 52.789375,528.337644 52.7810417,528.298849 L52.78,527.684712 C53.785,528.239452 55.411875,528.501808 56.9375,528.501808 C58.4908333,528.501808 60.1085417,528.230466 61.1502083,527.654466 L61.1502083,527.712329 L61.1502083,527.712329 Z M65.7335417,526.091726 C65.7335417,526.332164 64.691875,527.058521 62.191875,527.153863 L62.191875,526.308712 C62.191875,526.239671 62.1527083,526.170411 62.1395833,526.101589 C62.1347917,526.077479 62.109375,526.05337 62.1033333,526.02926 C62.1020833,526.024877 62.1247917,526.020274 62.1235417,526.01589 C63.6904167,525.971178 64.9002083,525.712329 65.7335417,525.273315 L65.7335417,526.091726 L65.7335417,526.091726 Z M65.7335417,523.81863 C65.5252083,524.299726 64.1997917,524.928329 61.6222917,524.928329 C61.5279167,524.928329 61.4179167,524.936877 61.324375,524.946301 C61.3008333,524.948932 61.2695833,524.951342 61.2472917,524.953315 C61.1864583,524.914301 61.1083333,524.882521 61.0252083,524.855342 C60.979375,524.82926 60.930625,524.803616 60.881875,524.778411 C60.828125,524.750795 60.77125,524.723836 60.7139583,524.697315 C60.6614583,524.672767 60.6072917,524.648877 60.5520833,524.625644 C60.4914583,524.6 60.4291667,524.575233 60.3652083,524.550904 C60.306875,524.528767 60.2466667,524.507288 60.1854167,524.486247 C60.1185417,524.463452 60.050625,524.440877 59.9804167,524.419397 C59.9152083,524.399452 59.8479167,524.380603 59.78,524.361973 C59.7075,524.342027 59.6345833,524.322521 59.55875,524.30411 C59.4866667,524.286575 59.4116667,524.270575 59.3366667,524.254575 C59.25875,524.237918 59.1808333,524.221479 59.0997917,524.206356 C59.02,524.191671 58.9370833,524.17874 58.8541667,524.165589 C58.7716667,524.152658 58.6897917,524.139288 58.604375,524.12789 C58.5154167,524.116055 58.4227083,524.10663 58.3304167,524.096767 C58.245,524.087562 58.1610417,524.077699 58.0729167,524.070247 C57.9722917,524.061699 57.8672917,524.056 57.763125,524.049644 C57.676875,524.044603 57.5927083,524.038247 57.5041667,524.03474 C57.4889583,524.034082 57.475,524.032767 57.4597917,524.03211 L57.4635417,522.92263 C58.4620833,523.485479 60.0939583,523.751123 61.6225,523.751123 C63.126875,523.751123 64.691875,523.493589 65.7335417,522.948712 L65.7335417,523.81863 L65.7335417,523.81863 Z M65.7335417,521.570959 C65.5252083,521.914192 64.1891667,522.655233 61.6225,522.655233 C58.966875,522.655233 57.5183333,521.860493 57.5183333,521.535671 C57.5183333,521.469479 57.4975,521.406795 57.4770833,521.348055 L57.4754167,520.655014 C58.474375,521.214795 60.1,521.479342 61.6245833,521.479342 C63.1289583,521.479342 64.691875,521.221589 65.7335417,520.676712 L65.7335417,521.570959 L65.7335417,521.570959 Z M65.7335417,519.298959 C65.5252083,519.642192 64.1891667,520.383452 61.6225,520.383452 C58.966875,520.383452 57.5183333,519.588712 57.5183333,519.263671 C57.5183333,519.245041 57.506875,519.227288 57.505,519.209096 C57.6854167,518.829699 59.1266667,518.09589 61.6052083,518.09589 C64.26875,518.09589 65.7335417,518.940822 65.7335417,519.286247 L65.7335417,519.298959 L65.7335417,519.298959 Z" id="Imported-Layers-13" sketch:type="MSShapeGroup"></path>
        </g>
    </g>
</svg>