<?xml version="1.0" encoding="UTF-8" standalone="no"?>
<svg width="22px" height="15px" viewBox="0 0 22 15" version="1.1" xmlns="http://www.w3.org/2000/svg" xmlns:xlink="http://www.w3.org/1999/xlink" xmlns:sketch="http://www.bohemiancoding.com/sketch/ns">
    <!-- Generator: Sketch 3.2.2 (9983) - http://www.bohemiancoding.com/sketch -->
    <title>Imported Layers</title>
    <desc>Created with Sketch.</desc>
    <defs></defs>
    <g id="Page-1" stroke="none" stroke-width="1" fill="none" fill-rule="evenodd" sketch:type="MSPage">
        <g id="Apps2" sketch:type="MSArtboardGroup" transform="translate(-42.000000, -319.000000)" fill="#00CC99">
            <g id="Imported-Layers" sketch:type="MSLayerGroup" transform="translate(42.000000, 319.000000)">
                <path d="M19.1004494,10.952381 L3.14946067,10.952381 C2.56955056,10.952381 1.73033708,10.62 1.73033708,10.0190476 L1.73033708,0.933333333 C1.73033708,0.236666667 2.57548315,0.236666667 2.85307865,0.236666667 L3.14946067,0.238095238 L19.3555506,0.236666667 C20.1806742,0.236666667 20.2696629,0.723809524 20.2696629,0.933333333 L20.2696629,10.0190476 C20.2696629,10.4778571 19.8321348,10.952381 19.1004494,10.952381 L19.1004494,10.952381 Z M2.96629213,9.73166667 C3.02388764,9.74880952 3.08964045,9.76190476 3.14946067,9.76190476 L19.0337079,9.76190476 L19.0337079,1.42857143 L2.96629213,1.42785714 L2.96629213,9.73166667 L2.96629213,9.73166667 Z" id="Fill-1" sketch:type="MSShapeGroup"></path>
                <path d="M17.2079551,9.04761905 L4.98361798,9.04761905 C4.71417978,9.04761905 3.70786517,8.90904762 3.70786517,8.23190476 L3.70786517,2.81619048 C3.70786517,2.14285714 4.47539326,2.14285714 4.98361798,2.14285714 L17.2079551,2.14285714 C17.5322697,2.14285714 18.2921348,2.14285714 18.2921348,2.81619048 L18.2921348,8.23190476 C18.2921348,8.68166667 17.8056629,9.04761905 17.2079551,9.04761905 L17.2079551,9.04761905 Z M4.94382022,7.855 C4.95766292,7.85642857 4.97101124,7.85714286 4.98361798,7.85714286 L17.0561798,7.85714286 L17.0561798,3.33333333 L4.98361798,3.33333333 L4.94382022,3.33333333 L4.94382022,7.855 L4.94382022,7.855 Z" id="Fill-2" sketch:type="MSShapeGroup"></path>
                <path d="M20.7205393,15 L1.57930337,15 C0.802876404,15 0,15 0,14.3202381 L0,12.0478571 C0,11.4280952 0.598202247,11.4280952 1.17662921,11.4280952 L1.57930337,11.4285714 L21.0609213,11.4280952 C21.3177528,11.4280952 22,11.4280952 22,12.0478571 L22,14.3202381 C22,15 21.1358202,15 20.7205393,15 L20.7205393,15 Z M1.23595506,13.8 C1.34150562,13.8054762 1.45867416,13.8095238 1.57930337,13.8095238 L20.7205393,13.8095238 C20.7353708,13.8095238 20.7499551,13.8095238 20.7640449,13.8092857 L20.7640449,12.6190476 L20.7205393,12.6190476 L1.23595506,12.6185714 L1.23595506,13.8 L1.23595506,13.8 Z" id="Fill-3" sketch:type="MSShapeGroup"></path>
            </g>
        </g>
    </g>
</svg>