<?xml version="1.0" encoding="UTF-8" standalone="no"?>
<svg width="20px" height="18px" viewBox="0 0 20 18" version="1.1" xmlns="http://www.w3.org/2000/svg" xmlns:xlink="http://www.w3.org/1999/xlink" xmlns:sketch="http://www.bohemiancoding.com/sketch/ns">
    <!-- Generator: Sketch 3.2.2 (9983) - http://www.bohemiancoding.com/sketch -->
    <title>Imported Layers 11</title>
    <desc>Created with Sketch.</desc>
    <defs></defs>
    <g id="Page-1" stroke="none" stroke-width="1" fill="none" fill-rule="evenodd" sketch:type="MSPage">
        <g id="Historias" sketch:type="MSArtboardGroup" transform="translate(-44.000000, -515.000000)" fill="#00CC99">
            <path d="M63.6875162,519.537622 L54.2027006,515.391611 C54.0746029,515.335663 53.9297429,515.335663 53.8016452,515.391611 L44.3168296,519.537622 C44.1249935,519.621545 44,519.816935 44,520.033629 C44,520.250107 44.1249935,520.445712 44.3168296,520.52942 L46.8462931,521.642583 C46.8462931,521.646026 46.8280822,521.649254 46.8280822,521.652697 L46.8280822,526.064033 C46.8280822,526.208854 46.9015469,526.347435 47.0010865,526.448788 C47.0892441,526.538306 49.2046148,528.640684 53.976305,528.640684 C55.6318485,528.640684 56.968286,528.387409 58.0030007,528.053008 L58.0030007,529.56685 C57.5891148,529.780746 57.1491541,530.299777 57.1491541,530.905744 C57.1491541,531.701937 57.780537,532.34965 58.5462259,532.34965 C59.3119147,532.34965 59.9219825,531.701937 59.9219825,530.905744 C59.9219825,530.299777 59.6585442,529.780746 59.0377153,529.56685 L59.0377153,527.659431 C60.279373,527.098008 60.9049615,526.495914 60.9513167,526.448788 C61.0510632,526.347435 61.1071447,526.208854 61.1071447,526.064033 L61.1071447,521.652697 C61.1071447,521.649254 61.1234932,521.646026 61.1234932,521.642583 L63.6788246,520.52942 C63.8708676,520.445712 64,520.250107 64,520.033629 C64,519.816935 63.8793523,519.621545 63.6875162,519.537622 L63.6875162,519.537622 Z M53.9676134,527.564749 C50.3401107,527.564749 48.4836256,526.244575 47.8627968,525.813556 L47.8627968,522.094476 L53.7844689,524.675431 C53.8484143,524.703405 53.9253971,524.717392 53.9934813,524.717392 C54.0615655,524.717392 54.1170262,524.703405 54.1809716,524.675431 L58.0030007,522.999123 L58.0030007,526.919833 C56.968286,527.272955 55.6862745,527.564749 53.9676134,527.564749 L53.9676134,527.564749 Z M60.07243,525.815707 C59.8654871,525.962465 59.6585442,526.210576 59.0377153,526.474395 L59.0377153,522.546799 L60.07243,522.094476 L60.07243,525.815707 L60.07243,525.815707 Z M58.5944436,521.588571 L54.2000103,519.585824 C53.9384345,519.467471 53.6334006,519.590343 53.5183403,519.862555 C53.4036939,520.134551 53.5228931,520.451953 53.7844689,520.571381 L57.2784935,522.163766 L54.0021729,523.595837 L45.8523462,520.033629 L54.0021729,516.471205 L62.1519996,520.033629 L58.5944436,521.588571 L58.5944436,521.588571 Z" id="Imported-Layers-11" sketch:type="MSShapeGroup"></path>
        </g>
    </g>
</svg>