<?xml version="1.0" encoding="UTF-8" standalone="no"?>
<svg width="20px" height="20px" viewBox="0 0 20 20" version="1.1" xmlns="http://www.w3.org/2000/svg" xmlns:xlink="http://www.w3.org/1999/xlink" xmlns:sketch="http://www.bohemiancoding.com/sketch/ns">
    <!-- Generator: Sketch Beta 3.2.2 (9983) - http://www.bohemiancoding.com/sketch -->
    <title>Imported Layers 10</title>
    <desc>Created with Sketch Beta.</desc>
    <defs></defs>
    <g id="Page-1" stroke="none" stroke-width="1" fill="none" fill-rule="evenodd" sketch:type="MSPage">
        <g id="Herramientas" sketch:type="MSArtboardGroup" transform="translate(-47.000000, -475.000000)" fill="#00CC99">
            <path d="M66.7880899,493.988807 L65.3480899,488.000852 C65.3462921,487.99267 65.341573,487.985852 65.3393258,487.978125 C65.3298876,487.94517 65.3179775,487.91358 65.3026966,487.882898 C65.2961798,487.869489 65.2896629,487.856307 65.2820225,487.84358 C65.2649438,487.814943 65.2449438,487.788125 65.2229213,487.76267 C65.2155056,487.754034 65.2092135,487.744261 65.2011236,487.735852 C65.2006742,487.735398 65.2002247,487.734489 65.1995506,487.734034 L55.1038202,477.523352 C55.0957303,477.51517 55.0860674,477.509489 55.0775281,477.501989 L52.7683146,475.166534 C52.548764,474.944489 52.1932584,474.944489 51.9739326,475.166534 L47.1644944,480.030398 C46.9451685,480.252216 46.9451685,480.611989 47.1644944,480.833807 L49.4950562,483.190852 C49.5114607,483.207443 49.5296629,483.219943 49.547191,483.234034 L59.5979775,493.399034 C59.7078652,493.509943 59.8514607,493.565398 59.9952809,493.565398 C60.0029213,493.565398 60.0105618,493.56358 60.018427,493.563125 L62.3534831,494.00267 C62.4519101,494.075625 62.5674157,494.113807 62.6840449,494.113807 C62.7330337,494.113807 62.781573,494.104943 62.8292135,494.092216 L66.1548315,494.717898 C66.1894382,494.724489 66.2242697,494.69517 66.2588764,494.69517 L66.2633708,494.69517 C66.5734831,494.69517 66.8249438,494.473352 66.8249438,494.159489 C66.8249438,494.087898 66.8121348,494.051761 66.7880899,493.988807 L66.7880899,493.988807 Z M63.4898876,488.657216 L54.1898876,479.251307 L54.7067416,478.728807 L64.0069663,488.134489 L63.4898876,488.657216 L63.4898876,488.657216 Z M53.3955056,480.054716 L62.6952809,489.460398 L61.3505618,490.819943 L52.0507865,481.414716 L53.3955056,480.054716 L53.3955056,480.054716 Z M52.3710112,476.371761 L53.907191,477.92517 L49.8923596,481.985625 L48.3561798,480.432216 L52.3710112,476.371761 L52.3710112,476.371761 Z M51.2561798,482.218125 L60.5559551,491.623125 L59.9934831,492.191761 L50.6939326,482.786761 L51.2561798,482.218125 L51.2561798,482.218125 Z M64.492809,489.252216 L64.8139326,490.587898 L62.5260674,492.901989 L61.1447191,492.638352 L64.492809,489.252216 L64.492809,489.252216 Z M63.8629213,493.156989 L65.1249438,491.880625 L65.507191,493.470625 L63.8629213,493.156989 L63.8629213,493.156989 Z" id="Imported-Layers-10" sketch:type="MSShapeGroup"></path>
        </g>
    </g>
</svg>