<?xml version="1.0" encoding="UTF-8" standalone="no"?>
<svg width="20px" height="20px" viewBox="0 0 20 20" version="1.1" xmlns="http://www.w3.org/2000/svg" xmlns:xlink="http://www.w3.org/1999/xlink" xmlns:sketch="http://www.bohemiancoding.com/sketch/ns">
    <!-- Generator: Sketch Beta 3.2.2 (9983) - http://www.bohemiancoding.com/sketch -->
    <title>Imported Layers 2</title>
    <desc>Created with Sketch Beta.</desc>
    <defs></defs>
    <g id="Page-1" stroke="none" stroke-width="1" fill="none" fill-rule="evenodd" sketch:type="MSPage">
        <g id="Herramientas" sketch:type="MSArtboardGroup" transform="translate(-45.000000, -324.000000)" fill="#00CC99">
            <path d="M57.7136709,343.776426 L52.2863291,343.776426 C52.0797468,343.776426 51.8921519,343.696932 51.7582278,343.552375 C51.543038,343.319717 51.564557,343.043768 51.5759494,342.895666 C51.578481,342.860476 51.5822785,342.818957 51.5822785,342.771616 L51.5822785,337.194147 L46.0048101,337.194147 C45.9572152,337.194147 45.9159494,337.197945 45.8807595,337.200476 C45.8258228,337.20478 45.7777215,337.207818 45.7374684,337.207818 C45.2534177,337.207818 45,336.846552 45,336.490097 L45,331.062755 C45,330.706299 45.2534177,330.345033 45.7374684,330.345033 C45.7777215,330.345033 45.8258228,330.348071 45.8807595,330.352375 C45.9159494,330.354907 45.9572152,330.358704 46.0048101,330.358704 L51.5822785,330.358704 L51.5822785,324.781236 C51.5822785,324.773135 51.5822785,324.766046 51.5820253,324.760223 C51.5458228,324.581995 51.5870886,324.393894 51.6979747,324.248324 C51.8579747,324.037945 52.1483544,323.948578 52.3964557,324.02959 L57.6035443,324.02959 C57.8511392,323.948831 58.1420253,324.037945 58.3017722,324.248578 C58.4126582,324.394147 58.4177215,324.581995 58.4177215,324.760223 L58.4177215,324.781236 L58.4177215,330.358704 L63.9951899,330.358704 C64.0032911,330.358704 64.0103797,330.358704 64.0162025,330.358451 C64.3220253,330.296173 64.6318987,330.470097 64.738481,330.758451 C64.7888608,330.8944 64.7896203,331.03997 64.7468354,331.172122 L64.7468354,336.38073 C64.7893671,336.513135 64.7888608,336.658704 64.738481,336.794654 C64.6463291,337.042755 64.4096203,337.207818 64.1448101,337.207818 L64.144557,337.207565 C64.1020253,337.207565 64.0582278,337.194147 64.0159494,337.194147 L63.9951899,337.194147 L58.4177215,337.194147 L58.4177215,342.771616 C58.4177215,342.818957 58.421519,342.860476 58.4240506,342.895666 C58.435443,343.043768 58.456962,343.319717 58.2417722,343.552375 C58.1078481,343.696932 57.9202532,343.776426 57.7136709,343.776426 L57.7136709,343.776426 Z M57.1518987,342.510603 L57.1518987,336.561236 C57.1518987,336.211616 57.4351899,335.928324 57.7848101,335.928324 L63.4810127,335.928324 L63.4810127,331.624527 L57.7848101,331.624527 C57.4351899,331.624527 57.1518987,331.341236 57.1518987,330.991616 L57.1518987,325.295413 L52.8481013,325.295413 L52.8481013,330.991616 C52.8481013,331.341236 52.5648101,331.624527 52.2151899,331.624527 L46.2658228,331.624527 L46.2658228,335.928324 L52.2151899,335.928324 C52.5648101,335.928324 52.8481013,336.211616 52.8481013,336.561236 L52.8481013,342.510603 L57.1518987,342.510603 Z" id="Imported-Layers-2" sketch:type="MSShapeGroup"></path>
        </g>
    </g>
</svg>