<?xml version="1.0" encoding="UTF-8" standalone="no"?>
<svg width="140px" height="141px" viewBox="0 0 140 141" version="1.1" xmlns="http://www.w3.org/2000/svg" xmlns:xlink="http://www.w3.org/1999/xlink" xmlns:sketch="http://www.bohemiancoding.com/sketch/ns">
    <!-- Generator: Sketch Beta 3.2.2 (9983) - http://www.bohemiancoding.com/sketch -->
    <title>Imported Layers</title>
    <desc>Created with Sketch Beta.</desc>
    <defs>
        <path id="path-1" d="M0.06,67.1180931 C1.59326702,29.8145651 32.3198011,0.043 70,0.043 C108.66,0.043 140,31.383 140,70.043 C140,108.703 108.66,140.043 70,140.043 C32.3198011,140.043 1.59326702,110.271435 0.06,72.9679069 L0.06,67.1180931"></path>
        <path id="path-3" d="M56.999,28.979 C56.999,13.267 44.261,0.529 28.548,0.529 C12.836,0.529 0.098,13.267 0.098,28.979 C0.098,44.692 12.836,57.43 28.548,57.43 C44.261,57.43 56.999,44.692 56.999,28.979"></path>
    </defs>
    <g id="Page-1" stroke="none" stroke-width="1" fill="none" fill-rule="evenodd" sketch:type="MSPage">
        <g id="Home" sketch:type="MSArtboardGroup" transform="translate(-442.000000, -503.000000)">
            <g id="Imported-Layers" sketch:type="MSLayerGroup" transform="translate(442.000000, 503.000000)">
                <path d="M140,70.043 C140,31.383 108.66,0.043 70,0.043 C31.34,0.043 0,31.383 0,70.043 C0,108.703 31.34,140.043 70,140.043 C108.66,140.043 140,108.703 140,70.043" id="Fill-1" fill="#D8D8D8" sketch:type="MSShapeGroup"></path>
                <g id="Group-5">
                    <mask id="mask-2" sketch:name="Clip 3" fill="white">
                        <use xlink:href="#path-1"></use>
                    </mask>
                    <g id="Clip-3"></g>
                    <path d="M53,24 L91,24 M102,24 L140,24 M32,24 L42,24 M80,36 L42,36 M31,36 L-7,36 M150,36 L112,36 M150,50 L93,50 M21,50 L-6,50 M42,50 L32,50 M62,50 L52,50 M82,50 L72,50 M132,65 L122,65 M152,65 L142,65 M172,65 L162,65 M12,77 L-6,77 M32,77 L22,77 M22,24 L12,24 M101,36 L91,36 M90,65 L52,65 M41,65 L3,65 M111,65 L101,65 M63,77 L101,77 M112,77 L150,77 M-7,91 L50,91 M122,91 L149,91 M101,91 L111,91 M81,91 L91,91 M61,91 L71,91 M42,77 L52,77" id="Stroke-2" stroke="#00CC99" stroke-width="6" stroke-linecap="round" stroke-linejoin="round" sketch:type="MSShapeGroup" mask="url(#mask-2)"></path>
                    <path d="M33.993,145.77 L20.72,132.463 L77.139,76.186 L90.413,89.493 L33.993,145.77" id="Fill-4" fill="#474747" sketch:type="MSShapeGroup" mask="url(#mask-2)"></path>
                </g>
                <path d="M119.632,80.979 C119.632,61.051 103.477,44.896 83.548,44.896 C63.62,44.896 47.465,61.051 47.465,80.979 C47.465,100.908 63.62,117.063 83.548,117.063 C103.477,117.063 119.632,100.908 119.632,80.979" id="Fill-6" fill="#474747" sketch:type="MSShapeGroup"></path>
                <path d="M111.999,80.979 C111.999,65.267 99.261,52.529 83.548,52.529 C67.836,52.529 55.098,65.267 55.098,80.979 C55.098,96.692 67.836,109.43 83.548,109.43 C99.261,109.43 111.999,96.692 111.999,80.979" id="Fill-7" fill="#E1F2F7" sketch:type="MSShapeGroup"></path>
                <g id="Group-16" transform="translate(55.000000, 52.000000)">
                    <mask id="mask-4" sketch:name="Clip 9" fill="white">
                        <use xlink:href="#path-3"></use>
                    </mask>
                    <g id="Clip-9"></g>
                    <path d="M35,16 L-3,16 C-4.657,16 -6,14.657 -6,13 C-6,11.343 -4.657,10 -3,10 L35,10 C36.657,10 38,11.343 38,13 C38,14.657 36.657,16 35,16" id="Fill-8" fill="#00AA99" sketch:type="MSShapeGroup" mask="url(#mask-4)"></path>
                    <path d="M56,16 L46,16 C44.343,16 43,14.657 43,13 C43,11.343 44.343,10 46,10 L56,10 C57.657,10 59,11.343 59,13 C59,14.657 57.657,16 56,16" id="Fill-10" fill="#00AA99" sketch:type="MSShapeGroup" mask="url(#mask-4)"></path>
                    <path d="M46,28 L8,28 C6.343,28 5,26.657 5,25 C5,23.343 6.343,22 8,22 L46,22 C47.657,22 49,23.343 49,25 C49,26.657 47.657,28 46,28" id="Fill-11" fill="#00AA99" sketch:type="MSShapeGroup" mask="url(#mask-4)"></path>
                    <path d="M95,28 L57,28 C55.343,28 54,26.657 54,25 C54,23.343 55.343,22 57,22 L95,22 C96.657,22 98,23.343 98,25 C98,26.657 96.657,28 95,28" id="Fill-12" fill="#00AA99" sketch:type="MSShapeGroup" mask="url(#mask-4)"></path>
                    <path d="M56,42 L46,42 C44.343,42 43,40.657 43,39 C43,37.343 44.343,36 46,36 L56,36 C57.657,36 59,37.343 59,39 C59,40.657 57.657,42 56,42" id="Fill-13" fill="#00AA99" sketch:type="MSShapeGroup" mask="url(#mask-4)"></path>
                    <path d="M36,42 L26,42 C24.343,42 23,40.657 23,39 C23,37.343 24.343,36 26,36 L36,36 C37.657,36 39,37.343 39,39 C39,40.657 37.657,42 36,42" id="Fill-14" fill="#00AA99" sketch:type="MSShapeGroup" mask="url(#mask-4)"></path>
                    <path d="M16,42 L0,42 C-1.657,42 -3,40.657 -3,39 C-3,37.343 -1.657,36 0,36 L16,36 C17.657,36 19,37.343 19,39 C19,40.657 17.657,42 16,42" id="Fill-15" fill="#00AA99" sketch:type="MSShapeGroup" mask="url(#mask-4)"></path>
                </g>
                <path d="M81.547,104 C79.906,104 78.567,102.45 78.548,100.806 C78.528,99.152 79.852,97.68 81.504,97.656 C81.596,97.655 89.812,97.385 95.177,92.02 C99.679,87.518 100.778,79.393 100.821,76.654 C100.849,74.995 102.24,73.672 103.869,73.687 C105.525,73.714 106.848,75.072 106.821,76.728 C106.813,77.229 106.543,89.315 99.419,96.438 C92.29,103.567 82.017,104 81.583,104 L81.547,104" id="Fill-17" fill="#FFFFFF" sketch:type="MSShapeGroup"></path>
            </g>
        </g>
    </g>
</svg>