<?xml version="1.0" encoding="UTF-8" standalone="no"?>
<svg width="20px" height="19px" viewBox="0 0 20 19" version="1.1" xmlns="http://www.w3.org/2000/svg" xmlns:xlink="http://www.w3.org/1999/xlink" xmlns:sketch="http://www.bohemiancoding.com/sketch/ns">
    <!-- Generator: Sketch Beta 3.2.2 (9983) - http://www.bohemiancoding.com/sketch -->
    <title>Imported Layers 15</title>
    <desc>Created with Sketch Beta.</desc>
    <defs></defs>
    <g id="Page-1" stroke="none" stroke-width="1" fill="none" fill-rule="evenodd" sketch:type="MSPage">
        <g id="Herramientas" sketch:type="MSArtboardGroup" transform="translate(-47.000000, -554.000000)" fill="#00CC99">
            <path d="M64.9381443,572.387097 C64.2548454,572.387097 63.7010309,571.838344 63.7010309,571.16129 C63.7010309,570.484237 64.2548454,569.935484 64.9381443,569.935484 C65.6214433,569.935484 66.1752577,570.484237 66.1752577,571.16129 C66.1752577,571.838344 65.6214433,572.387097 64.9381443,572.387097 L64.9381443,572.387097 Z M57.7216495,570.548387 C57.7216495,569.871333 57.1678351,569.322581 56.4845361,569.322581 C55.8012371,569.322581 55.2474227,569.871333 55.2474227,570.548387 C55.2474227,571.225441 55.8012371,571.774194 56.4845361,571.774194 C57.1678351,571.774194 57.7216495,571.225441 57.7216495,570.548387 L57.7216495,570.548387 Z M64.1134021,560.741935 C64.1134021,560.064882 63.5595876,559.516129 62.8762887,559.516129 C62.1929897,559.516129 61.6391753,560.064882 61.6391753,560.741935 C61.6391753,561.418989 62.1929897,561.967742 62.8762887,561.967742 C63.5595876,561.967742 64.1134021,561.418989 64.1134021,560.741935 L64.1134021,560.741935 Z M53.185567,567.892473 C53.185567,567.215419 52.6317526,566.666667 51.9484536,566.666667 C51.2651546,566.666667 50.7113402,567.215419 50.7113402,567.892473 C50.7113402,568.569527 51.2651546,569.11828 51.9484536,569.11828 C52.6317526,569.11828 53.185567,568.569527 53.185567,567.892473 L53.185567,567.892473 Z M61.4329897,557.268817 C61.4329897,556.591763 60.8791753,556.043011 60.1958763,556.043011 C59.5125773,556.043011 58.9587629,556.591763 58.9587629,557.268817 C58.9587629,557.945871 59.5125773,558.494624 60.1958763,558.494624 C60.8791753,558.494624 61.4329897,557.945871 61.4329897,557.268817 L61.4329897,557.268817 Z M55.8659794,557.268817 C55.8659794,556.591763 55.3121649,556.043011 54.628866,556.043011 C53.945567,556.043011 53.3917526,556.591763 53.3917526,557.268817 C53.3917526,557.945871 53.945567,558.494624 54.628866,558.494624 C55.3121649,558.494624 55.8659794,557.945871 55.8659794,557.268817 L55.8659794,557.268817 Z M56.8969072,561.763441 C56.8969072,561.086387 56.3430928,560.537634 55.6597938,560.537634 C54.9764948,560.537634 54.4226804,561.086387 54.4226804,561.763441 C54.4226804,562.440495 54.9764948,562.989247 55.6597938,562.989247 C56.3430928,562.989247 56.8969072,562.440495 56.8969072,561.763441 L56.8969072,561.763441 Z M64.1134021,567.27957 C64.1134021,566.602516 63.5595876,566.053763 62.8762887,566.053763 C62.1929897,566.053763 61.6391753,566.602516 61.6391753,567.27957 C61.6391753,567.956624 62.1929897,568.505376 62.8762887,568.505376 C63.5595876,568.505376 64.1134021,567.956624 64.1134021,567.27957 L64.1134021,567.27957 Z M58.7525773,565.44086 C58.7525773,564.763806 58.1987629,564.215054 57.5154639,564.215054 C56.8321649,564.215054 56.2783505,564.763806 56.2783505,565.44086 C56.2783505,566.117914 56.8321649,566.666667 57.5154639,566.666667 C58.1987629,566.666667 58.7525773,566.117914 58.7525773,565.44086 L58.7525773,565.44086 Z M50.7113402,555.225806 C50.7113402,554.548753 50.1575258,554 49.4742268,554 C48.7909278,554 48.2371134,554.548753 48.2371134,555.225806 C48.2371134,555.90286 48.7909278,556.451613 49.4742268,556.451613 C50.1575258,556.451613 50.7113402,555.90286 50.7113402,555.225806 L50.7113402,555.225806 Z M49.4742268,571.774194 C49.4742268,571.09714 48.9204124,570.548387 48.2371134,570.548387 C47.5538144,570.548387 47,571.09714 47,571.774194 C47,572.451247 47.5538144,573 48.2371134,573 C48.9204124,573 49.4742268,572.451247 49.4742268,571.774194 L49.4742268,571.774194 Z M51.5360825,562.989247 C51.5360825,562.312194 50.982268,561.763441 50.2989691,561.763441 C49.6156701,561.763441 49.0618557,562.312194 49.0618557,562.989247 C49.0618557,563.666301 49.6156701,564.215054 50.2989691,564.215054 C50.982268,564.215054 51.5360825,563.666301 51.5360825,562.989247 L51.5360825,562.989247 Z M67,555.430108 C67,554.753054 66.4461856,554.204301 65.7628866,554.204301 C65.0795876,554.204301 64.5257732,554.753054 64.5257732,555.430108 C64.5257732,556.107161 65.0795876,556.655914 65.7628866,556.655914 C66.4461856,556.655914 67,556.107161 67,555.430108 L67,555.430108 Z" id="Imported-Layers-15" sketch:type="MSShapeGroup"></path>
        </g>
    </g>
</svg>