<?xml version="1.0" encoding="UTF-8" standalone="no"?>
<svg width="20px" height="20px" viewBox="0 0 20 20" version="1.1" xmlns="http://www.w3.org/2000/svg" xmlns:xlink="http://www.w3.org/1999/xlink" xmlns:sketch="http://www.bohemiancoding.com/sketch/ns">
    <!-- Generator: Sketch Beta 3.2.2 (9983) - http://www.bohemiancoding.com/sketch -->
    <title>Imported Layers 4</title>
    <desc>Created with Sketch Beta.</desc>
    <defs></defs>
    <g id="Page-1" stroke="none" stroke-width="1" fill="none" fill-rule="evenodd" sketch:type="MSPage">
        <g id="Herramientas" sketch:type="MSArtboardGroup" transform="translate(-45.000000, -362.000000)" fill="#00CC99">
            <path d="M54.8850575,362 C49.4344828,362 45,366.434483 45,371.885057 C45,377.335632 49.4344828,381.770115 54.8850575,381.770115 C60.3356322,381.770115 64.7701149,377.335632 64.7701149,371.885057 C64.7701149,366.434483 60.3356322,362 54.8850575,362 L54.8850575,362 Z M63.6206897,371.885057 C63.6206897,372.387586 63.5756322,372.87977 63.4937931,373.35931 L60.0041379,369.869425 C59.8963218,369.761609 59.7501149,369.701149 59.5977011,369.701149 L57.888046,369.701149 L56.9489655,368.725977 L58.1091954,367.531264 L59.9958621,369.417931 C60.1604598,369.582069 60.4071264,369.631954 60.6222989,369.542529 C60.8370115,369.453563 60.9770115,369.243908 60.9770115,369.011494 L60.9770115,365.632644 C62.6062069,367.22023 63.6206897,369.435862 63.6206897,371.885057 L63.6206897,371.885057 Z M46.1494253,371.885057 C46.1494253,369.435862 47.163908,367.22023 48.7931034,365.632644 L48.7931034,367.287356 C48.7931034,367.453793 48.8652874,367.611954 48.9905747,367.721149 L50.3124138,368.870575 C50.4294253,368.972184 50.5829885,369.022069 50.7370115,369.009655 C50.8914943,368.996782 51.0342529,368.922069 51.1331034,368.802529 L52.0114943,367.737701 L52.0114943,370.16092 C52.0114943,370.290575 52.0554023,370.416322 52.1358621,370.518161 L54.1186207,373.018161 C54.2422989,373.173793 54.4372414,373.254943 54.6354023,373.231724 L56.6402299,372.998621 L57.5287356,375.712414 L57.5287356,378.198621 L55.1126437,380.614943 C55.0367816,380.616782 54.9613793,380.62069 54.8850575,380.62069 C50.0682759,380.62069 46.1494253,376.701839 46.1494253,371.885057 L46.1494253,371.885057 Z M56.9903448,380.362529 L58.5098851,378.843218 C58.6174713,378.735402 58.6781609,378.589195 58.6781609,378.436782 L58.6781609,375.62069 C58.6781609,375.56 58.6685057,375.49954 58.6496552,375.441839 L57.5864368,372.194713 C57.5013793,371.934943 57.2445977,371.772184 56.9737931,371.802759 L54.8204598,372.053103 L53.1609195,369.96069 L53.1609195,366.137931 C53.1609195,365.895402 53.0087356,365.67908 52.7806897,365.597011 C52.5517241,365.514943 52.2970115,365.585287 52.1427586,365.772184 L50.6216092,367.616092 L49.9425287,367.025517 L49.9425287,364.687356 C51.3491954,363.718391 53.0517241,363.149425 54.8850575,363.149425 C56.7186207,363.149425 58.4209195,363.718391 59.8275862,364.687356 L59.8275862,367.623908 L58.5098851,366.363678 C58.402069,366.255862 58.2558621,366.252874 58.1034483,366.252874 L58.0993103,366.252874 C57.9455172,366.252874 57.7983908,366.25931 57.6912644,366.369655 L55.7372414,368.323678 C55.5213793,368.545977 55.5204598,368.89954 55.7354023,369.122759 L57.2296552,370.674483 C57.3381609,370.787126 57.4873563,370.850575 57.6436782,370.850575 L59.3597701,370.850575 L63.1668966,374.657931 C62.2241379,377.466207 59.8924138,379.641609 56.9903448,380.362529 L56.9903448,380.362529 Z" id="Imported-Layers-4" sketch:type="MSShapeGroup"></path>
        </g>
    </g>
</svg>