<?xml version="1.0" encoding="UTF-8" standalone="no"?>
<svg width="22px" height="15px" viewBox="0 0 22 15" version="1.1" xmlns="http://www.w3.org/2000/svg" xmlns:xlink="http://www.w3.org/1999/xlink" xmlns:sketch="http://www.bohemiancoding.com/sketch/ns">
    <!-- Generator: Sketch 3.2.2 (9983) - http://www.bohemiancoding.com/sketch -->
    <title>Imported Layers</title>
    <desc>Created with Sketch.</desc>
    <defs></defs>
    <g id="Page-1" stroke="none" stroke-width="1" fill="none" fill-rule="evenodd" sketch:type="MSPage">
        <g id="Avances" sketch:type="MSArtboardGroup" transform="translate(-44.000000, -394.000000)" fill="#00CC99">
            <g id="Imported-Layers" sketch:type="MSLayerGroup" transform="translate(44.000000, 394.000000)">
                <path d="M4.55282979,5.69227273 C6.16725532,5.69227273 7.48070213,4.41704545 7.48070213,2.84931818 C7.48070213,1.28159091 6.16725532,0.00590909091 4.55282979,0.00590909091 C2.9386383,0.00590909091 1.62495745,1.28159091 1.62495745,2.84931818 C1.62495745,4.41704545 2.9386383,5.69227273 4.55282979,5.69227273 L4.55282979,5.69227273 Z M4.55282979,1.14227273 C5.522,1.14227273 6.31048936,1.90795455 6.31048936,2.84931818 C6.31048936,3.79022727 5.522,4.55590909 4.55282979,4.55590909 C3.58389362,4.55590909 2.79540426,3.79022727 2.79540426,2.84931818 C2.79540426,1.90795455 3.58389362,1.14227273 4.55282979,1.14227273 L4.55282979,1.14227273 Z" id="Fill-1" sketch:type="MSShapeGroup"></path>
                <path d="M10.9817447,7.94659091 C12.5961702,7.94659091 13.909617,6.67136364 13.909617,5.10363636 C13.909617,3.53590909 12.5961702,2.26045455 10.9817447,2.26045455 C9.36731915,2.26045455 8.05387234,3.53590909 8.05387234,5.10363636 C8.05387234,6.67136364 9.36731915,7.94659091 10.9817447,7.94659091 L10.9817447,7.94659091 Z M10.9817447,3.39681818 C11.9509149,3.39681818 12.7394043,4.16227273 12.7394043,5.10363636 C12.7394043,6.04477273 11.9509149,6.81022727 10.9817447,6.81022727 C10.0125745,6.81022727 9.22408511,6.04477273 9.22408511,5.10363636 C9.22408511,4.16227273 10.0125745,3.39681818 10.9817447,3.39681818 L10.9817447,3.39681818 Z" id="Fill-2" sketch:type="MSShapeGroup"></path>
                <path d="M17.4104255,6.2125 C19.0248511,6.2125 20.3382979,4.93727273 20.3382979,3.36954545 C20.3382979,1.80181818 19.0248511,0.526363636 17.4104255,0.526363636 C15.796,0.526363636 14.4827872,1.80181818 14.4827872,3.36954545 C14.4827872,4.93727273 15.796,6.2125 17.4104255,6.2125 L17.4104255,6.2125 Z M17.4104255,1.66272727 C18.3795957,1.66272727 19.1680851,2.42840909 19.1680851,3.36954545 C19.1680851,4.31068182 18.3795957,5.07613636 17.4104255,5.07613636 C16.4412553,5.07613636 15.653,4.31068182 15.653,3.36954545 C15.653,2.42840909 16.4412553,1.66272727 17.4104255,1.66272727 L17.4104255,1.66272727 Z" id="Fill-3" sketch:type="MSShapeGroup"></path>
                <path d="M17.3959149,6.685 C15.6263191,6.685 14.0530851,7.6625 13.3172553,9.13863636 C12.6102128,8.70022727 11.7819362,8.44022727 10.9049787,8.44022727 C10.1272553,8.44022727 9.39517021,8.62363636 8.7527234,8.945 C8.08874468,7.27204545 6.42587234,6.12431818 4.53082979,6.12431818 C2.03265957,6.12431818 0,8.07931818 0,10.4822727 L0,11.9318182 C0,12.2456818 0.261893617,12.5 0.585106383,12.5 L6.33202128,12.5 C6.32757447,12.5768182 6.31938298,12.6527273 6.31914894,12.7304545 L6.31914894,12.7327273 L6.31914894,14.4318182 C6.31914894,14.7456818 6.58104255,15 6.90425532,15 L14.8975106,15 C15.2195532,15 15.4814468,14.7472727 15.4828511,14.4343182 L15.4884681,13.1818182 L21.3261915,13.1818182 C21.648234,13.1818182 21.9096596,12.9290909 21.9112979,12.6163636 L21.9187872,11.0943182 C21.8998298,8.66295455 19.8711489,6.685 17.3959149,6.685 L17.3959149,6.685 Z M6.55880851,11.3636364 L1.17021277,11.3636364 L1.17021277,10.4822727 C1.17021277,8.70590909 2.67768085,7.26068182 4.53082979,7.26068182 C6.03221277,7.26068182 7.3386383,8.23363636 7.75312766,9.61590909 C7.72387234,9.64181818 7.6967234,9.66954545 7.66817021,9.69590909 C7.66653191,9.6975 7.66512766,9.69886364 7.66348936,9.70045455 C7.45846809,9.8925 7.27404255,10.1015909 7.11208511,10.325 C7.10834043,10.3302273 7.10459574,10.3352273 7.10085106,10.3402273 C7.02034043,10.4522727 6.94497872,10.5672727 6.87617021,10.6856818 C6.87546809,10.6870455 6.87453191,10.6886364 6.87382979,10.6902273 C6.80782979,10.8038636 6.74791489,10.9206818 6.69314894,11.0397727 C6.688,11.0511364 6.68238298,11.0622727 6.67723404,11.0738636 C6.63440426,11.1690909 6.59414894,11.2654545 6.55880851,11.3636364 L6.55880851,11.3636364 Z M14.3152128,13.8636364 L7.4893617,13.8636364 L7.4893617,12.7365909 C7.4893617,12.3052273 7.58391489,11.8940909 7.75359574,11.5193182 C7.76131915,11.5020455 7.77068085,11.4854545 7.7786383,11.4684091 C7.81351064,11.3954545 7.85048936,11.3234091 7.89097872,11.2534091 C7.90268085,11.2329545 7.91531915,11.2131818 7.9277234,11.1929545 C7.96774468,11.1270455 8.00987234,11.0622727 8.05504255,10.9993182 C8.06885106,10.9797727 8.08289362,10.9609091 8.09717021,10.9418182 C8.14421277,10.8788636 8.19382979,10.8175 8.24555319,10.7581818 C8.26006383,10.7415909 8.27434043,10.7247727 8.28931915,10.7084091 C8.34431915,10.6477273 8.40212766,10.5890909 8.46204255,10.5325 C8.47631915,10.5190909 8.48965957,10.5052273 8.50417021,10.4920455 C8.5673617,10.4340909 8.63359574,10.3790909 8.70170213,10.3259091 C8.7152766,10.3154545 8.72791489,10.3038636 8.7417234,10.2934091 C9.3312766,9.84590909 10.0846596,9.57659091 10.9049787,9.57659091 C11.764383,9.57659091 12.5615319,9.91022727 13.1705106,10.4452273 C13.178,10.4527273 13.1829149,10.4620455 13.1908723,10.4693182 C13.8431489,11.0531818 14.2389149,11.8304545 14.305383,12.6577273 C14.305617,12.6611364 14.3067872,12.6640909 14.3070213,12.6672727 C14.3121702,12.7354545 14.3191915,12.8031818 14.3198936,12.8722727 L14.3152128,13.8636364 L14.3152128,13.8636364 Z M20.7438936,12.0454545 L15.3981277,12.0454545 C15.3824468,11.9709091 15.3620851,11.8979545 15.3424255,11.8245455 C15.3307234,11.7802273 15.3185532,11.7361364 15.3054468,11.6922727 C15.2850851,11.625 15.2642553,11.5581818 15.2408511,11.4920455 C15.2125319,11.4120455 15.1809362,11.3334091 15.1479362,11.2552273 C15.1235957,11.1981818 15.0985532,11.1415909 15.0718723,11.0856818 C15.031617,11.0002273 14.9887872,10.9161364 14.9429149,10.8331818 C14.9220851,10.7956818 14.9005532,10.7586364 14.8785532,10.7218182 C14.8272979,10.6352273 14.773,10.55 14.7154255,10.4665909 C14.6997447,10.4436364 14.685,10.4197727 14.668617,10.3970455 C14.5955957,10.2947727 14.5176596,10.1954545 14.4355106,10.0986364 C14.4104681,10.0690909 14.3840213,10.0409091 14.3582766,10.0120455 C14.3229362,9.9725 14.289234,9.93204545 14.2527234,9.89363636 C14.7301702,8.65909091 15.9785532,7.82136364 17.3959149,7.82136364 C19.2305745,7.82136364 20.734766,9.29340909 20.7488085,11.0959091 L20.7438936,12.0454545 L20.7438936,12.0454545 Z" id="Fill-4" sketch:type="MSShapeGroup"></path>
            </g>
        </g>
    </g>
</svg>