<?xml version="1.0" encoding="UTF-8" standalone="no"?>
<svg width="18px" height="20px" viewBox="0 0 18 20" version="1.1" xmlns="http://www.w3.org/2000/svg" xmlns:xlink="http://www.w3.org/1999/xlink" xmlns:sketch="http://www.bohemiancoding.com/sketch/ns">
    <!-- Generator: Sketch 3.2.2 (9983) - http://www.bohemiancoding.com/sketch -->
    <title>Imported Layers</title>
    <desc>Created with Sketch.</desc>
    <defs></defs>
    <g id="Page-1" stroke="none" stroke-width="1" fill="none" fill-rule="evenodd" sketch:type="MSPage">
        <g id="Avances" sketch:type="MSArtboardGroup" transform="translate(-45.000000, -275.000000)" fill="#00CC99">
            <path d="M62.2919189,277.02381 L58.6216216,277.02381 L58.6216216,275.595238 C58.6216216,275.266429 58.3494324,275 58.0135135,275 C57.6775946,275 57.4054054,275.266429 57.4054054,275.595238 L57.4054054,277.02381 L50.5945946,277.02381 L50.5945946,275.595238 C50.5945946,275.266429 50.3224054,275 49.9864865,275 C49.6505676,275 49.3783784,275.266429 49.3783784,275.595238 L49.3783784,277.02381 L45.5835405,277.02381 C45.2476216,277.02381 45,277.297619 45,277.626429 L45,294.187143 C45,294.515952 45.2476216,294.880952 45.5835405,294.880952 L62.2919189,294.880952 C62.6278378,294.880952 63,294.515952 63,294.187143 L63,277.626429 C63,277.297619 62.6278378,277.02381 62.2919189,277.02381 L62.2919189,277.02381 Z M46.2162162,278.214286 L49.3783784,278.214286 L49.3783784,278.928571 C49.3783784,279.257381 49.6505676,279.52381 49.9864865,279.52381 C50.3224054,279.52381 50.5945946,279.257381 50.5945946,278.928571 L50.5945946,278.214286 L57.4054054,278.214286 L57.4054054,278.928571 C57.4054054,279.257381 57.6775946,279.52381 58.0135135,279.52381 C58.3494324,279.52381 58.6216216,279.257381 58.6216216,278.928571 L58.6216216,278.214286 L61.7837838,278.214286 L61.7837838,280.833333 L46.2162162,280.833333 L46.2162162,278.214286 L46.2162162,278.214286 Z M46.2162162,282.02381 L61.7837838,282.02381 L61.7837838,293.690476 L46.2162162,293.690476 L46.2162162,282.02381 Z M48.0108649,283.989048 C48.0108649,283.60619 48.3280541,283.295952 48.7191892,283.295952 C49.1103243,283.295952 49.4275135,283.60619 49.4275135,283.989048 C49.4275135,284.372143 49.1103243,284.682381 48.7191892,284.682381 C48.3280541,284.682381 48.0108649,284.372143 48.0108649,283.989048 L48.0108649,283.989048 Z M50.5782973,283.989048 C50.5782973,283.60619 50.8952432,283.295952 51.2866216,283.295952 C51.6777568,283.295952 51.9947027,283.60619 51.9947027,283.989048 C51.9947027,284.372143 51.6777568,284.682381 51.2866216,284.682381 C50.8952432,284.682381 50.5782973,284.372143 50.5782973,283.989048 L50.5782973,283.989048 Z M53.1454865,283.989048 C53.1454865,283.60619 53.4626757,283.295952 53.8538108,283.295952 C54.2449459,283.295952 54.5621351,283.60619 54.5621351,283.989048 C54.5621351,284.372143 54.2449459,284.682381 53.8538108,284.682381 C53.4626757,284.682381 53.1454865,284.372143 53.1454865,283.989048 L53.1454865,283.989048 Z M55.7126757,283.989048 C55.7126757,283.60619 56.0298649,283.295952 56.421,283.295952 C56.8121351,283.295952 57.1293243,283.60619 57.1293243,283.989048 C57.1293243,284.372143 56.8121351,284.682381 56.421,284.682381 C56.0298649,284.682381 55.7126757,284.372143 55.7126757,283.989048 L55.7126757,283.989048 Z M58.2801081,283.989048 C58.2801081,283.60619 58.5972973,283.295952 58.9884324,283.295952 C59.3795676,283.295952 59.6967568,283.60619 59.6967568,283.989048 C59.6967568,284.372143 59.3795676,284.682381 58.9884324,284.682381 C58.5972973,284.682381 58.2801081,284.372143 58.2801081,283.989048 L58.2801081,283.989048 Z M48.0108649,286.370238 C48.0108649,285.987143 48.3280541,285.676905 48.7191892,285.676905 C49.1103243,285.676905 49.4275135,285.987143 49.4275135,286.370238 C49.4275135,286.753095 49.1103243,287.063333 48.7191892,287.063333 C48.3280541,287.063333 48.0108649,286.753095 48.0108649,286.370238 L48.0108649,286.370238 Z M50.5782973,286.370238 C50.5782973,285.987143 50.8952432,285.676905 51.2866216,285.676905 C51.6777568,285.676905 51.9947027,285.987143 51.9947027,286.370238 C51.9947027,286.753095 51.6777568,287.063333 51.2866216,287.063333 C50.8952432,287.063333 50.5782973,286.753095 50.5782973,286.370238 L50.5782973,286.370238 Z M53.1454865,286.370238 C53.1454865,285.987143 53.4626757,285.676905 53.8538108,285.676905 C54.2449459,285.676905 54.5621351,285.987143 54.5621351,286.370238 C54.5621351,286.753095 54.2449459,287.063333 53.8538108,287.063333 C53.4626757,287.063333 53.1454865,286.753095 53.1454865,286.370238 L53.1454865,286.370238 Z M55.7126757,286.370238 C55.7126757,285.987143 56.0298649,285.676905 56.421,285.676905 C56.8121351,285.676905 57.1293243,285.987143 57.1293243,286.370238 C57.1293243,286.753095 56.8121351,287.063333 56.421,287.063333 C56.0298649,287.063333 55.7126757,286.753095 55.7126757,286.370238 L55.7126757,286.370238 Z M58.2801081,286.370238 C58.2801081,285.987143 58.5972973,285.676905 58.9884324,285.676905 C59.3795676,285.676905 59.6967568,285.987143 59.6967568,286.370238 C59.6967568,286.753095 59.3795676,287.063333 58.9884324,287.063333 C58.5972973,287.063333 58.2801081,286.753095 58.2801081,286.370238 L58.2801081,286.370238 Z M48.0108649,288.750952 C48.0108649,288.368095 48.3280541,288.057857 48.7191892,288.057857 C49.1103243,288.057857 49.4275135,288.368095 49.4275135,288.750952 C49.4275135,289.134048 49.1103243,289.444286 48.7191892,289.444286 C48.3280541,289.444286 48.0108649,289.134048 48.0108649,288.750952 L48.0108649,288.750952 Z M50.5782973,288.750952 C50.5782973,288.368095 50.8952432,288.057857 51.2866216,288.057857 C51.6777568,288.057857 51.9947027,288.368095 51.9947027,288.750952 C51.9947027,289.134048 51.6777568,289.444286 51.2866216,289.444286 C50.8952432,289.444286 50.5782973,289.134048 50.5782973,288.750952 L50.5782973,288.750952 Z M53.1454865,288.750952 C53.1454865,288.368095 53.4626757,288.057857 53.8538108,288.057857 C54.2449459,288.057857 54.5621351,288.368095 54.5621351,288.750952 C54.5621351,289.134048 54.2449459,289.444286 53.8538108,289.444286 C53.4626757,289.444286 53.1454865,289.134048 53.1454865,288.750952 L53.1454865,288.750952 Z M55.7126757,288.750952 C55.7126757,288.368095 56.0298649,288.057857 56.421,288.057857 C56.8121351,288.057857 57.1293243,288.368095 57.1293243,288.750952 C57.1293243,289.134048 56.8121351,289.444286 56.421,289.444286 C56.0298649,289.444286 55.7126757,289.134048 55.7126757,288.750952 L55.7126757,288.750952 Z M58.2801081,288.750952 C58.2801081,288.368095 58.5972973,288.057857 58.9884324,288.057857 C59.3795676,288.057857 59.6967568,288.368095 59.6967568,288.750952 C59.6967568,289.134048 59.3795676,289.444286 58.9884324,289.444286 C58.5972973,289.444286 58.2801081,289.134048 58.2801081,288.750952 L58.2801081,288.750952 Z M48.0108649,291.131905 C48.0108649,290.749048 48.3280541,290.43881 48.7191892,290.43881 C49.1103243,290.43881 49.4275135,290.749048 49.4275135,291.131905 C49.4275135,291.515 49.1103243,291.825238 48.7191892,291.825238 C48.3280541,291.825238 48.0108649,291.515 48.0108649,291.131905 L48.0108649,291.131905 Z M50.5782973,291.131905 C50.5782973,290.749048 50.8952432,290.43881 51.2866216,290.43881 C51.6777568,290.43881 51.9947027,290.749048 51.9947027,291.131905 C51.9947027,291.515 51.6777568,291.825238 51.2866216,291.825238 C50.8952432,291.825238 50.5782973,291.515 50.5782973,291.131905 L50.5782973,291.131905 Z M53.1454865,291.131905 C53.1454865,290.749048 53.4626757,290.43881 53.8538108,290.43881 C54.2449459,290.43881 54.5621351,290.749048 54.5621351,291.131905 C54.5621351,291.515 54.2449459,291.825238 53.8538108,291.825238 C53.4626757,291.825238 53.1454865,291.515 53.1454865,291.131905 L53.1454865,291.131905 Z" id="Imported-Layers" sketch:type="MSShapeGroup"></path>
        </g>
    </g>
</svg>