<?xml version="1.0" encoding="UTF-8" standalone="no"?>
<svg width="31px" height="30px" viewBox="0 0 31 30" version="1.1" xmlns="http://www.w3.org/2000/svg" xmlns:xlink="http://www.w3.org/1999/xlink" xmlns:sketch="http://www.bohemiancoding.com/sketch/ns">
    <!-- Generator: Sketch Beta 3.2.2 (9983) - http://www.bohemiancoding.com/sketch -->
    <title>Imported Layers 6</title>
    <desc>Created with Sketch Beta.</desc>
    <defs></defs>
    <g id="Page-1" stroke="none" stroke-width="1" fill="none" fill-rule="evenodd" sketch:type="MSPage">
        <g id="Home" sketch:type="MSArtboardGroup" transform="translate(-47.000000, -2553.000000)" fill="#FFFFFF">
            <g id="Footer" sketch:type="MSLayerGroup" transform="translate(1.000000, 2386.000000)">
                <path d="M66.0208529,197 C65.2708529,197.153061 65.0008531,196.510204 65.0008531,196.112245 C65.0008531,195.622449 65.0308531,193.969388 65.0308531,191.918367 C65.0308531,190.479592 64.5508531,189.561224 64.0108531,189.071429 C67.3408531,188.704082 70.8508531,187.387755 70.8508531,181.510204 C70.8508531,179.826531 70.2808531,178.479592 69.3208531,177.408163 C69.4708531,177.010204 69.9808531,175.479592 69.1708531,173.367347 C69.1708531,173.367347 67.9108531,172.969388 65.0608531,174.928571 C63.8608531,174.591837 62.5708531,174.408163 61.3108531,174.408163 C60.0508531,174.408163 58.7608531,174.591837 57.5608531,174.928571 C54.6508531,172.938776 53.3908531,173.367347 53.3908531,173.367347 C52.5808531,175.479592 53.0908531,177.040816 53.2408531,177.408163 C52.2808531,178.479592 51.6808531,179.857143 51.6808531,181.510204 C51.6808531,187.387755 55.1908531,188.673469 58.5208531,189.071429 C58.1008531,189.438776 57.7108531,190.142857 57.5608531,191.122449 C56.6908531,191.520408 54.5308531,192.193878 53.2108531,189.836735 C53.2108531,189.836735 52.4308531,188.367347 50.9008531,188.244898 C50.9008531,188.244898 49.4308531,188.214286 50.8108531,189.163265 C50.8108531,189.163265 51.8008531,189.622449 52.4908531,191.397959 C52.4908531,191.397959 53.3608531,194.122449 57.5308531,193.204082 C57.5308531,194.489796 57.5608531,195.683673 57.5608531,196.05102 C57.5608531,196.44898 57.2908531,196.938776 56.5408531,196.785714 C50.5708531,194.826531 46.2808531,189.071429 46.2808531,182.306122 C46.2808531,173.857143 53.0008531,167 61.2808531,167 C69.5608531,167 76.2808531,173.857143 76.2808531,182.306122 C76.2808531,189.071429 71.9908531,194.826531 66.0208531,196.846939" id="Imported-Layers-6" sketch:type="MSShapeGroup"></path>
            </g>
        </g>
    </g>
</svg>