<?xml version="1.0" encoding="UTF-8" standalone="no"?>
<svg width="115px" height="21px" viewBox="0 0 115 21" version="1.1" xmlns="http://www.w3.org/2000/svg" xmlns:xlink="http://www.w3.org/1999/xlink" xmlns:sketch="http://www.bohemiancoding.com/sketch/ns">
    <!-- Generator: Sketch Beta 3.2.2 (9983) - http://www.bohemiancoding.com/sketch -->
    <title>Logo Datos</title>
    <desc>Created with Sketch Beta.</desc>
    <defs></defs>
    <g id="Page-1" stroke="none" stroke-width="1" fill="none" fill-rule="evenodd" sketch:type="MSPage">
        <g id="Home" sketch:type="MSArtboardGroup" transform="translate(-42.000000, -13.000000)" fill="#FFFFFF">
            <g id="Navbar" sketch:type="MSLayerGroup">
                <g id="Logo-Datos" transform="translate(42.000000, 13.000000)" sketch:type="MSShapeGroup">
                    <path d="M11.2172386,2.41839231 L1.0804059,2.41839231 C0.511629766,2.41839231 0.050498155,1.89177692 0.050498155,1.24223077 C0.050498155,0.592684615 0.511629766,0.0660692308 1.0804059,0.0660692308 L11.2172386,0.0660692308 C11.7860148,0.0660692308 12.2470049,0.592684615 12.2470049,1.24223077 C12.2470049,1.89177692 11.7860148,2.41839231 11.2172386,2.41839231" id="Fill-1"></path>
                    <path d="M15.271802,7.04873077 L1.0804059,7.04873077 C0.511488315,7.04873077 0.050498155,6.52227692 0.050498155,5.87273077 C0.050498155,5.22318462 0.511488315,4.69656923 1.0804059,4.69656923 L15.271802,4.69656923 C15.8405781,4.69656923 16.3015683,5.22318462 16.3015683,5.87273077 C16.3015683,6.52227692 15.8405781,7.04873077 15.271802,7.04873077" id="Fill-2"></path>
                    <path d="M13.2445203,11.6792308 L1.0804059,11.6792308 C0.511629766,11.6792308 0.050498155,11.1526154 0.050498155,10.5030692 C0.050498155,9.85352308 0.511629766,9.32690769 1.0804059,9.32690769 L13.2445203,9.32690769 C13.8132964,9.32690769 14.2742866,9.85352308 14.2742866,10.5030692 C14.2742866,11.1526154 13.8132964,11.6792308 13.2445203,11.6792308" id="Fill-3"></path>
                    <path d="M17.2990836,16.3095692 L1.08026445,16.3095692 C0.511488315,16.3095692 0.050498155,15.7831154 0.050498155,15.1334077 C0.050498155,14.4838615 0.511488315,13.9574077 1.08026445,13.9574077 L17.2990836,13.9574077 C17.8678598,13.9574077 18.3289914,14.4838615 18.3289914,15.1334077 C18.3289914,15.7831154 17.8678598,16.3095692 17.2990836,16.3095692" id="Fill-4"></path>
                    <path d="M13.2445203,20.9399077 L1.0804059,20.9399077 C0.511629766,20.9399077 0.050498155,20.4134538 0.050498155,19.7637462 C0.050498155,19.1142 0.511629766,18.5877462 1.0804059,18.5877462 L13.2445203,18.5877462 C13.8132964,18.5877462 14.2742866,19.1142 14.2742866,19.7637462 C14.2742866,20.4134538 13.8132964,20.9399077 13.2445203,20.9399077" id="Fill-5"></path>
                    <path d="M21.7115191,12.0648231 C21.7115191,8.82920769 23.1935055,7.25307692 25.401845,7.25307692 C26.186476,7.25307692 26.7821279,7.45209231 27.1599446,7.60151538 L27.1599446,3.60263077 L28.9760394,3.60263077 L28.9760394,16.3788692 L27.5231919,16.3788692 L27.2616482,15.2671615 L27.1745141,15.2505231 C26.6224293,15.8976462 25.9395018,16.5281308 24.8207626,16.5281308 C22.7866913,16.5281308 21.7115191,14.4872538 21.7115191,12.0648231 L21.7115191,12.0648231 Z M27.1599446,13.7739 L27.1599446,9.19428462 C26.6804244,8.92887692 26.142909,8.77945385 25.6925277,8.77945385 C24.1088376,8.77945385 23.6003198,10.2562385 23.6003198,11.9819538 C23.6003198,13.7903769 24.2976753,14.9684769 25.2711439,14.9684769 C26.0266359,14.9684769 26.7095633,14.4541385 27.1599446,13.7739 L27.1599446,13.7739 Z" id="Fill-6"></path>
                    <path d="M38.0715068,16.1632154 C37.5339914,16.3955077 36.9817651,16.5281308 36.5603813,16.5281308 C35.7613223,16.5281308 35.398075,16.1299385 35.2819434,15.3335538 L35.2092374,15.3004385 C34.3520418,16.1134615 33.6836839,16.5281308 32.7246433,16.5281308 C31.4316359,16.5281308 30.3274662,15.4663385 30.3274662,13.9065231 C30.3274662,12.6621923 30.9521156,12.1476923 32.1435609,11.7992538 C33.1460271,11.5172077 34.4391759,11.2185231 35.2238069,10.9862308 L35.2238069,10.4387769 C35.2238069,9.37682308 34.8605597,8.79609231 33.6836839,8.79609231 C32.8409164,8.79609231 31.9255843,9.12805385 31.0829582,9.59247692 L30.7051415,8.24847692 C31.6640406,7.63463077 32.8844834,7.25307692 33.8289545,7.25307692 C35.4416421,7.25307692 37.0834686,7.75077692 37.0834686,10.5216462 L37.0834686,14.3712692 C37.0834686,14.7197077 37.1270357,14.9851154 37.5048524,14.9851154 C37.722829,14.9851154 37.8970972,14.9684769 37.9843727,14.952 L38.0715068,16.1632154 L38.0715068,16.1632154 Z M33.4221402,15.1012615 C33.9887946,15.1012615 34.6571525,14.7361846 35.2238069,14.0559462 L35.2238069,12.0648231 C34.5118819,12.2307231 33.6255474,12.4796538 33.088032,12.6621923 C32.5939422,12.8114538 32.2162669,13.0272692 32.2162669,13.7239846 C32.2162669,14.5205308 32.7537823,15.1012615 33.4221402,15.1012615 L33.4221402,15.1012615 Z" id="Fill-7"></path>
                    <path d="M38.2460578,7.40233846 L39.5246371,7.40233846 L39.8878844,5.19556154 L41.3263038,5.19556154 L41.3263038,7.40233846 L43.7526199,7.40233846 L43.6219188,8.87896154 L41.3408733,8.87896154 L41.3408733,13.5083308 C41.3408733,14.2716 41.5297109,14.8025769 42.2853444,14.8025769 C42.6920172,14.8025769 43.2442435,14.6697923 43.825326,14.4043846 L44.0578721,15.9806769 C43.2006765,16.3788692 42.4160455,16.5281308 41.7331181,16.5281308 C40.105861,16.5281308 39.4956396,15.5658462 39.4956396,13.7239846 L39.4956396,8.87896154 L38.2460578,8.87896154 L38.2460578,7.40233846" id="Fill-8"></path>
                    <path d="M44.7699385,11.9154 C44.7699385,8.91223846 46.1212239,7.25307692 48.620246,7.25307692 C51.1338376,7.25307692 52.455984,8.87896154 52.455984,11.9154 C52.455984,15.2174077 50.886722,16.5281308 48.6056765,16.5281308 C46.339059,16.5281308 44.7699385,15.1676538 44.7699385,11.9154 L44.7699385,11.9154 Z M50.5671833,11.9154 C50.5671833,9.62575385 49.7679828,8.81273077 48.620246,8.81273077 C47.4579397,8.81273077 46.6587392,9.60911538 46.6587392,11.9320385 C46.6587392,14.0061923 47.4142312,14.9851154 48.620246,14.9851154 C49.8406888,14.9851154 50.5671833,14.0226692 50.5671833,11.9154 L50.5671833,11.9154 Z" id="Fill-9"></path>
                    <path d="M56.2335855,16.5281308 C55.2311193,16.5281308 54.068813,16.1963308 53.5021587,15.8312538 L53.7201353,14.4043846 C54.3447847,14.7361846 55.4053875,15.0681462 56.2771525,15.0681462 C57.11992,15.0681462 57.8172755,14.8192154 57.8172755,13.8567692 C57.8172755,12.1643308 53.6182903,12.9276 53.6182903,9.92443846 C53.6182903,8.14896923 54.8968696,7.25307692 56.8002399,7.25307692 C57.8028475,7.25307692 58.8198831,7.53512308 59.299262,7.76741538 L59.0232903,9.21092308 C58.500203,8.96199231 57.5848708,8.71306154 56.8148093,8.71306154 C55.9866113,8.71306154 55.4345264,9.07813846 55.4345264,9.82476923 C55.4345264,11.3845846 59.5899446,10.7041846 59.5899446,13.7739 C59.5899446,15.6986308 58.0788192,16.5281308 56.2335855,16.5281308" id="Fill-10"></path>
                    <path d="M61.8419926,14.1885692 C62.4667835,14.1885692 62.9317343,14.6864308 62.9317343,15.3833077 C62.9317343,16.0470692 62.4667835,16.5281308 61.8419926,16.5281308 C61.2173432,16.5281308 60.7668204,16.0470692 60.7668204,15.3833077 C60.7668204,14.6864308 61.2173432,14.1885692 61.8419926,14.1885692" id="Fill-11"></path>
                    <path d="M67.6392374,7.25307692 C69.0486593,7.25307692 69.7605843,7.73413846 70.152829,8.18224615 L70.2401046,8.18224615 C70.2836716,7.60151538 70.3853752,7.20316154 71.1117282,7.20316154 C71.4749754,7.20316154 71.9109287,7.30283077 72.1724723,7.41897692 L72.0707688,8.51404615 C71.7656581,8.46429231 71.5621095,8.46429231 71.3878413,8.46429231 C70.7630504,8.46429231 70.7486224,8.84584615 70.7194834,9.4101 C70.792048,9.65886923 70.8357565,9.99083077 70.8357565,10.2231231 C70.8357565,12.0150692 69.5136101,12.9939923 67.5375338,12.9939923 C67.4649692,12.9939923 67.3051292,12.9939923 67.2034256,12.9773538 C66.7384748,13.1765308 65.9684133,13.608 65.9684133,14.2384846 C65.9684133,14.7361846 66.4479336,14.8523308 66.7820418,14.8523308 L69.2666359,14.8523308 C71.0827306,14.8523308 72.0561993,15.6156 72.0561993,17.2250077 C72.0416298,19.6311231 69.368198,20.1952154 67.4793973,20.1952154 C66.2590959,20.1952154 63.905203,19.8965308 63.905203,17.9385231 C63.905203,16.7937 64.6171279,16.2296077 65.2419188,15.8478923 L65.2419188,15.7483846 C64.4718573,15.4663385 64.3411562,14.9684769 64.3411562,14.5869231 C64.3411562,13.608 65.2274908,12.9939923 65.9974108,12.6788308 L65.9829828,12.5958 C64.9659471,12.2307231 64.3557257,11.4010615 64.3557257,10.2064846 C64.3701538,8.38126154 65.634305,7.25307692 67.6392374,7.25307692 L67.6392374,7.25307692 Z M67.101722,16.1963308 C66.6949077,16.2793615 65.7650062,16.7273077 65.7650062,17.6564769 C65.7650062,18.7017923 66.9273124,18.9009692 67.8282165,18.9009692 C68.8742497,18.9009692 70.1673985,18.5525308 70.181968,17.3080385 C70.181968,16.6442769 69.8622878,16.1963308 68.9469557,16.1963308 L67.101722,16.1963308 L67.101722,16.1963308 Z M67.5956704,11.7992538 C68.525572,11.7992538 69.1357934,11.2518 69.1357934,10.1732077 C69.1357934,9.09477692 68.598278,8.46429231 67.6683764,8.46429231 C66.6803383,8.46429231 66.1718204,9.11125385 66.1718204,10.1898462 C66.1718204,11.0028692 66.6077737,11.7992538 67.5956704,11.7992538 L67.5956704,11.7992538 Z" id="Fill-12"></path>
                    <path d="M72.6521341,11.9154 C72.6521341,8.91223846 74.0034194,7.25307692 76.5024416,7.25307692 C79.0160332,7.25307692 80.3381796,8.87896154 80.3381796,11.9154 C80.3381796,15.2174077 78.769059,16.5281308 76.4878721,16.5281308 C74.2213961,16.5281308 72.6521341,15.1676538 72.6521341,11.9154 L72.6521341,11.9154 Z M78.4493788,11.9154 C78.4493788,9.62575385 77.6503198,8.81273077 76.5024416,8.81273077 C75.3401353,8.81273077 74.5409348,9.60911538 74.5409348,11.9320385 C74.5409348,14.0061923 75.2965683,14.9851154 76.5024416,14.9851154 C77.7228844,14.9851154 78.4493788,14.0226692 78.4493788,11.9154 L78.4493788,11.9154 Z" id="Fill-13"></path>
                    <path d="M81.7476015,3.60263077 L83.6072632,3.60263077 L83.6072632,6.67234615 L83.5636962,8.44765385 L83.6364022,8.48076923 C84.1594895,7.90003846 84.813278,7.25307692 85.9174477,7.25307692 C87.9660886,7.25307692 89.0703998,9.29395385 89.0703998,11.7330231 C89.0703998,14.7030692 87.864385,16.5281308 85.2782288,16.5281308 C84.4500308,16.5281308 83.5636962,16.4119846 82.6193665,15.8811692 L82.3142558,16.3788692 L81.7476015,16.3788692 L81.7476015,3.60263077 L81.7476015,3.60263077 Z M83.6072632,10.0239462 L83.6072632,14.6035615 C84.0867835,14.8689692 84.6388684,15.0182308 85.0892497,15.0182308 C86.6149446,15.0182308 87.181599,13.6411154 87.181599,11.8325308 C87.181599,10.0903385 86.5422386,8.82920769 85.496064,8.82920769 C84.740572,8.82920769 84.072214,9.32706923 83.6072632,10.0239462 L83.6072632,10.0239462 Z" id="Fill-14"></path>
                    <path d="M91.3225892,14.1885692 C91.9472386,14.1885692 92.4121894,14.6864308 92.4121894,15.3833077 C92.4121894,16.0470692 91.9472386,16.5281308 91.3225892,16.5281308 C90.6977983,16.5281308 90.247417,16.0470692 90.247417,15.3833077 C90.247417,14.6864308 90.6977983,14.1885692 91.3225892,14.1885692" id="Fill-15"></path>
                    <path d="M93.9670234,7.40233846 L95.5215744,7.40233846 L95.7104121,8.58043846 L95.8121156,8.59691538 C96.6838807,7.63463077 97.4539422,7.25307692 98.3982718,7.25307692 C99.4444465,7.25307692 100.156371,7.76741538 100.548758,8.66330769 L100.650461,8.66330769 C101.551224,7.65126923 102.481125,7.25307692 103.381888,7.25307692 C105.154416,7.25307692 105.953616,8.5638 105.953616,10.6710692 L105.953616,16.3788692 L104.093813,16.3788692 L104.093813,10.9697538 C104.093813,9.60911538 103.672429,8.94535385 102.786236,8.94535385 C102.07417,8.94535385 101.333247,9.36034615 100.897435,10.0737 L100.897435,16.3788692 L99.0376322,16.3788692 L99.0376322,10.9697538 C99.0376322,9.60911538 98.6162485,8.94535385 97.7446248,8.94535385 C97.0325584,8.94535385 96.2480689,9.45969231 95.8266851,10.1732077 L95.8266851,16.3788692 L93.9670234,16.3788692 L93.9670234,7.40233846" id="Fill-16"></path>
                    <path d="M112.332085,11.6168769 C113.02944,12.8778462 113.247417,13.2760385 113.901205,14.3047154 C114.206316,14.7197077 114.496999,14.9353615 114.932811,14.952 L114.932811,16.3788692 C114.714975,16.4286231 114.366156,16.4619 114.075615,16.4619 C113.334551,16.4619 113.000443,16.1963308 112.390221,15.2838 C111.852565,14.4541385 111.489317,13.7572615 110.995369,12.8612077 L110.922663,12.8612077 C110.530418,13.5249692 109.920197,14.6366769 108.990295,16.3788692 L106.985363,16.3788692 C108.191236,14.2218462 109.237411,12.5127692 109.687651,11.7661385 C109.150135,10.8369692 108.845025,10.2893538 108.29294,9.44321538 C107.958831,8.92887692 107.639151,8.77945385 107.363038,8.77945385 L107.363038,7.40233846 C107.639151,7.3857 107.857128,7.36922308 108.104102,7.36922308 C108.903161,7.36922308 109.237411,7.5516 109.833063,8.51404615 C110.298014,9.27731538 110.603124,9.84140769 111.009938,10.5549231 L111.082503,10.5549231 C111.344047,10.0570615 111.983407,8.94535385 112.738899,7.40233846 L114.714975,7.40233846 C113.770504,9.17764615 112.738899,10.9364769 112.332085,11.6168769" id="Fill-17"></path>
                    <path d="M2.09418819,1.24223077 C2.09418819,1.8816 1.64041205,2.39981538 1.08054736,2.39981538 C0.520682657,2.39981538 0.0669065191,1.8816 0.0669065191,1.24223077 C0.0669065191,0.602861538 0.520682657,0.0846461538 1.08054736,0.0846461538 C1.64041205,0.0846461538 2.09418819,0.602861538 2.09418819,1.24223077" id="Fill-18"></path>
                    <path d="M12.2308795,1.24223077 C12.2308795,1.8816 11.7769619,2.39981538 11.2172386,2.39981538 C10.6573739,2.39981538 10.2035978,1.8816 10.2035978,1.24223077 C10.2035978,0.602861538 10.6573739,0.0846461538 11.2172386,0.0846461538 C11.7769619,0.0846461538 12.2308795,0.602861538 12.2308795,1.24223077" id="Fill-19"></path>
                    <path d="M2.09418819,5.87273077 C2.09418819,6.51193846 1.64041205,7.03031538 1.08054736,7.03031538 C0.520682657,7.03031538 0.0669065191,6.51193846 0.0669065191,5.87273077 C0.0669065191,5.23336154 0.520682657,4.71498462 1.08054736,4.71498462 C1.64041205,4.71498462 2.09418819,5.23336154 2.09418819,5.87273077" id="Fill-20"></path>
                    <path d="M9.18995695,5.87273077 C9.18995695,6.51193846 8.73603936,7.03031538 8.17617466,7.03031538 C7.61630996,7.03031538 7.16253383,6.51193846 7.16253383,5.87273077 C7.16253383,5.23336154 7.61630996,4.71498462 8.17617466,4.71498462 C8.73603936,4.71498462 9.18995695,5.23336154 9.18995695,5.87273077" id="Fill-21"></path>
                    <path d="M7.16253383,10.5030692 C7.16253383,11.1424385 6.70861624,11.6606538 6.14875154,11.6606538 C5.58888684,11.6606538 5.1351107,11.1424385 5.1351107,10.5030692 C5.1351107,9.8637 5.58888684,9.34548462 6.14875154,9.34548462 C6.70861624,9.34548462 7.16253383,9.8637 7.16253383,10.5030692" id="Fill-22"></path>
                    <path d="M7.16253383,19.7640692 C7.16253383,20.4032769 6.70861624,20.9216538 6.14875154,20.9216538 C5.58888684,20.9216538 5.1351107,20.4032769 5.1351107,19.7640692 C5.1351107,19.1247 5.58888684,18.6063231 6.14875154,18.6063231 C6.70861624,18.6063231 7.16253383,19.1247 7.16253383,19.7640692" id="Fill-23"></path>
                    <path d="M7.16253383,1.24223077 C7.16253383,1.8816 6.70861624,2.39981538 6.14875154,2.39981538 C5.58888684,2.39981538 5.1351107,1.8816 5.1351107,1.24223077 C5.1351107,0.602861538 5.58888684,0.0846461538 6.14875154,0.0846461538 C6.70861624,0.0846461538 7.16253383,0.602861538 7.16253383,1.24223077" id="Fill-24"></path>
                    <path d="M2.09418819,10.5030692 C2.09418819,11.1424385 1.64041205,11.6606538 1.08054736,11.6606538 C0.520682657,11.6606538 0.0669065191,11.1424385 0.0669065191,10.5030692 C0.0669065191,9.8637 0.520682657,9.34548462 1.08054736,9.34548462 C1.64041205,9.34548462 2.09418819,9.8637 2.09418819,10.5030692" id="Fill-25"></path>
                    <path d="M2.09418819,15.1335692 C2.09418819,15.7729385 1.64041205,16.2911538 1.08054736,16.2911538 C0.520682657,16.2911538 0.0669065191,15.7729385 0.0669065191,15.1335692 C0.0669065191,14.4942 0.520682657,13.9759846 1.08054736,13.9759846 C1.64041205,13.9759846 2.09418819,14.4942 2.09418819,15.1335692" id="Fill-26"></path>
                    <path d="M10.2035978,15.1335692 C10.2035978,15.7729385 9.7496802,16.2911538 9.18995695,16.2911538 C8.6299508,16.2911538 8.17617466,15.7729385 8.17617466,15.1335692 C8.17617466,14.4942 8.6299508,13.9759846 9.18995695,13.9759846 C9.7496802,13.9759846 10.2035978,14.4942 10.2035978,15.1335692" id="Fill-27"></path>
                    <path d="M2.09418819,19.7640692 C2.09418819,20.4032769 1.64041205,20.9216538 1.08054736,20.9216538 C0.520682657,20.9216538 0.0669065191,20.4032769 0.0669065191,19.7640692 C0.0669065191,19.1247 0.520682657,18.6063231 1.08054736,18.6063231 C1.64041205,18.6063231 2.09418819,19.1247 2.09418819,19.7640692" id="Fill-28"></path>
                    <path d="M14.2581611,19.7640692 C14.2581611,20.4032769 13.804385,20.9216538 13.2445203,20.9216538 C12.6846556,20.9216538 12.2308795,20.4032769 12.2308795,19.7640692 C12.2308795,19.1247 12.6846556,18.6063231 13.2445203,18.6063231 C13.804385,18.6063231 14.2581611,19.1247 14.2581611,19.7640692" id="Fill-29"></path>
                    <path d="M14.2581611,10.5030692 C14.2581611,11.1424385 13.804385,11.6606538 13.2445203,11.6606538 C12.6846556,11.6606538 12.2308795,11.1424385 12.2308795,10.5030692 C12.2308795,9.8637 12.6846556,9.34548462 13.2445203,9.34548462 C13.804385,9.34548462 14.2581611,9.8637 14.2581611,10.5030692" id="Fill-30"></path>
                    <path d="M18.3128659,15.1335692 C18.3128659,15.7729385 17.8589483,16.2911538 17.2992251,16.2911538 C16.7393604,16.2911538 16.2855843,15.7729385 16.2855843,15.1335692 C16.2855843,14.4942 16.7393604,13.9759846 17.2992251,13.9759846 C17.8589483,13.9759846 18.3128659,14.4942 18.3128659,15.1335692" id="Fill-31"></path>
                    <path d="M16.3015683,5.87273077 C16.3015683,6.51193846 15.8477921,7.03031538 15.2879274,7.03031538 C14.7282042,7.03031538 14.2742866,6.51193846 14.2742866,5.87273077 C14.2742866,5.23336154 14.7282042,4.71498462 15.2879274,4.71498462 C15.8477921,4.71498462 16.3015683,5.23336154 16.3015683,5.87273077" id="Fill-32"></path>
                </g>
            </g>
        </g>
    </g>
</svg>