<?xml version="1.0" encoding="utf-8"?>
<!-- Generator: Adobe Illustrator 16.0.0, SVG Export Plug-In . SVG Version: 6.00 Build 0)  -->
<!DOCTYPE svg PUBLIC "-//W3C//DTD SVG 1.1//EN" "http://www.w3.org/Graphics/SVG/1.1/DTD/svg11.dtd">
<svg version="1.1" id="Layer_1" xmlns="http://www.w3.org/2000/svg" xmlns:xlink="http://www.w3.org/1999/xlink" x="0px" y="0px"
	 width="26.742px" height="25.565px" viewBox="0 0 26.742 25.565" enable-background="new 0 0 26.742 25.565" xml:space="preserve">
<g>
	<defs>
		<path id="SVGID_1_" d="M8.759,21.262c0.224,0.176,0.315,0.475,0.229,0.746c-0.007,0.023-0.021,0.041-0.031,0.064
			c-0.012,0.027-0.024,0.055-0.041,0.08c-0.016,0.027-0.032,0.053-0.052,0.076s-0.042,0.045-0.064,0.066
			c-0.021,0.02-0.04,0.041-0.064,0.059l-3.65,3.066c-0.297,0.232-0.728,0.182-0.962-0.115c-0.004-0.006-0.008-0.012-0.012-0.016
			c-0.22-0.297-0.165-0.717,0.127-0.947l2.104-1.822l0.005-0.045C6.28,22.496,6.212,22.51,6.139,22.51l0,0l-5.454-0.002
			c-0.241,0-0.465-0.127-0.588-0.334c-0.124-0.209-0.129-0.465-0.014-0.678L7.125,8.539c0.181-0.332,0.596-0.455,0.928-0.275
			c0.333,0.182,0.456,0.596,0.275,0.93L1.836,21.139l4.304,0.002c0.119,0,0.229,0.033,0.326,0.088l0.003-0.025l-2.305-1.812
			c-0.297-0.232-0.35-0.664-0.115-0.961c0.233-0.299,0.664-0.35,0.962-0.115L8.759,21.262z M14.438,5.309
			c0.137,0.352-0.038,0.748-0.391,0.887L9.603,7.922C9.337,8.025,9.034,7.953,8.844,7.74C8.828,7.721,8.819,7.699,8.806,7.68
			c-0.018-0.023-0.035-0.049-0.05-0.076S8.729,7.549,8.718,7.521C8.708,7.492,8.7,7.463,8.693,7.432
			C8.687,7.402,8.679,7.375,8.676,7.346L7.895,2.643c-0.051-0.375,0.213-0.719,0.588-0.77c0.007,0,0.013-0.002,0.02-0.002
			c0.367-0.039,0.7,0.223,0.75,0.59l0.498,2.74l0.036,0.027C9.801,5.16,9.824,5.094,9.861,5.031l2.777-4.695
			C12.761,0.129,12.984,0,13.226,0h0.002c0.24,0,0.464,0.127,0.588,0.334c0,0,7.477,12.498,7.57,12.654
			c0.194,0.324,0.089,0.746-0.235,0.939c-0.11,0.066-0.231,0.098-0.352,0.098c-0.232,0-0.46-0.119-0.588-0.334
			c-0.078-0.129-5.212-8.711-6.98-11.668l-2.19,3.705c-0.062,0.102-0.146,0.18-0.242,0.236l0.021,0.016l2.732-1.062
			C13.902,4.781,14.3,4.955,14.438,5.309z M26.314,16.35c0.351,0.141,0.52,0.541,0.378,0.891c-0.003,0.006-0.005,0.014-0.008,0.02
			c-0.148,0.338-0.539,0.498-0.884,0.359l-2.589-0.908c0.012,0.018,0.024,0.033,0.034,0.051l2.602,4.795
			c0.115,0.211,0.11,0.469-0.013,0.676s-0.348,0.334-0.589,0.334H10.501c-0.378,0-0.685-0.305-0.685-0.684s0.307-0.686,0.685-0.686
			h13.595l-2.054-3.783c-0.03-0.057-0.05-0.117-0.063-0.178l-0.01,0.006l-0.428,2.9c-0.055,0.373-0.402,0.633-0.777,0.578
			c-0.374-0.055-0.633-0.402-0.577-0.777l0.695-4.719c0.041-0.281,0.254-0.51,0.533-0.568c0.023-0.006,0.047-0.002,0.07-0.004
			c0.03-0.004,0.061-0.006,0.091-0.006c0.031,0,0.062,0.004,0.092,0.008c0.029,0.006,0.06,0.014,0.089,0.023
			c0.028,0.008,0.057,0.014,0.083,0.025L26.314,16.35z"/>
	</defs>
	<clipPath id="SVGID_2_">
		<use xlink:href="#SVGID_1_"  overflow="visible"/>
	</clipPath>
	<g clip-path="url(#SVGID_2_)">
		<defs>
			<rect id="SVGID_3_" x="-796.001" y="-342.155" width="1024" height="3325"/>
		</defs>
		<clipPath id="SVGID_4_">
			<use xlink:href="#SVGID_3_"  overflow="visible"/>
		</clipPath>
		<rect x="-5" y="-5" clip-path="url(#SVGID_4_)" fill="#FFFFFF" width="36.742" height="35.566"/>
	</g>
</g>
</svg>
