<?xml version="1.0" encoding="utf-8"?>
<!-- Generator: Adobe Illustrator 16.0.0, SVG Export Plug-In . SVG Version: 6.00 Build 0)  -->
<!DOCTYPE svg PUBLIC "-//W3C//DTD SVG 1.1//EN" "http://www.w3.org/Graphics/SVG/1.1/DTD/svg11.dtd">
<svg version="1.1" id="Layer_1" xmlns="http://www.w3.org/2000/svg" xmlns:xlink="http://www.w3.org/1999/xlink" x="0px" y="0px"
	 width="23.727px" height="22.504px" viewBox="0 0 23.727 22.504" enable-background="new 0 0 23.727 22.504" xml:space="preserve">
<g>
	<defs>
		<path id="SVGID_1_" d="M23.041,21.16H2.054l6.354-8.337l3.762,4.211c0.141,0.157,0.345,0.24,0.561,0.229
			c0.213-0.014,0.407-0.123,0.525-0.297l7.443-10.879l0.228,2.591c0.011,0.364,0.316,0.653,0.686,0.653
			c0.007,0,0.014-0.001,0.021-0.001c0.378-0.011,0.676-0.319,0.665-0.69L22.01,3.972c0-0.028-0.005-0.057-0.009-0.085
			c-0.004-0.03-0.008-0.061-0.016-0.089c-0.007-0.029-0.017-0.058-0.028-0.085c-0.012-0.028-0.026-0.055-0.042-0.08
			c-0.012-0.02-0.018-0.042-0.031-0.062c-0.167-0.228-0.462-0.329-0.737-0.256L16.54,4.547c-0.366,0.098-0.581,0.468-0.481,0.825
			c0.1,0.358,0.478,0.568,0.842,0.471l2.833-0.757l-7.119,10.405l-3.731-4.178c-0.137-0.152-0.337-0.238-0.543-0.229
			c-0.207,0.008-0.399,0.106-0.523,0.269L1.371,19.81V0.672C1.371,0.301,1.064,0,0.686,0S0,0.301,0,0.672v21.16
			c0,0.015,0.004,0.028,0.005,0.043c0.001,0.024,0.003,0.049,0.007,0.072c0.004,0.021,0.01,0.042,0.016,0.062
			c0.006,0.021,0.012,0.042,0.021,0.062c0.008,0.021,0.018,0.04,0.027,0.059c0.01,0.02,0.02,0.039,0.031,0.059
			c0.013,0.018,0.026,0.035,0.04,0.052c0.013,0.018,0.026,0.034,0.041,0.05c0.018,0.019,0.036,0.033,0.055,0.05
			c0.012,0.009,0.021,0.021,0.033,0.029c0.005,0.004,0.011,0.006,0.016,0.009c0.012,0.009,0.025,0.017,0.039,0.024
			c0.022,0.014,0.046,0.026,0.069,0.037c0.014,0.006,0.027,0.012,0.042,0.017c0.026,0.011,0.054,0.019,0.08,0.025
			c0.014,0.003,0.025,0.007,0.039,0.009c0.041,0.008,0.083,0.013,0.125,0.013v-0.001v0.001h22.355c0.379,0,0.686-0.301,0.686-0.672
			S23.42,21.16,23.041,21.16"/>
	</defs>
	<clipPath id="SVGID_2_">
		<use xlink:href="#SVGID_1_"  overflow="visible"/>
	</clipPath>
	<g clip-path="url(#SVGID_2_)">
		<defs>
			<rect id="SVGID_3_" x="-638" y="-339.377" width="1024" height="3325"/>
		</defs>
		<clipPath id="SVGID_4_">
			<use xlink:href="#SVGID_3_"  overflow="visible"/>
		</clipPath>
		<rect x="-5" y="-5" clip-path="url(#SVGID_4_)" fill="#FFFFFF" width="33.727" height="32.504"/>
	</g>
</g>
</svg>
