<?xml version="1.0" encoding="utf-8"?>
<!-- Generator: Adobe Illustrator 21.1.0, SVG Export Plug-In . SVG Version: 6.00 Build 0)  -->
<svg version="1.1" id="Capa_1" xmlns="http://www.w3.org/2000/svg" xmlns:xlink="http://www.w3.org/1999/xlink" x="0px" y="0px"
	 width="25px" viewBox="0 0 25 25" style="enable-background:new 0 0 25 25;" xml:space="preserve">
<style type="text/css">
	.st0{clip-path:url(#SVGID_2_);}
	.st1{clip-path:url(#SVGID_4_);fill:#FFFFFF;}
</style>
<g>
	<g>
		<defs>
			<path id="SVGID_1_" d="M12,17.4h1.2V14H12V17.4z M23.7,12.1h-3.6c0-1.2-0.4-3.8-2.1-5.7c-1.3-1.4-3.1-2.1-5.4-2.1l0,0
				c0,0,0,0-0.1,0C11.7,4.2,5,4.4,4.7,12H1.3V3.1h22.4V12.1z M24.3,1.9H0.6C0.3,1.9,0,2.2,0,2.5v10.2c0,0.4,0.3,0.6,0.6,0.6h4.6
				c0.4,0,0.6-0.3,0.6-0.6c0-6.8,5.5-7.1,6.6-7.1h0.1c2,0,3.5,0.5,4.5,1.7c2,2,1.8,5.3,1.8,5.3c0,0.2,0.1,0.4,0.2,0.4
				c0.1,0.1,0.3,0.2,0.4,0.2h4.7c0.4,0,0.6-0.3,0.6-0.6V2.5C25,2.2,24.7,1.9,24.3,1.9z M13.1,21.9v-3h-1.2v3.1H4.3L9.7,9.3H12v3.3
				h1.2V9.3h2.2l5.4,12.6L13.1,21.9L13.1,21.9z M16.3,8.4C16.2,8.1,16.1,8,15.8,8H9.3C9,8,8.8,8.2,8.8,8.4l-6,13.8
				c-0.1,0.3-0.1,0.4,0,0.6c0.1,0.2,0.3,0.3,0.5,0.3h18.3c0.2,0,0.4-0.1,0.5-0.3c0.1-0.2,0.2-0.4,0.1-0.6L16.3,8.4z"/>
		</defs>
		<clipPath id="SVGID_2_">
			<use xlink:href="#SVGID_1_"  style="overflow:visible;"/>
		</clipPath>
		<g class="st0">
			<g>
				<defs>
					<rect id="SVGID_3_" x="-674.3" y="-348.8" width="912.1" height="3072.2"/>
				</defs>
				<clipPath id="SVGID_4_">
					<use xlink:href="#SVGID_3_"  style="overflow:visible;"/>
				</clipPath>
				<rect x="-4.4" y="-2.6" class="st1" width="33.8" height="30.1"/>
			</g>
		</g>
	</g>
</g>
</svg>
