<?xml version="1.0" encoding="utf-8"?>
<!-- Generator: Adobe Illustrator 21.1.0, SVG Export Plug-In . SVG Version: 6.00 Build 0)  -->
<svg version="1.1" id="Capa_1" xmlns="http://www.w3.org/2000/svg" xmlns:xlink="http://www.w3.org/1999/xlink" x="0px" y="0px"
	 viewBox="0 0 299 51" style="enable-background:new 0 0 299 51;" xml:space="preserve">
<style type="text/css">
	.st0{fill:#3F3F3F;}
</style>
<g>
	<path class="st0" d="M29.9,6.5H3.8c-1.5,0-2.7-1.2-2.7-2.7c0-1.5,1.2-2.7,2.7-2.7h26.1c1.5,0,2.7,1.2,2.7,2.7
		C32.5,5.3,31.4,6.5,29.9,6.5"/>
	<path class="st0" d="M40.3,16.9H3.8c-1.5,0-2.7-1.2-2.7-2.7s1.2-2.7,2.7-2.7h36.5c1.5,0,2.7,1.2,2.7,2.7S41.8,16.9,40.3,16.9"/>
	<path class="st0" d="M35.1,27.4H3.8c-1.5,0-2.7-1.2-2.7-2.7c0-1.5,1.2-2.7,2.7-2.7h31.3c1.5,0,2.7,1.2,2.7,2.7
		C37.8,26.2,36.6,27.4,35.1,27.4"/>
	<path class="st0" d="M45.6,37.8H3.8c-1.5,0-2.7-1.2-2.7-2.7s1.2-2.7,2.7-2.7h41.8c1.5,0,2.7,1.2,2.7,2.7S47,37.8,45.6,37.8"/>
	<path class="st0" d="M35.1,48.2H3.8c-1.5,0-2.7-1.2-2.7-2.7s1.2-2.7,2.7-2.7h31.3c1.5,0,2.7,1.2,2.7,2.7S36.6,48.2,35.1,48.2"/>
	<path class="st0" d="M70.9,29.3V18.9c-1.2-0.6-2.6-0.9-3.8-0.9c-4.1,0-5.4,3.3-5.4,7.2c0,4.1,1.8,6.7,4.3,6.7
		C68,32,69.8,30.8,70.9,29.3 M56.9,25.4c0-7.3,3.8-10.9,9.5-10.9c2,0,3.6,0.4,4.5,0.8v-9h4.7v28.8h-3.7l-0.7-2.5l-0.2,0
		c-1.4,1.5-3.2,2.9-6.1,2.9C59.7,35.5,56.9,30.9,56.9,25.4"/>
	<path class="st0" d="M87.1,32.3c1.5,0,3.2-0.8,4.6-2.4v-4.5c-1.8,0.4-4.1,0.9-5.5,1.3c-1.3,0.3-2.2,0.8-2.2,2.4
		C84,31,85.4,32.3,87.1,32.3 M99.1,34.7c-1.4,0.5-2.8,0.8-3.9,0.8c-2.1,0-3-0.9-3.3-2.7l-0.2-0.1c-2.2,1.8-3.9,2.8-6.4,2.8
		c-3.3,0-6.2-2.4-6.2-5.9c0-2.8,1.6-4,4.7-4.8c2.6-0.6,5.9-1.3,7.9-1.8v-1.2c0-2.4-0.9-3.7-4-3.7c-2.2,0-4.5,0.7-6.7,1.8l-1-3
		c2.5-1.4,5.6-2.2,8-2.2c4.2,0,8.4,1.1,8.4,7.4v8.7c0,0.8,0.1,1.4,1.1,1.4c0.6,0,1,0,1.2-0.1L99.1,34.7z"/>
	<path class="st0" d="M99.5,14.9h3.3l0.9-5h3.7v5h6.2l-0.3,3.3h-5.9v10.4c0,1.7,0.5,2.9,2.4,2.9c1,0,2.5-0.3,4-0.9l0.6,3.6
		c-2.2,0.9-4.2,1.2-6,1.2c-4.2,0-5.8-2.2-5.8-6.3V18.2h-3.2V14.9z"/>
	<path class="st0" d="M131.2,25.1c0-5.2-2.1-7-5-7c-3,0-5.1,1.8-5.1,7c0,4.7,1.9,6.9,5.1,6.9C129.4,32,131.2,29.8,131.2,25.1
		 M116.3,25.1c0-6.8,3.5-10.5,9.9-10.5c6.5,0,9.9,3.7,9.9,10.5c0,7.4-4,10.4-9.9,10.4C120.3,35.5,116.3,32.4,116.3,25.1"/>
	<path class="st0" d="M145.8,35.5c-2.6,0-5.6-0.7-7-1.6l0.6-3.2c1.6,0.7,4.3,1.5,6.6,1.5c2.2,0,4-0.6,4-2.7c0-3.8-10.8-2.1-10.8-8.9
		c0-4,3.3-6,8.2-6c2.6,0,5.2,0.6,6.4,1.2L153,19c-1.3-0.6-3.7-1.1-5.7-1.1c-2.1,0-3.6,0.8-3.6,2.5c0,3.5,10.7,2,10.7,8.9
		C154.5,33.6,150.6,35.5,145.8,35.5"/>
	<path class="st0" d="M160.3,30.2c1.6,0,2.8,1.1,2.8,2.7c0,1.5-1.2,2.6-2.8,2.6c-1.6,0-2.8-1.1-2.8-2.6
		C157.5,31.3,158.7,30.2,160.3,30.2"/>
	<path class="st0" d="M175.1,24.8c2.4,0,4-1.2,4-3.7s-1.4-3.9-3.8-3.9c-2.5,0-3.9,1.5-3.9,3.9C171.4,23,172.5,24.8,175.1,24.8
		 M173.8,34.7c-1,0.2-3.4,1.2-3.4,3.3c0,2.4,3,2.8,5.3,2.8c2.7,0,6-0.8,6.1-3.6c0-1.5-0.8-2.5-3.2-2.5H173.8z M175.2,14.6
		c3.6,0,5.5,1.1,6.5,2.1h0.2c0.1-1.3,0.4-2.2,2.2-2.2c0.9,0,2.1,0.2,2.7,0.5l-0.3,2.5c-0.8-0.1-1.3-0.1-1.8-0.1
		c-1.6,0-1.6,0.9-1.7,2.1c0.2,0.6,0.3,1.3,0.3,1.8c0,4-3.4,6.2-8.5,6.2c-0.2,0-0.6,0-0.9,0c-1.2,0.4-3.2,1.4-3.2,2.8
		c0,1.1,1.2,1.4,2.1,1.4h6.4c4.7,0,7.2,1.7,7.2,5.4c0,5.4-6.9,6.7-11.8,6.7c-3.1,0-9.2-0.7-9.2-5.1c0-2.6,1.8-3.9,3.4-4.7v-0.2
		c-2-0.6-2.3-1.8-2.3-2.6c0-2.2,2.3-3.6,4.3-4.3l0-0.2c-2.6-0.8-4.2-2.7-4.2-5.4C166.8,17.1,170,14.6,175.2,14.6"/>
	<path class="st0" d="M203,25.1c0-5.2-2.1-7-5-7c-3,0-5.1,1.8-5.1,7c0,4.7,1.9,6.9,5.1,6.9C201.2,32,203,29.8,203,25.1 M188.1,25.1
		c0-6.8,3.5-10.5,9.9-10.5c6.5,0,9.9,3.7,9.9,10.5c0,7.4-4,10.4-9.9,10.4C192.2,35.5,188.1,32.4,188.1,25.1"/>
	<path class="st0" d="M216.3,20.8v10.3c1.2,0.6,2.7,0.9,3.8,0.9c3.9,0,5.4-3.1,5.4-7.2c0-3.9-1.6-6.8-4.3-6.8
		C219.2,18.1,217.5,19.2,216.3,20.8 M211.5,6.3h4.8v6.9l-0.1,4l0.2,0.1c1.3-1.3,3-2.8,5.9-2.8c5.3,0,8.1,4.6,8.1,10.1
		c0,6.7-3.1,10.8-9.8,10.8c-2.1,0-4.4-0.3-6.8-1.5l-0.8,1.1h-1.5V6.3z"/>
	<path class="st0" d="M236.2,30.2c1.6,0,2.8,1.1,2.8,2.7c0,1.5-1.2,2.6-2.8,2.6c-1.6,0-2.8-1.1-2.8-2.6
		C233.4,31.3,234.6,30.2,236.2,30.2"/>
	<path class="st0" d="M243,14.9h4l0.5,2.7l0.3,0c2.2-2.2,4.2-3,6.7-3c2.7,0,4.5,1.2,5.5,3.2h0.3c2.3-2.3,4.7-3.2,7-3.2
		c4.6,0,6.6,3,6.6,7.7v12.9h-4.8V22.9c0-3.1-1.1-4.6-3.4-4.6c-1.8,0-3.7,0.9-4.9,2.5v14.2h-4.8V22.9c0-3.1-1.1-4.6-3.3-4.6
		c-1.8,0-3.9,1.2-4.9,2.8v14H243V14.9z"/>
	<path class="st0" d="M290.3,24.4c1.8,2.8,2.4,3.7,4,6.1c0.8,0.9,1.5,1.4,2.7,1.5v3.2c-0.6,0.1-1.5,0.2-2.2,0.2
		c-1.9,0-2.8-0.6-4.3-2.7c-1.4-1.9-2.3-3.4-3.6-5.5h-0.2c-1,1.5-2.6,4-5,7.9h-5.2c3.1-4.9,5.8-8.7,7-10.4c-1.4-2.1-2.2-3.3-3.6-5.2
		c-0.9-1.2-1.7-1.5-2.4-1.5v-3.1c0.7,0,1.3-0.1,1.9-0.1c2.1,0,2.9,0.4,4.5,2.6c1.2,1.7,2,3,3,4.6h0.2c0.7-1.1,2.3-3.6,4.3-7.1h5.1
		C294,18.9,291.3,22.9,290.3,24.4"/>
	<path class="st0" d="M6.4,3.8c0,1.4-1.2,2.6-2.6,2.6S1.2,5.3,1.2,3.8c0-1.4,1.2-2.6,2.6-2.6S6.4,2.4,6.4,3.8"/>
	<path class="st0" d="M32.5,3.8c0,1.4-1.2,2.6-2.6,2.6c-1.4,0-2.6-1.2-2.6-2.6c0-1.4,1.2-2.6,2.6-2.6C31.3,1.2,32.5,2.4,32.5,3.8"/>
	<path class="st0" d="M6.4,14.3c0,1.4-1.2,2.6-2.6,2.6s-2.6-1.2-2.6-2.6c0-1.4,1.2-2.6,2.6-2.6S6.4,12.8,6.4,14.3"/>
	<path class="st0" d="M24.7,14.3c0,1.4-1.2,2.6-2.6,2.6s-2.6-1.2-2.6-2.6c0-1.4,1.2-2.6,2.6-2.6S24.7,12.8,24.7,14.3"/>
	<path class="st0" d="M19.4,24.7c0,1.4-1.2,2.6-2.6,2.6s-2.6-1.2-2.6-2.6c0-1.4,1.2-2.6,2.6-2.6S19.4,23.3,19.4,24.7"/>
	<path class="st0" d="M19.4,45.6c0,1.4-1.2,2.6-2.6,2.6s-2.6-1.2-2.6-2.6c0-1.4,1.2-2.6,2.6-2.6S19.4,44.1,19.4,45.6"/>
	<path class="st0" d="M19.4,3.8c0,1.4-1.2,2.6-2.6,2.6s-2.6-1.2-2.6-2.6c0-1.4,1.2-2.6,2.6-2.6S19.4,2.4,19.4,3.8"/>
	<path class="st0" d="M6.4,24.7c0,1.4-1.2,2.6-2.6,2.6s-2.6-1.2-2.6-2.6c0-1.4,1.2-2.6,2.6-2.6S6.4,23.3,6.4,24.7"/>
	<path class="st0" d="M6.4,35.1c0,1.4-1.2,2.6-2.6,2.6s-2.6-1.2-2.6-2.6c0-1.4,1.2-2.6,2.6-2.6S6.4,33.7,6.4,35.1"/>
	<path class="st0" d="M27.3,35.1c0,1.4-1.2,2.6-2.6,2.6s-2.6-1.2-2.6-2.6c0-1.4,1.2-2.6,2.6-2.6S27.3,33.7,27.3,35.1"/>
	<path class="st0" d="M6.4,45.6c0,1.4-1.2,2.6-2.6,2.6S1.2,47,1.2,45.6c0-1.4,1.2-2.6,2.6-2.6S6.4,44.1,6.4,45.6"/>
	<path class="st0" d="M37.7,45.6c0,1.4-1.2,2.6-2.6,2.6c-1.4,0-2.6-1.2-2.6-2.6c0-1.4,1.2-2.6,2.6-2.6C36.6,43,37.7,44.1,37.7,45.6"
		/>
	<path class="st0" d="M37.7,24.7c0,1.4-1.2,2.6-2.6,2.6c-1.4,0-2.6-1.2-2.6-2.6c0-1.4,1.2-2.6,2.6-2.6
		C36.6,22.1,37.7,23.3,37.7,24.7"/>
	<path class="st0" d="M48.2,35.1c0,1.4-1.2,2.6-2.6,2.6c-1.4,0-2.6-1.2-2.6-2.6c0-1.4,1.2-2.6,2.6-2.6C47,32.5,48.2,33.7,48.2,35.1"
		/>
	<path class="st0" d="M43,14.3c0,1.4-1.2,2.6-2.6,2.6c-1.4,0-2.6-1.2-2.6-2.6c0-1.4,1.2-2.6,2.6-2.6C41.8,11.6,43,12.8,43,14.3"/>
</g>
</svg>
